%TF.GenerationSoftware,KiCad,Pcbnew,(5.1.7)-1*%
%TF.CreationDate,2021-03-23T20:34:08+01:00*%
%TF.ProjectId,sk-1_octave,736b2d31-5f6f-4637-9461-76652e6b6963,rev?*%
%TF.SameCoordinates,Original*%
%TF.FileFunction,Legend,Top*%
%TF.FilePolarity,Positive*%
%FSLAX46Y46*%
G04 Gerber Fmt 4.6, Leading zero omitted, Abs format (unit mm)*
G04 Created by KiCad (PCBNEW (5.1.7)-1) date 2021-03-23 20:34:08*
%MOMM*%
%LPD*%
G01*
G04 APERTURE LIST*
%ADD10C,0.120000*%
%ADD11C,0.150000*%
G04 APERTURE END LIST*
D10*
%TO.C,R4*%
X106157500Y-111251276D02*
X106157500Y-111760724D01*
X107202500Y-111251276D02*
X107202500Y-111760724D01*
%TO.C,R3*%
X107202500Y-108204724D02*
X107202500Y-107695276D01*
X106157500Y-108204724D02*
X106157500Y-107695276D01*
%TO.C,R2*%
X107935500Y-107695276D02*
X107935500Y-108204724D01*
X108980500Y-107695276D02*
X108980500Y-108204724D01*
%TO.C,C6*%
X100945733Y-101094000D02*
X101238267Y-101094000D01*
X100945733Y-100074000D02*
X101238267Y-100074000D01*
%TO.C,C5*%
X95502000Y-104501733D02*
X95502000Y-104794267D01*
X96522000Y-104501733D02*
X96522000Y-104794267D01*
%TO.C,U3*%
X101092000Y-103144000D02*
X97642000Y-103144000D01*
X101092000Y-103144000D02*
X103042000Y-103144000D01*
X101092000Y-113264000D02*
X99142000Y-113264000D01*
X101092000Y-113264000D02*
X103042000Y-113264000D01*
%TO.C,U2*%
X90932000Y-103261000D02*
X87482000Y-103261000D01*
X90932000Y-103261000D02*
X92882000Y-103261000D01*
X90932000Y-112131000D02*
X88982000Y-112131000D01*
X90932000Y-112131000D02*
X92882000Y-112131000D01*
%TO.C,U1*%
X80772000Y-103261000D02*
X77322000Y-103261000D01*
X80772000Y-103261000D02*
X82722000Y-103261000D01*
X80772000Y-112131000D02*
X78822000Y-112131000D01*
X80772000Y-112131000D02*
X82722000Y-112131000D01*
%TO.C,TP7*%
X84512000Y-100584000D02*
G75*
G03*
X84512000Y-100584000I-1200000J0D01*
G01*
%TO.C,TP6*%
X91624000Y-100584000D02*
G75*
G03*
X91624000Y-100584000I-1200000J0D01*
G01*
%TO.C,TP5*%
X105848000Y-100584000D02*
G75*
G03*
X105848000Y-100584000I-1200000J0D01*
G01*
%TO.C,TP4*%
X98736000Y-100584000D02*
G75*
G03*
X98736000Y-100584000I-1200000J0D01*
G01*
%TO.C,TP3*%
X76200000Y-105156000D02*
G75*
G03*
X76200000Y-105156000I-1200000J0D01*
G01*
%TO.C,TP2*%
X76200000Y-100584000D02*
G75*
G03*
X76200000Y-100584000I-1200000J0D01*
G01*
%TO.C,TP1*%
X109912000Y-103632000D02*
G75*
G03*
X109912000Y-103632000I-1200000J0D01*
G01*
%TO.C,R1*%
X93725276Y-101106500D02*
X94234724Y-101106500D01*
X93725276Y-100061500D02*
X94234724Y-100061500D01*
%TO.C,C4*%
X105662000Y-104247733D02*
X105662000Y-104540267D01*
X106682000Y-104247733D02*
X106682000Y-104540267D01*
%TO.C,C3*%
X85342000Y-104501733D02*
X85342000Y-104794267D01*
X86362000Y-104501733D02*
X86362000Y-104794267D01*
%TO.C,C2*%
X87014267Y-100074000D02*
X86721733Y-100074000D01*
X87014267Y-101094000D02*
X86721733Y-101094000D01*
%TO.C,C1*%
X107948000Y-111359733D02*
X107948000Y-111652267D01*
X108968000Y-111359733D02*
X108968000Y-111652267D01*
%TO.C,R4*%
D11*
X105860380Y-111666666D02*
X105384190Y-112000000D01*
X105860380Y-112238095D02*
X104860380Y-112238095D01*
X104860380Y-111857142D01*
X104908000Y-111761904D01*
X104955619Y-111714285D01*
X105050857Y-111666666D01*
X105193714Y-111666666D01*
X105288952Y-111714285D01*
X105336571Y-111761904D01*
X105384190Y-111857142D01*
X105384190Y-112238095D01*
X105193714Y-110809523D02*
X105860380Y-110809523D01*
X104812761Y-111047619D02*
X105527047Y-111285714D01*
X105527047Y-110666666D01*
%TO.C,R3*%
X105852380Y-108166666D02*
X105376190Y-108500000D01*
X105852380Y-108738095D02*
X104852380Y-108738095D01*
X104852380Y-108357142D01*
X104900000Y-108261904D01*
X104947619Y-108214285D01*
X105042857Y-108166666D01*
X105185714Y-108166666D01*
X105280952Y-108214285D01*
X105328571Y-108261904D01*
X105376190Y-108357142D01*
X105376190Y-108738095D01*
X104852380Y-107833333D02*
X104852380Y-107214285D01*
X105233333Y-107547619D01*
X105233333Y-107404761D01*
X105280952Y-107309523D01*
X105328571Y-107261904D01*
X105423809Y-107214285D01*
X105661904Y-107214285D01*
X105757142Y-107261904D01*
X105804761Y-107309523D01*
X105852380Y-107404761D01*
X105852380Y-107690476D01*
X105804761Y-107785714D01*
X105757142Y-107833333D01*
%TO.C,R2*%
X110260380Y-108066666D02*
X109784190Y-108400000D01*
X110260380Y-108638095D02*
X109260380Y-108638095D01*
X109260380Y-108257142D01*
X109308000Y-108161904D01*
X109355619Y-108114285D01*
X109450857Y-108066666D01*
X109593714Y-108066666D01*
X109688952Y-108114285D01*
X109736571Y-108161904D01*
X109784190Y-108257142D01*
X109784190Y-108638095D01*
X109355619Y-107685714D02*
X109308000Y-107638095D01*
X109260380Y-107542857D01*
X109260380Y-107304761D01*
X109308000Y-107209523D01*
X109355619Y-107161904D01*
X109450857Y-107114285D01*
X109546095Y-107114285D01*
X109688952Y-107161904D01*
X110260380Y-107733333D01*
X110260380Y-107114285D01*
%TO.C,C6*%
X100925333Y-99511142D02*
X100877714Y-99558761D01*
X100734857Y-99606380D01*
X100639619Y-99606380D01*
X100496761Y-99558761D01*
X100401523Y-99463523D01*
X100353904Y-99368285D01*
X100306285Y-99177809D01*
X100306285Y-99034952D01*
X100353904Y-98844476D01*
X100401523Y-98749238D01*
X100496761Y-98654000D01*
X100639619Y-98606380D01*
X100734857Y-98606380D01*
X100877714Y-98654000D01*
X100925333Y-98701619D01*
X101782476Y-98606380D02*
X101592000Y-98606380D01*
X101496761Y-98654000D01*
X101449142Y-98701619D01*
X101353904Y-98844476D01*
X101306285Y-99034952D01*
X101306285Y-99415904D01*
X101353904Y-99511142D01*
X101401523Y-99558761D01*
X101496761Y-99606380D01*
X101687238Y-99606380D01*
X101782476Y-99558761D01*
X101830095Y-99511142D01*
X101877714Y-99415904D01*
X101877714Y-99177809D01*
X101830095Y-99082571D01*
X101782476Y-99034952D01*
X101687238Y-98987333D01*
X101496761Y-98987333D01*
X101401523Y-99034952D01*
X101353904Y-99082571D01*
X101306285Y-99177809D01*
%TO.C,C5*%
X95833333Y-102757142D02*
X95785714Y-102804761D01*
X95642857Y-102852380D01*
X95547619Y-102852380D01*
X95404761Y-102804761D01*
X95309523Y-102709523D01*
X95261904Y-102614285D01*
X95214285Y-102423809D01*
X95214285Y-102280952D01*
X95261904Y-102090476D01*
X95309523Y-101995238D01*
X95404761Y-101900000D01*
X95547619Y-101852380D01*
X95642857Y-101852380D01*
X95785714Y-101900000D01*
X95833333Y-101947619D01*
X96738095Y-101852380D02*
X96261904Y-101852380D01*
X96214285Y-102328571D01*
X96261904Y-102280952D01*
X96357142Y-102233333D01*
X96595238Y-102233333D01*
X96690476Y-102280952D01*
X96738095Y-102328571D01*
X96785714Y-102423809D01*
X96785714Y-102661904D01*
X96738095Y-102757142D01*
X96690476Y-102804761D01*
X96595238Y-102852380D01*
X96357142Y-102852380D01*
X96261904Y-102804761D01*
X96214285Y-102757142D01*
%TO.C,U3*%
X100338095Y-101952380D02*
X100338095Y-102761904D01*
X100385714Y-102857142D01*
X100433333Y-102904761D01*
X100528571Y-102952380D01*
X100719047Y-102952380D01*
X100814285Y-102904761D01*
X100861904Y-102857142D01*
X100909523Y-102761904D01*
X100909523Y-101952380D01*
X101290476Y-101952380D02*
X101909523Y-101952380D01*
X101576190Y-102333333D01*
X101719047Y-102333333D01*
X101814285Y-102380952D01*
X101861904Y-102428571D01*
X101909523Y-102523809D01*
X101909523Y-102761904D01*
X101861904Y-102857142D01*
X101814285Y-102904761D01*
X101719047Y-102952380D01*
X101433333Y-102952380D01*
X101338095Y-102904761D01*
X101290476Y-102857142D01*
%TO.C,U2*%
X90138095Y-102052380D02*
X90138095Y-102861904D01*
X90185714Y-102957142D01*
X90233333Y-103004761D01*
X90328571Y-103052380D01*
X90519047Y-103052380D01*
X90614285Y-103004761D01*
X90661904Y-102957142D01*
X90709523Y-102861904D01*
X90709523Y-102052380D01*
X91138095Y-102147619D02*
X91185714Y-102100000D01*
X91280952Y-102052380D01*
X91519047Y-102052380D01*
X91614285Y-102100000D01*
X91661904Y-102147619D01*
X91709523Y-102242857D01*
X91709523Y-102338095D01*
X91661904Y-102480952D01*
X91090476Y-103052380D01*
X91709523Y-103052380D01*
%TO.C,U1*%
X80038095Y-102052380D02*
X80038095Y-102861904D01*
X80085714Y-102957142D01*
X80133333Y-103004761D01*
X80228571Y-103052380D01*
X80419047Y-103052380D01*
X80514285Y-103004761D01*
X80561904Y-102957142D01*
X80609523Y-102861904D01*
X80609523Y-102052380D01*
X81609523Y-103052380D02*
X81038095Y-103052380D01*
X81323809Y-103052380D02*
X81323809Y-102052380D01*
X81228571Y-102195238D01*
X81133333Y-102290476D01*
X81038095Y-102338095D01*
%TO.C,TP7*%
X82698095Y-98000000D02*
X82602857Y-97952380D01*
X82460000Y-97952380D01*
X82317142Y-98000000D01*
X82221904Y-98095238D01*
X82174285Y-98190476D01*
X82126666Y-98380952D01*
X82126666Y-98523809D01*
X82174285Y-98714285D01*
X82221904Y-98809523D01*
X82317142Y-98904761D01*
X82460000Y-98952380D01*
X82555238Y-98952380D01*
X82698095Y-98904761D01*
X82745714Y-98857142D01*
X82745714Y-98523809D01*
X82555238Y-98523809D01*
X83174285Y-98952380D02*
X83174285Y-97952380D01*
X83745714Y-98952380D01*
X83745714Y-97952380D01*
X84221904Y-98952380D02*
X84221904Y-97952380D01*
X84460000Y-97952380D01*
X84602857Y-98000000D01*
X84698095Y-98095238D01*
X84745714Y-98190476D01*
X84793333Y-98380952D01*
X84793333Y-98523809D01*
X84745714Y-98714285D01*
X84698095Y-98809523D01*
X84602857Y-98904761D01*
X84460000Y-98952380D01*
X84221904Y-98952380D01*
%TO.C,TP6*%
X89166285Y-98571428D02*
X89928190Y-98571428D01*
X89547238Y-98952380D02*
X89547238Y-98190476D01*
X90880571Y-97952380D02*
X90404380Y-97952380D01*
X90356761Y-98428571D01*
X90404380Y-98380952D01*
X90499619Y-98333333D01*
X90737714Y-98333333D01*
X90832952Y-98380952D01*
X90880571Y-98428571D01*
X90928190Y-98523809D01*
X90928190Y-98761904D01*
X90880571Y-98857142D01*
X90832952Y-98904761D01*
X90737714Y-98952380D01*
X90499619Y-98952380D01*
X90404380Y-98904761D01*
X90356761Y-98857142D01*
X91213904Y-97952380D02*
X91547238Y-98952380D01*
X91880571Y-97952380D01*
%TO.C,TP5*%
X103314666Y-98956761D02*
X103457523Y-99004380D01*
X103695619Y-99004380D01*
X103790857Y-98956761D01*
X103838476Y-98909142D01*
X103886095Y-98813904D01*
X103886095Y-98718666D01*
X103838476Y-98623428D01*
X103790857Y-98575809D01*
X103695619Y-98528190D01*
X103505142Y-98480571D01*
X103409904Y-98432952D01*
X103362285Y-98385333D01*
X103314666Y-98290095D01*
X103314666Y-98194857D01*
X103362285Y-98099619D01*
X103409904Y-98052000D01*
X103505142Y-98004380D01*
X103743238Y-98004380D01*
X103886095Y-98052000D01*
X104219428Y-98004380D02*
X104457523Y-99004380D01*
X104648000Y-98290095D01*
X104838476Y-99004380D01*
X105076571Y-98004380D01*
X105409904Y-98099619D02*
X105457523Y-98052000D01*
X105552761Y-98004380D01*
X105790857Y-98004380D01*
X105886095Y-98052000D01*
X105933714Y-98099619D01*
X105981333Y-98194857D01*
X105981333Y-98290095D01*
X105933714Y-98432952D01*
X105362285Y-99004380D01*
X105981333Y-99004380D01*
%TO.C,TP4*%
X96202666Y-98956761D02*
X96345523Y-99004380D01*
X96583619Y-99004380D01*
X96678857Y-98956761D01*
X96726476Y-98909142D01*
X96774095Y-98813904D01*
X96774095Y-98718666D01*
X96726476Y-98623428D01*
X96678857Y-98575809D01*
X96583619Y-98528190D01*
X96393142Y-98480571D01*
X96297904Y-98432952D01*
X96250285Y-98385333D01*
X96202666Y-98290095D01*
X96202666Y-98194857D01*
X96250285Y-98099619D01*
X96297904Y-98052000D01*
X96393142Y-98004380D01*
X96631238Y-98004380D01*
X96774095Y-98052000D01*
X97107428Y-98004380D02*
X97345523Y-99004380D01*
X97536000Y-98290095D01*
X97726476Y-99004380D01*
X97964571Y-98004380D01*
X98869333Y-99004380D02*
X98297904Y-99004380D01*
X98583619Y-99004380D02*
X98583619Y-98004380D01*
X98488380Y-98147238D01*
X98393142Y-98242476D01*
X98297904Y-98290095D01*
%TO.C,TP3*%
X75452380Y-111500000D02*
X75452380Y-111976190D01*
X74452380Y-111976190D01*
X75357142Y-110595238D02*
X75404761Y-110642857D01*
X75452380Y-110785714D01*
X75452380Y-110880952D01*
X75404761Y-111023809D01*
X75309523Y-111119047D01*
X75214285Y-111166666D01*
X75023809Y-111214285D01*
X74880952Y-111214285D01*
X74690476Y-111166666D01*
X74595238Y-111119047D01*
X74500000Y-111023809D01*
X74452380Y-110880952D01*
X74452380Y-110785714D01*
X74500000Y-110642857D01*
X74547619Y-110595238D01*
X75547619Y-110404761D02*
X75547619Y-109642857D01*
X74452380Y-109214285D02*
X74452380Y-109023809D01*
X74500000Y-108928571D01*
X74595238Y-108833333D01*
X74785714Y-108785714D01*
X75119047Y-108785714D01*
X75309523Y-108833333D01*
X75404761Y-108928571D01*
X75452380Y-109023809D01*
X75452380Y-109214285D01*
X75404761Y-109309523D01*
X75309523Y-109404761D01*
X75119047Y-109452380D01*
X74785714Y-109452380D01*
X74595238Y-109404761D01*
X74500000Y-109309523D01*
X74452380Y-109214285D01*
X74452380Y-108357142D02*
X75261904Y-108357142D01*
X75357142Y-108309523D01*
X75404761Y-108261904D01*
X75452380Y-108166666D01*
X75452380Y-107976190D01*
X75404761Y-107880952D01*
X75357142Y-107833333D01*
X75261904Y-107785714D01*
X74452380Y-107785714D01*
X74452380Y-107452380D02*
X74452380Y-106880952D01*
X75452380Y-107166666D02*
X74452380Y-107166666D01*
%TO.C,TP2*%
X77166666Y-100952380D02*
X76690476Y-100952380D01*
X76690476Y-99952380D01*
X78071428Y-100857142D02*
X78023809Y-100904761D01*
X77880952Y-100952380D01*
X77785714Y-100952380D01*
X77642857Y-100904761D01*
X77547619Y-100809523D01*
X77500000Y-100714285D01*
X77452380Y-100523809D01*
X77452380Y-100380952D01*
X77500000Y-100190476D01*
X77547619Y-100095238D01*
X77642857Y-100000000D01*
X77785714Y-99952380D01*
X77880952Y-99952380D01*
X78023809Y-100000000D01*
X78071428Y-100047619D01*
X78261904Y-101047619D02*
X79023809Y-101047619D01*
X79261904Y-100952380D02*
X79261904Y-99952380D01*
X79738095Y-100952380D02*
X79738095Y-99952380D01*
X80309523Y-100952380D01*
X80309523Y-99952380D01*
%TO.C,TP1*%
X107712000Y-100952380D02*
X107902476Y-100952380D01*
X107997714Y-101000000D01*
X108092952Y-101095238D01*
X108140571Y-101285714D01*
X108140571Y-101619047D01*
X108092952Y-101809523D01*
X107997714Y-101904761D01*
X107902476Y-101952380D01*
X107712000Y-101952380D01*
X107616761Y-101904761D01*
X107521523Y-101809523D01*
X107473904Y-101619047D01*
X107473904Y-101285714D01*
X107521523Y-101095238D01*
X107616761Y-101000000D01*
X107712000Y-100952380D01*
X108569142Y-100952380D02*
X108569142Y-101761904D01*
X108616761Y-101857142D01*
X108664380Y-101904761D01*
X108759619Y-101952380D01*
X108950095Y-101952380D01*
X109045333Y-101904761D01*
X109092952Y-101857142D01*
X109140571Y-101761904D01*
X109140571Y-100952380D01*
X109473904Y-100952380D02*
X110045333Y-100952380D01*
X109759619Y-101952380D02*
X109759619Y-100952380D01*
%TO.C,R1*%
X93813333Y-99606380D02*
X93480000Y-99130190D01*
X93241904Y-99606380D02*
X93241904Y-98606380D01*
X93622857Y-98606380D01*
X93718095Y-98654000D01*
X93765714Y-98701619D01*
X93813333Y-98796857D01*
X93813333Y-98939714D01*
X93765714Y-99034952D01*
X93718095Y-99082571D01*
X93622857Y-99130190D01*
X93241904Y-99130190D01*
X94765714Y-99606380D02*
X94194285Y-99606380D01*
X94480000Y-99606380D02*
X94480000Y-98606380D01*
X94384761Y-98749238D01*
X94289523Y-98844476D01*
X94194285Y-98892095D01*
%TO.C,C4*%
X105933333Y-102503142D02*
X105885714Y-102550761D01*
X105742857Y-102598380D01*
X105647619Y-102598380D01*
X105504761Y-102550761D01*
X105409523Y-102455523D01*
X105361904Y-102360285D01*
X105314285Y-102169809D01*
X105314285Y-102026952D01*
X105361904Y-101836476D01*
X105409523Y-101741238D01*
X105504761Y-101646000D01*
X105647619Y-101598380D01*
X105742857Y-101598380D01*
X105885714Y-101646000D01*
X105933333Y-101693619D01*
X106790476Y-101931714D02*
X106790476Y-102598380D01*
X106552380Y-101550761D02*
X106314285Y-102265047D01*
X106933333Y-102265047D01*
%TO.C,C3*%
X85633333Y-102757142D02*
X85585714Y-102804761D01*
X85442857Y-102852380D01*
X85347619Y-102852380D01*
X85204761Y-102804761D01*
X85109523Y-102709523D01*
X85061904Y-102614285D01*
X85014285Y-102423809D01*
X85014285Y-102280952D01*
X85061904Y-102090476D01*
X85109523Y-101995238D01*
X85204761Y-101900000D01*
X85347619Y-101852380D01*
X85442857Y-101852380D01*
X85585714Y-101900000D01*
X85633333Y-101947619D01*
X85966666Y-101852380D02*
X86585714Y-101852380D01*
X86252380Y-102233333D01*
X86395238Y-102233333D01*
X86490476Y-102280952D01*
X86538095Y-102328571D01*
X86585714Y-102423809D01*
X86585714Y-102661904D01*
X86538095Y-102757142D01*
X86490476Y-102804761D01*
X86395238Y-102852380D01*
X86109523Y-102852380D01*
X86014285Y-102804761D01*
X85966666Y-102757142D01*
%TO.C,C2*%
X86701333Y-99457142D02*
X86653714Y-99504761D01*
X86510857Y-99552380D01*
X86415619Y-99552380D01*
X86272761Y-99504761D01*
X86177523Y-99409523D01*
X86129904Y-99314285D01*
X86082285Y-99123809D01*
X86082285Y-98980952D01*
X86129904Y-98790476D01*
X86177523Y-98695238D01*
X86272761Y-98600000D01*
X86415619Y-98552380D01*
X86510857Y-98552380D01*
X86653714Y-98600000D01*
X86701333Y-98647619D01*
X87082285Y-98647619D02*
X87129904Y-98600000D01*
X87225142Y-98552380D01*
X87463238Y-98552380D01*
X87558476Y-98600000D01*
X87606095Y-98647619D01*
X87653714Y-98742857D01*
X87653714Y-98838095D01*
X87606095Y-98980952D01*
X87034666Y-99552380D01*
X87653714Y-99552380D01*
%TO.C,C1*%
X110165142Y-111666666D02*
X110212761Y-111714285D01*
X110260380Y-111857142D01*
X110260380Y-111952380D01*
X110212761Y-112095238D01*
X110117523Y-112190476D01*
X110022285Y-112238095D01*
X109831809Y-112285714D01*
X109688952Y-112285714D01*
X109498476Y-112238095D01*
X109403238Y-112190476D01*
X109308000Y-112095238D01*
X109260380Y-111952380D01*
X109260380Y-111857142D01*
X109308000Y-111714285D01*
X109355619Y-111666666D01*
X110260380Y-110714285D02*
X110260380Y-111285714D01*
X110260380Y-111000000D02*
X109260380Y-111000000D01*
X109403238Y-111095238D01*
X109498476Y-111190476D01*
X109546095Y-111285714D01*
%TD*%
M02*
