M48
; DRILL file {KiCad (5.1.7)-1} date 03/23/21 20:34:11
; FORMAT={-:-/ absolute / inch / decimal}
; #@! TF.CreationDate,2021-03-23T20:34:11+01:00
; #@! TF.GenerationSoftware,Kicad,Pcbnew,(5.1.7)-1
; #@! TF.FileFunction,Plated,1,2,PTH
FMAT,2
INCH
T1C0.0157
%
G90
G05
T1
X2.9047Y-4.2159
X2.9146Y-3.8813
X3.0197Y-4.3898
X3.0228Y-4.0387
X3.1606Y-4.2257
X3.2008Y-3.8819
X3.3425Y-4.3386
X3.3504Y-4.0118
X3.3819Y-4.2008
X3.4173Y-4.3898
X3.4756Y-4.0289
X3.574Y-4.3242
X3.6035Y-4.1667
X3.6457Y-3.8813
X3.78Y-4.2018
X3.8189Y-4.4331
X3.9087Y-4.0289
X3.9862Y-4.3045
X3.9874Y-4.1864
X4.0551Y-4.0039
X4.1417Y-4.3858
X4.2239Y-4.1462
X4.3024Y-3.8813
X4.3161Y-4.3222
T0
M30
