%TF.GenerationSoftware,KiCad,Pcbnew,(5.1.7)-1*%
%TF.CreationDate,2021-03-16T22:27:34+01:00*%
%TF.ProjectId,sk-1_octave,736b2d31-5f6f-4637-9461-76652e6b6963,rev?*%
%TF.SameCoordinates,Original*%
%TF.FileFunction,Copper,L1,Top*%
%TF.FilePolarity,Positive*%
%FSLAX46Y46*%
G04 Gerber Fmt 4.6, Leading zero omitted, Abs format (unit mm)*
G04 Created by KiCad (PCBNEW (5.1.7)-1) date 2021-03-16 22:27:34*
%MOMM*%
%LPD*%
G01*
G04 APERTURE LIST*
%TA.AperFunction,SMDPad,CuDef*%
%ADD10C,2.000000*%
%TD*%
%TA.AperFunction,ViaPad*%
%ADD11C,0.800000*%
%TD*%
%TA.AperFunction,Conductor*%
%ADD12C,0.250000*%
%TD*%
%TA.AperFunction,Conductor*%
%ADD13C,0.200000*%
%TD*%
%TA.AperFunction,Conductor*%
%ADD14C,0.100000*%
%TD*%
G04 APERTURE END LIST*
%TO.P,R4,2*%
%TO.N,GND*%
%TA.AperFunction,SMDPad,CuDef*%
G36*
G01*
X106442500Y-111931000D02*
X106917500Y-111931000D01*
G75*
G02*
X107155000Y-112168500I0J-237500D01*
G01*
X107155000Y-112668500D01*
G75*
G02*
X106917500Y-112906000I-237500J0D01*
G01*
X106442500Y-112906000D01*
G75*
G02*
X106205000Y-112668500I0J237500D01*
G01*
X106205000Y-112168500D01*
G75*
G02*
X106442500Y-111931000I237500J0D01*
G01*
G37*
%TD.AperFunction*%
%TO.P,R4,1*%
%TO.N,Net-(C1-Pad1)*%
%TA.AperFunction,SMDPad,CuDef*%
G36*
G01*
X106442500Y-110106000D02*
X106917500Y-110106000D01*
G75*
G02*
X107155000Y-110343500I0J-237500D01*
G01*
X107155000Y-110843500D01*
G75*
G02*
X106917500Y-111081000I-237500J0D01*
G01*
X106442500Y-111081000D01*
G75*
G02*
X106205000Y-110843500I0J237500D01*
G01*
X106205000Y-110343500D01*
G75*
G02*
X106442500Y-110106000I237500J0D01*
G01*
G37*
%TD.AperFunction*%
%TD*%
%TO.P,R3,2*%
%TO.N,Net-(R3-Pad2)*%
%TA.AperFunction,SMDPad,CuDef*%
G36*
G01*
X106917500Y-107525000D02*
X106442500Y-107525000D01*
G75*
G02*
X106205000Y-107287500I0J237500D01*
G01*
X106205000Y-106787500D01*
G75*
G02*
X106442500Y-106550000I237500J0D01*
G01*
X106917500Y-106550000D01*
G75*
G02*
X107155000Y-106787500I0J-237500D01*
G01*
X107155000Y-107287500D01*
G75*
G02*
X106917500Y-107525000I-237500J0D01*
G01*
G37*
%TD.AperFunction*%
%TO.P,R3,1*%
%TO.N,Net-(C1-Pad1)*%
%TA.AperFunction,SMDPad,CuDef*%
G36*
G01*
X106917500Y-109350000D02*
X106442500Y-109350000D01*
G75*
G02*
X106205000Y-109112500I0J237500D01*
G01*
X106205000Y-108612500D01*
G75*
G02*
X106442500Y-108375000I237500J0D01*
G01*
X106917500Y-108375000D01*
G75*
G02*
X107155000Y-108612500I0J-237500D01*
G01*
X107155000Y-109112500D01*
G75*
G02*
X106917500Y-109350000I-237500J0D01*
G01*
G37*
%TD.AperFunction*%
%TD*%
%TO.P,R2,2*%
%TO.N,Net-(C1-Pad1)*%
%TA.AperFunction,SMDPad,CuDef*%
G36*
G01*
X108220500Y-108375000D02*
X108695500Y-108375000D01*
G75*
G02*
X108933000Y-108612500I0J-237500D01*
G01*
X108933000Y-109112500D01*
G75*
G02*
X108695500Y-109350000I-237500J0D01*
G01*
X108220500Y-109350000D01*
G75*
G02*
X107983000Y-109112500I0J237500D01*
G01*
X107983000Y-108612500D01*
G75*
G02*
X108220500Y-108375000I237500J0D01*
G01*
G37*
%TD.AperFunction*%
%TO.P,R2,1*%
%TO.N,+5V*%
%TA.AperFunction,SMDPad,CuDef*%
G36*
G01*
X108220500Y-106550000D02*
X108695500Y-106550000D01*
G75*
G02*
X108933000Y-106787500I0J-237500D01*
G01*
X108933000Y-107287500D01*
G75*
G02*
X108695500Y-107525000I-237500J0D01*
G01*
X108220500Y-107525000D01*
G75*
G02*
X107983000Y-107287500I0J237500D01*
G01*
X107983000Y-106787500D01*
G75*
G02*
X108220500Y-106550000I237500J0D01*
G01*
G37*
%TD.AperFunction*%
%TD*%
%TO.P,C6,2*%
%TO.N,GND*%
%TA.AperFunction,SMDPad,CuDef*%
G36*
G01*
X101417000Y-100821500D02*
X101417000Y-100346500D01*
G75*
G02*
X101654500Y-100109000I237500J0D01*
G01*
X102254500Y-100109000D01*
G75*
G02*
X102492000Y-100346500I0J-237500D01*
G01*
X102492000Y-100821500D01*
G75*
G02*
X102254500Y-101059000I-237500J0D01*
G01*
X101654500Y-101059000D01*
G75*
G02*
X101417000Y-100821500I0J237500D01*
G01*
G37*
%TD.AperFunction*%
%TO.P,C6,1*%
%TO.N,Net-(C6-Pad1)*%
%TA.AperFunction,SMDPad,CuDef*%
G36*
G01*
X99692000Y-100821500D02*
X99692000Y-100346500D01*
G75*
G02*
X99929500Y-100109000I237500J0D01*
G01*
X100529500Y-100109000D01*
G75*
G02*
X100767000Y-100346500I0J-237500D01*
G01*
X100767000Y-100821500D01*
G75*
G02*
X100529500Y-101059000I-237500J0D01*
G01*
X99929500Y-101059000D01*
G75*
G02*
X99692000Y-100821500I0J237500D01*
G01*
G37*
%TD.AperFunction*%
%TD*%
%TO.P,C5,2*%
%TO.N,GND*%
%TA.AperFunction,SMDPad,CuDef*%
G36*
G01*
X95774500Y-104973000D02*
X96249500Y-104973000D01*
G75*
G02*
X96487000Y-105210500I0J-237500D01*
G01*
X96487000Y-105810500D01*
G75*
G02*
X96249500Y-106048000I-237500J0D01*
G01*
X95774500Y-106048000D01*
G75*
G02*
X95537000Y-105810500I0J237500D01*
G01*
X95537000Y-105210500D01*
G75*
G02*
X95774500Y-104973000I237500J0D01*
G01*
G37*
%TD.AperFunction*%
%TO.P,C5,1*%
%TO.N,+5V*%
%TA.AperFunction,SMDPad,CuDef*%
G36*
G01*
X95774500Y-103248000D02*
X96249500Y-103248000D01*
G75*
G02*
X96487000Y-103485500I0J-237500D01*
G01*
X96487000Y-104085500D01*
G75*
G02*
X96249500Y-104323000I-237500J0D01*
G01*
X95774500Y-104323000D01*
G75*
G02*
X95537000Y-104085500I0J237500D01*
G01*
X95537000Y-103485500D01*
G75*
G02*
X95774500Y-103248000I237500J0D01*
G01*
G37*
%TD.AperFunction*%
%TD*%
%TO.P,U3,16*%
%TO.N,+5V*%
%TA.AperFunction,SMDPad,CuDef*%
G36*
G01*
X102592000Y-103909000D02*
X102592000Y-103609000D01*
G75*
G02*
X102742000Y-103459000I150000J0D01*
G01*
X104392000Y-103459000D01*
G75*
G02*
X104542000Y-103609000I0J-150000D01*
G01*
X104542000Y-103909000D01*
G75*
G02*
X104392000Y-104059000I-150000J0D01*
G01*
X102742000Y-104059000D01*
G75*
G02*
X102592000Y-103909000I0J150000D01*
G01*
G37*
%TD.AperFunction*%
%TO.P,U3,15*%
%TO.N,GND*%
%TA.AperFunction,SMDPad,CuDef*%
G36*
G01*
X102592000Y-105179000D02*
X102592000Y-104879000D01*
G75*
G02*
X102742000Y-104729000I150000J0D01*
G01*
X104392000Y-104729000D01*
G75*
G02*
X104542000Y-104879000I0J-150000D01*
G01*
X104542000Y-105179000D01*
G75*
G02*
X104392000Y-105329000I-150000J0D01*
G01*
X102742000Y-105329000D01*
G75*
G02*
X102592000Y-105179000I0J150000D01*
G01*
G37*
%TD.AperFunction*%
%TO.P,U3,14*%
%TA.AperFunction,SMDPad,CuDef*%
G36*
G01*
X102592000Y-106449000D02*
X102592000Y-106149000D01*
G75*
G02*
X102742000Y-105999000I150000J0D01*
G01*
X104392000Y-105999000D01*
G75*
G02*
X104542000Y-106149000I0J-150000D01*
G01*
X104542000Y-106449000D01*
G75*
G02*
X104392000Y-106599000I-150000J0D01*
G01*
X102742000Y-106599000D01*
G75*
G02*
X102592000Y-106449000I0J150000D01*
G01*
G37*
%TD.AperFunction*%
%TO.P,U3,13*%
%TA.AperFunction,SMDPad,CuDef*%
G36*
G01*
X102592000Y-107719000D02*
X102592000Y-107419000D01*
G75*
G02*
X102742000Y-107269000I150000J0D01*
G01*
X104392000Y-107269000D01*
G75*
G02*
X104542000Y-107419000I0J-150000D01*
G01*
X104542000Y-107719000D01*
G75*
G02*
X104392000Y-107869000I-150000J0D01*
G01*
X102742000Y-107869000D01*
G75*
G02*
X102592000Y-107719000I0J150000D01*
G01*
G37*
%TD.AperFunction*%
%TO.P,U3,12*%
%TO.N,Net-(U3-Pad12)*%
%TA.AperFunction,SMDPad,CuDef*%
G36*
G01*
X102592000Y-108989000D02*
X102592000Y-108689000D01*
G75*
G02*
X102742000Y-108539000I150000J0D01*
G01*
X104392000Y-108539000D01*
G75*
G02*
X104542000Y-108689000I0J-150000D01*
G01*
X104542000Y-108989000D01*
G75*
G02*
X104392000Y-109139000I-150000J0D01*
G01*
X102742000Y-109139000D01*
G75*
G02*
X102592000Y-108989000I0J150000D01*
G01*
G37*
%TD.AperFunction*%
%TO.P,U3,11*%
%TO.N,GND*%
%TA.AperFunction,SMDPad,CuDef*%
G36*
G01*
X102592000Y-110259000D02*
X102592000Y-109959000D01*
G75*
G02*
X102742000Y-109809000I150000J0D01*
G01*
X104392000Y-109809000D01*
G75*
G02*
X104542000Y-109959000I0J-150000D01*
G01*
X104542000Y-110259000D01*
G75*
G02*
X104392000Y-110409000I-150000J0D01*
G01*
X102742000Y-110409000D01*
G75*
G02*
X102592000Y-110259000I0J150000D01*
G01*
G37*
%TD.AperFunction*%
%TO.P,U3,10*%
%TA.AperFunction,SMDPad,CuDef*%
G36*
G01*
X102592000Y-111529000D02*
X102592000Y-111229000D01*
G75*
G02*
X102742000Y-111079000I150000J0D01*
G01*
X104392000Y-111079000D01*
G75*
G02*
X104542000Y-111229000I0J-150000D01*
G01*
X104542000Y-111529000D01*
G75*
G02*
X104392000Y-111679000I-150000J0D01*
G01*
X102742000Y-111679000D01*
G75*
G02*
X102592000Y-111529000I0J150000D01*
G01*
G37*
%TD.AperFunction*%
%TO.P,U3,9*%
%TO.N,Net-(U3-Pad9)*%
%TA.AperFunction,SMDPad,CuDef*%
G36*
G01*
X102592000Y-112799000D02*
X102592000Y-112499000D01*
G75*
G02*
X102742000Y-112349000I150000J0D01*
G01*
X104392000Y-112349000D01*
G75*
G02*
X104542000Y-112499000I0J-150000D01*
G01*
X104542000Y-112799000D01*
G75*
G02*
X104392000Y-112949000I-150000J0D01*
G01*
X102742000Y-112949000D01*
G75*
G02*
X102592000Y-112799000I0J150000D01*
G01*
G37*
%TD.AperFunction*%
%TO.P,U3,8*%
%TO.N,GND*%
%TA.AperFunction,SMDPad,CuDef*%
G36*
G01*
X97642000Y-112799000D02*
X97642000Y-112499000D01*
G75*
G02*
X97792000Y-112349000I150000J0D01*
G01*
X99442000Y-112349000D01*
G75*
G02*
X99592000Y-112499000I0J-150000D01*
G01*
X99592000Y-112799000D01*
G75*
G02*
X99442000Y-112949000I-150000J0D01*
G01*
X97792000Y-112949000D01*
G75*
G02*
X97642000Y-112799000I0J150000D01*
G01*
G37*
%TD.AperFunction*%
%TO.P,U3,7*%
%TO.N,Net-(U3-Pad7)*%
%TA.AperFunction,SMDPad,CuDef*%
G36*
G01*
X97642000Y-111529000D02*
X97642000Y-111229000D01*
G75*
G02*
X97792000Y-111079000I150000J0D01*
G01*
X99442000Y-111079000D01*
G75*
G02*
X99592000Y-111229000I0J-150000D01*
G01*
X99592000Y-111529000D01*
G75*
G02*
X99442000Y-111679000I-150000J0D01*
G01*
X97792000Y-111679000D01*
G75*
G02*
X97642000Y-111529000I0J150000D01*
G01*
G37*
%TD.AperFunction*%
%TO.P,U3,6*%
%TO.N,GND*%
%TA.AperFunction,SMDPad,CuDef*%
G36*
G01*
X97642000Y-110259000D02*
X97642000Y-109959000D01*
G75*
G02*
X97792000Y-109809000I150000J0D01*
G01*
X99442000Y-109809000D01*
G75*
G02*
X99592000Y-109959000I0J-150000D01*
G01*
X99592000Y-110259000D01*
G75*
G02*
X99442000Y-110409000I-150000J0D01*
G01*
X97792000Y-110409000D01*
G75*
G02*
X97642000Y-110259000I0J150000D01*
G01*
G37*
%TD.AperFunction*%
%TO.P,U3,5*%
%TA.AperFunction,SMDPad,CuDef*%
G36*
G01*
X97642000Y-108989000D02*
X97642000Y-108689000D01*
G75*
G02*
X97792000Y-108539000I150000J0D01*
G01*
X99442000Y-108539000D01*
G75*
G02*
X99592000Y-108689000I0J-150000D01*
G01*
X99592000Y-108989000D01*
G75*
G02*
X99442000Y-109139000I-150000J0D01*
G01*
X97792000Y-109139000D01*
G75*
G02*
X97642000Y-108989000I0J150000D01*
G01*
G37*
%TD.AperFunction*%
%TO.P,U3,4*%
%TO.N,Net-(R3-Pad2)*%
%TA.AperFunction,SMDPad,CuDef*%
G36*
G01*
X97642000Y-107719000D02*
X97642000Y-107419000D01*
G75*
G02*
X97792000Y-107269000I150000J0D01*
G01*
X99442000Y-107269000D01*
G75*
G02*
X99592000Y-107419000I0J-150000D01*
G01*
X99592000Y-107719000D01*
G75*
G02*
X99442000Y-107869000I-150000J0D01*
G01*
X97792000Y-107869000D01*
G75*
G02*
X97642000Y-107719000I0J150000D01*
G01*
G37*
%TD.AperFunction*%
%TO.P,U3,3*%
%TO.N,Net-(U2-Pad9)*%
%TA.AperFunction,SMDPad,CuDef*%
G36*
G01*
X97642000Y-106449000D02*
X97642000Y-106149000D01*
G75*
G02*
X97792000Y-105999000I150000J0D01*
G01*
X99442000Y-105999000D01*
G75*
G02*
X99592000Y-106149000I0J-150000D01*
G01*
X99592000Y-106449000D01*
G75*
G02*
X99442000Y-106599000I-150000J0D01*
G01*
X97792000Y-106599000D01*
G75*
G02*
X97642000Y-106449000I0J150000D01*
G01*
G37*
%TD.AperFunction*%
%TO.P,U3,2*%
%TO.N,Net-(U1-Pad4)*%
%TA.AperFunction,SMDPad,CuDef*%
G36*
G01*
X97642000Y-105179000D02*
X97642000Y-104879000D01*
G75*
G02*
X97792000Y-104729000I150000J0D01*
G01*
X99442000Y-104729000D01*
G75*
G02*
X99592000Y-104879000I0J-150000D01*
G01*
X99592000Y-105179000D01*
G75*
G02*
X99442000Y-105329000I-150000J0D01*
G01*
X97792000Y-105329000D01*
G75*
G02*
X97642000Y-105179000I0J150000D01*
G01*
G37*
%TD.AperFunction*%
%TO.P,U3,1*%
%TO.N,Net-(C6-Pad1)*%
%TA.AperFunction,SMDPad,CuDef*%
G36*
G01*
X97642000Y-103909000D02*
X97642000Y-103609000D01*
G75*
G02*
X97792000Y-103459000I150000J0D01*
G01*
X99442000Y-103459000D01*
G75*
G02*
X99592000Y-103609000I0J-150000D01*
G01*
X99592000Y-103909000D01*
G75*
G02*
X99442000Y-104059000I-150000J0D01*
G01*
X97792000Y-104059000D01*
G75*
G02*
X97642000Y-103909000I0J150000D01*
G01*
G37*
%TD.AperFunction*%
%TD*%
%TO.P,U2,14*%
%TO.N,+5V*%
%TA.AperFunction,SMDPad,CuDef*%
G36*
G01*
X92432000Y-104036000D02*
X92432000Y-103736000D01*
G75*
G02*
X92582000Y-103586000I150000J0D01*
G01*
X94232000Y-103586000D01*
G75*
G02*
X94382000Y-103736000I0J-150000D01*
G01*
X94382000Y-104036000D01*
G75*
G02*
X94232000Y-104186000I-150000J0D01*
G01*
X92582000Y-104186000D01*
G75*
G02*
X92432000Y-104036000I0J150000D01*
G01*
G37*
%TD.AperFunction*%
%TO.P,U2,13*%
%TA.AperFunction,SMDPad,CuDef*%
G36*
G01*
X92432000Y-105306000D02*
X92432000Y-105006000D01*
G75*
G02*
X92582000Y-104856000I150000J0D01*
G01*
X94232000Y-104856000D01*
G75*
G02*
X94382000Y-105006000I0J-150000D01*
G01*
X94382000Y-105306000D01*
G75*
G02*
X94232000Y-105456000I-150000J0D01*
G01*
X92582000Y-105456000D01*
G75*
G02*
X92432000Y-105306000I0J150000D01*
G01*
G37*
%TD.AperFunction*%
%TO.P,U2,12*%
%TO.N,Net-(U2-Pad12)*%
%TA.AperFunction,SMDPad,CuDef*%
G36*
G01*
X92432000Y-106576000D02*
X92432000Y-106276000D01*
G75*
G02*
X92582000Y-106126000I150000J0D01*
G01*
X94232000Y-106126000D01*
G75*
G02*
X94382000Y-106276000I0J-150000D01*
G01*
X94382000Y-106576000D01*
G75*
G02*
X94232000Y-106726000I-150000J0D01*
G01*
X92582000Y-106726000D01*
G75*
G02*
X92432000Y-106576000I0J150000D01*
G01*
G37*
%TD.AperFunction*%
%TO.P,U2,11*%
%TO.N,Net-(U2-Pad11)*%
%TA.AperFunction,SMDPad,CuDef*%
G36*
G01*
X92432000Y-107846000D02*
X92432000Y-107546000D01*
G75*
G02*
X92582000Y-107396000I150000J0D01*
G01*
X94232000Y-107396000D01*
G75*
G02*
X94382000Y-107546000I0J-150000D01*
G01*
X94382000Y-107846000D01*
G75*
G02*
X94232000Y-107996000I-150000J0D01*
G01*
X92582000Y-107996000D01*
G75*
G02*
X92432000Y-107846000I0J150000D01*
G01*
G37*
%TD.AperFunction*%
%TO.P,U2,10*%
%TO.N,+5V*%
%TA.AperFunction,SMDPad,CuDef*%
G36*
G01*
X92432000Y-109116000D02*
X92432000Y-108816000D01*
G75*
G02*
X92582000Y-108666000I150000J0D01*
G01*
X94232000Y-108666000D01*
G75*
G02*
X94382000Y-108816000I0J-150000D01*
G01*
X94382000Y-109116000D01*
G75*
G02*
X94232000Y-109266000I-150000J0D01*
G01*
X92582000Y-109266000D01*
G75*
G02*
X92432000Y-109116000I0J150000D01*
G01*
G37*
%TD.AperFunction*%
%TO.P,U2,9*%
%TO.N,Net-(U2-Pad9)*%
%TA.AperFunction,SMDPad,CuDef*%
G36*
G01*
X92432000Y-110386000D02*
X92432000Y-110086000D01*
G75*
G02*
X92582000Y-109936000I150000J0D01*
G01*
X94232000Y-109936000D01*
G75*
G02*
X94382000Y-110086000I0J-150000D01*
G01*
X94382000Y-110386000D01*
G75*
G02*
X94232000Y-110536000I-150000J0D01*
G01*
X92582000Y-110536000D01*
G75*
G02*
X92432000Y-110386000I0J150000D01*
G01*
G37*
%TD.AperFunction*%
%TO.P,U2,8*%
%TO.N,Net-(U2-Pad12)*%
%TA.AperFunction,SMDPad,CuDef*%
G36*
G01*
X92432000Y-111656000D02*
X92432000Y-111356000D01*
G75*
G02*
X92582000Y-111206000I150000J0D01*
G01*
X94232000Y-111206000D01*
G75*
G02*
X94382000Y-111356000I0J-150000D01*
G01*
X94382000Y-111656000D01*
G75*
G02*
X94232000Y-111806000I-150000J0D01*
G01*
X92582000Y-111806000D01*
G75*
G02*
X92432000Y-111656000I0J150000D01*
G01*
G37*
%TD.AperFunction*%
%TO.P,U2,7*%
%TO.N,GND*%
%TA.AperFunction,SMDPad,CuDef*%
G36*
G01*
X87482000Y-111656000D02*
X87482000Y-111356000D01*
G75*
G02*
X87632000Y-111206000I150000J0D01*
G01*
X89282000Y-111206000D01*
G75*
G02*
X89432000Y-111356000I0J-150000D01*
G01*
X89432000Y-111656000D01*
G75*
G02*
X89282000Y-111806000I-150000J0D01*
G01*
X87632000Y-111806000D01*
G75*
G02*
X87482000Y-111656000I0J150000D01*
G01*
G37*
%TD.AperFunction*%
%TO.P,U2,6*%
%TO.N,Net-(U2-Pad2)*%
%TA.AperFunction,SMDPad,CuDef*%
G36*
G01*
X87482000Y-110386000D02*
X87482000Y-110086000D01*
G75*
G02*
X87632000Y-109936000I150000J0D01*
G01*
X89282000Y-109936000D01*
G75*
G02*
X89432000Y-110086000I0J-150000D01*
G01*
X89432000Y-110386000D01*
G75*
G02*
X89282000Y-110536000I-150000J0D01*
G01*
X87632000Y-110536000D01*
G75*
G02*
X87482000Y-110386000I0J150000D01*
G01*
G37*
%TD.AperFunction*%
%TO.P,U2,5*%
%TO.N,Net-(U2-Pad11)*%
%TA.AperFunction,SMDPad,CuDef*%
G36*
G01*
X87482000Y-109116000D02*
X87482000Y-108816000D01*
G75*
G02*
X87632000Y-108666000I150000J0D01*
G01*
X89282000Y-108666000D01*
G75*
G02*
X89432000Y-108816000I0J-150000D01*
G01*
X89432000Y-109116000D01*
G75*
G02*
X89282000Y-109266000I-150000J0D01*
G01*
X87632000Y-109266000D01*
G75*
G02*
X87482000Y-109116000I0J150000D01*
G01*
G37*
%TD.AperFunction*%
%TO.P,U2,4*%
%TO.N,+5V*%
%TA.AperFunction,SMDPad,CuDef*%
G36*
G01*
X87482000Y-107846000D02*
X87482000Y-107546000D01*
G75*
G02*
X87632000Y-107396000I150000J0D01*
G01*
X89282000Y-107396000D01*
G75*
G02*
X89432000Y-107546000I0J-150000D01*
G01*
X89432000Y-107846000D01*
G75*
G02*
X89282000Y-107996000I-150000J0D01*
G01*
X87632000Y-107996000D01*
G75*
G02*
X87482000Y-107846000I0J150000D01*
G01*
G37*
%TD.AperFunction*%
%TO.P,U2,3*%
%TO.N,Net-(TP3-Pad1)*%
%TA.AperFunction,SMDPad,CuDef*%
G36*
G01*
X87482000Y-106576000D02*
X87482000Y-106276000D01*
G75*
G02*
X87632000Y-106126000I150000J0D01*
G01*
X89282000Y-106126000D01*
G75*
G02*
X89432000Y-106276000I0J-150000D01*
G01*
X89432000Y-106576000D01*
G75*
G02*
X89282000Y-106726000I-150000J0D01*
G01*
X87632000Y-106726000D01*
G75*
G02*
X87482000Y-106576000I0J150000D01*
G01*
G37*
%TD.AperFunction*%
%TO.P,U2,2*%
%TO.N,Net-(U2-Pad2)*%
%TA.AperFunction,SMDPad,CuDef*%
G36*
G01*
X87482000Y-105306000D02*
X87482000Y-105006000D01*
G75*
G02*
X87632000Y-104856000I150000J0D01*
G01*
X89282000Y-104856000D01*
G75*
G02*
X89432000Y-105006000I0J-150000D01*
G01*
X89432000Y-105306000D01*
G75*
G02*
X89282000Y-105456000I-150000J0D01*
G01*
X87632000Y-105456000D01*
G75*
G02*
X87482000Y-105306000I0J150000D01*
G01*
G37*
%TD.AperFunction*%
%TO.P,U2,1*%
%TO.N,+5V*%
%TA.AperFunction,SMDPad,CuDef*%
G36*
G01*
X87482000Y-104036000D02*
X87482000Y-103736000D01*
G75*
G02*
X87632000Y-103586000I150000J0D01*
G01*
X89282000Y-103586000D01*
G75*
G02*
X89432000Y-103736000I0J-150000D01*
G01*
X89432000Y-104036000D01*
G75*
G02*
X89282000Y-104186000I-150000J0D01*
G01*
X87632000Y-104186000D01*
G75*
G02*
X87482000Y-104036000I0J150000D01*
G01*
G37*
%TD.AperFunction*%
%TD*%
%TO.P,U1,14*%
%TO.N,+5V*%
%TA.AperFunction,SMDPad,CuDef*%
G36*
G01*
X82272000Y-104036000D02*
X82272000Y-103736000D01*
G75*
G02*
X82422000Y-103586000I150000J0D01*
G01*
X84072000Y-103586000D01*
G75*
G02*
X84222000Y-103736000I0J-150000D01*
G01*
X84222000Y-104036000D01*
G75*
G02*
X84072000Y-104186000I-150000J0D01*
G01*
X82422000Y-104186000D01*
G75*
G02*
X82272000Y-104036000I0J150000D01*
G01*
G37*
%TD.AperFunction*%
%TO.P,U1,13*%
%TO.N,GND*%
%TA.AperFunction,SMDPad,CuDef*%
G36*
G01*
X82272000Y-105306000D02*
X82272000Y-105006000D01*
G75*
G02*
X82422000Y-104856000I150000J0D01*
G01*
X84072000Y-104856000D01*
G75*
G02*
X84222000Y-105006000I0J-150000D01*
G01*
X84222000Y-105306000D01*
G75*
G02*
X84072000Y-105456000I-150000J0D01*
G01*
X82422000Y-105456000D01*
G75*
G02*
X82272000Y-105306000I0J150000D01*
G01*
G37*
%TD.AperFunction*%
%TO.P,U1,12*%
%TO.N,Net-(U1-Pad12)*%
%TA.AperFunction,SMDPad,CuDef*%
G36*
G01*
X82272000Y-106576000D02*
X82272000Y-106276000D01*
G75*
G02*
X82422000Y-106126000I150000J0D01*
G01*
X84072000Y-106126000D01*
G75*
G02*
X84222000Y-106276000I0J-150000D01*
G01*
X84222000Y-106576000D01*
G75*
G02*
X84072000Y-106726000I-150000J0D01*
G01*
X82422000Y-106726000D01*
G75*
G02*
X82272000Y-106576000I0J150000D01*
G01*
G37*
%TD.AperFunction*%
%TO.P,U1,11*%
%TO.N,GND*%
%TA.AperFunction,SMDPad,CuDef*%
G36*
G01*
X82272000Y-107846000D02*
X82272000Y-107546000D01*
G75*
G02*
X82422000Y-107396000I150000J0D01*
G01*
X84072000Y-107396000D01*
G75*
G02*
X84222000Y-107546000I0J-150000D01*
G01*
X84222000Y-107846000D01*
G75*
G02*
X84072000Y-107996000I-150000J0D01*
G01*
X82422000Y-107996000D01*
G75*
G02*
X82272000Y-107846000I0J150000D01*
G01*
G37*
%TD.AperFunction*%
%TO.P,U1,10*%
%TO.N,Net-(U1-Pad10)*%
%TA.AperFunction,SMDPad,CuDef*%
G36*
G01*
X82272000Y-109116000D02*
X82272000Y-108816000D01*
G75*
G02*
X82422000Y-108666000I150000J0D01*
G01*
X84072000Y-108666000D01*
G75*
G02*
X84222000Y-108816000I0J-150000D01*
G01*
X84222000Y-109116000D01*
G75*
G02*
X84072000Y-109266000I-150000J0D01*
G01*
X82422000Y-109266000D01*
G75*
G02*
X82272000Y-109116000I0J150000D01*
G01*
G37*
%TD.AperFunction*%
%TO.P,U1,9*%
%TO.N,GND*%
%TA.AperFunction,SMDPad,CuDef*%
G36*
G01*
X82272000Y-110386000D02*
X82272000Y-110086000D01*
G75*
G02*
X82422000Y-109936000I150000J0D01*
G01*
X84072000Y-109936000D01*
G75*
G02*
X84222000Y-110086000I0J-150000D01*
G01*
X84222000Y-110386000D01*
G75*
G02*
X84072000Y-110536000I-150000J0D01*
G01*
X82422000Y-110536000D01*
G75*
G02*
X82272000Y-110386000I0J150000D01*
G01*
G37*
%TD.AperFunction*%
%TO.P,U1,8*%
%TO.N,Net-(U1-Pad8)*%
%TA.AperFunction,SMDPad,CuDef*%
G36*
G01*
X82272000Y-111656000D02*
X82272000Y-111356000D01*
G75*
G02*
X82422000Y-111206000I150000J0D01*
G01*
X84072000Y-111206000D01*
G75*
G02*
X84222000Y-111356000I0J-150000D01*
G01*
X84222000Y-111656000D01*
G75*
G02*
X84072000Y-111806000I-150000J0D01*
G01*
X82422000Y-111806000D01*
G75*
G02*
X82272000Y-111656000I0J150000D01*
G01*
G37*
%TD.AperFunction*%
%TO.P,U1,7*%
%TO.N,GND*%
%TA.AperFunction,SMDPad,CuDef*%
G36*
G01*
X77322000Y-111656000D02*
X77322000Y-111356000D01*
G75*
G02*
X77472000Y-111206000I150000J0D01*
G01*
X79122000Y-111206000D01*
G75*
G02*
X79272000Y-111356000I0J-150000D01*
G01*
X79272000Y-111656000D01*
G75*
G02*
X79122000Y-111806000I-150000J0D01*
G01*
X77472000Y-111806000D01*
G75*
G02*
X77322000Y-111656000I0J150000D01*
G01*
G37*
%TD.AperFunction*%
%TO.P,U1,6*%
%TO.N,Net-(U1-Pad6)*%
%TA.AperFunction,SMDPad,CuDef*%
G36*
G01*
X77322000Y-110386000D02*
X77322000Y-110086000D01*
G75*
G02*
X77472000Y-109936000I150000J0D01*
G01*
X79122000Y-109936000D01*
G75*
G02*
X79272000Y-110086000I0J-150000D01*
G01*
X79272000Y-110386000D01*
G75*
G02*
X79122000Y-110536000I-150000J0D01*
G01*
X77472000Y-110536000D01*
G75*
G02*
X77322000Y-110386000I0J150000D01*
G01*
G37*
%TD.AperFunction*%
%TO.P,U1,5*%
%TO.N,GND*%
%TA.AperFunction,SMDPad,CuDef*%
G36*
G01*
X77322000Y-109116000D02*
X77322000Y-108816000D01*
G75*
G02*
X77472000Y-108666000I150000J0D01*
G01*
X79122000Y-108666000D01*
G75*
G02*
X79272000Y-108816000I0J-150000D01*
G01*
X79272000Y-109116000D01*
G75*
G02*
X79122000Y-109266000I-150000J0D01*
G01*
X77472000Y-109266000D01*
G75*
G02*
X77322000Y-109116000I0J150000D01*
G01*
G37*
%TD.AperFunction*%
%TO.P,U1,4*%
%TO.N,Net-(U1-Pad4)*%
%TA.AperFunction,SMDPad,CuDef*%
G36*
G01*
X77322000Y-107846000D02*
X77322000Y-107546000D01*
G75*
G02*
X77472000Y-107396000I150000J0D01*
G01*
X79122000Y-107396000D01*
G75*
G02*
X79272000Y-107546000I0J-150000D01*
G01*
X79272000Y-107846000D01*
G75*
G02*
X79122000Y-107996000I-150000J0D01*
G01*
X77472000Y-107996000D01*
G75*
G02*
X77322000Y-107846000I0J150000D01*
G01*
G37*
%TD.AperFunction*%
%TO.P,U1,3*%
%TO.N,Net-(TP3-Pad1)*%
%TA.AperFunction,SMDPad,CuDef*%
G36*
G01*
X77322000Y-106576000D02*
X77322000Y-106276000D01*
G75*
G02*
X77472000Y-106126000I150000J0D01*
G01*
X79122000Y-106126000D01*
G75*
G02*
X79272000Y-106276000I0J-150000D01*
G01*
X79272000Y-106576000D01*
G75*
G02*
X79122000Y-106726000I-150000J0D01*
G01*
X77472000Y-106726000D01*
G75*
G02*
X77322000Y-106576000I0J150000D01*
G01*
G37*
%TD.AperFunction*%
%TO.P,U1,2*%
%TA.AperFunction,SMDPad,CuDef*%
G36*
G01*
X77322000Y-105306000D02*
X77322000Y-105006000D01*
G75*
G02*
X77472000Y-104856000I150000J0D01*
G01*
X79122000Y-104856000D01*
G75*
G02*
X79272000Y-105006000I0J-150000D01*
G01*
X79272000Y-105306000D01*
G75*
G02*
X79122000Y-105456000I-150000J0D01*
G01*
X77472000Y-105456000D01*
G75*
G02*
X77322000Y-105306000I0J150000D01*
G01*
G37*
%TD.AperFunction*%
%TO.P,U1,1*%
%TO.N,Net-(TP2-Pad1)*%
%TA.AperFunction,SMDPad,CuDef*%
G36*
G01*
X77322000Y-104036000D02*
X77322000Y-103736000D01*
G75*
G02*
X77472000Y-103586000I150000J0D01*
G01*
X79122000Y-103586000D01*
G75*
G02*
X79272000Y-103736000I0J-150000D01*
G01*
X79272000Y-104036000D01*
G75*
G02*
X79122000Y-104186000I-150000J0D01*
G01*
X77472000Y-104186000D01*
G75*
G02*
X77322000Y-104036000I0J150000D01*
G01*
G37*
%TD.AperFunction*%
%TD*%
D10*
%TO.P,TP7,1*%
%TO.N,GND*%
X83312000Y-100584000D03*
%TD*%
%TO.P,TP6,1*%
%TO.N,+5V*%
X90424000Y-100584000D03*
%TD*%
%TO.P,TP5,1*%
%TO.N,GND*%
X104648000Y-100584000D03*
%TD*%
%TO.P,TP4,1*%
%TO.N,Net-(C6-Pad1)*%
X97536000Y-100584000D03*
%TD*%
%TO.P,TP3,1*%
%TO.N,Net-(TP3-Pad1)*%
X75000000Y-105156000D03*
%TD*%
%TO.P,TP2,1*%
%TO.N,Net-(TP2-Pad1)*%
X75000000Y-100584000D03*
%TD*%
%TO.P,TP1,1*%
%TO.N,Net-(C1-Pad1)*%
X108712000Y-103632000D03*
%TD*%
%TO.P,R1,2*%
%TO.N,Net-(C6-Pad1)*%
%TA.AperFunction,SMDPad,CuDef*%
G36*
G01*
X94405000Y-100821500D02*
X94405000Y-100346500D01*
G75*
G02*
X94642500Y-100109000I237500J0D01*
G01*
X95142500Y-100109000D01*
G75*
G02*
X95380000Y-100346500I0J-237500D01*
G01*
X95380000Y-100821500D01*
G75*
G02*
X95142500Y-101059000I-237500J0D01*
G01*
X94642500Y-101059000D01*
G75*
G02*
X94405000Y-100821500I0J237500D01*
G01*
G37*
%TD.AperFunction*%
%TO.P,R1,1*%
%TO.N,+5V*%
%TA.AperFunction,SMDPad,CuDef*%
G36*
G01*
X92580000Y-100821500D02*
X92580000Y-100346500D01*
G75*
G02*
X92817500Y-100109000I237500J0D01*
G01*
X93317500Y-100109000D01*
G75*
G02*
X93555000Y-100346500I0J-237500D01*
G01*
X93555000Y-100821500D01*
G75*
G02*
X93317500Y-101059000I-237500J0D01*
G01*
X92817500Y-101059000D01*
G75*
G02*
X92580000Y-100821500I0J237500D01*
G01*
G37*
%TD.AperFunction*%
%TD*%
%TO.P,C4,2*%
%TO.N,GND*%
%TA.AperFunction,SMDPad,CuDef*%
G36*
G01*
X105934500Y-104719000D02*
X106409500Y-104719000D01*
G75*
G02*
X106647000Y-104956500I0J-237500D01*
G01*
X106647000Y-105556500D01*
G75*
G02*
X106409500Y-105794000I-237500J0D01*
G01*
X105934500Y-105794000D01*
G75*
G02*
X105697000Y-105556500I0J237500D01*
G01*
X105697000Y-104956500D01*
G75*
G02*
X105934500Y-104719000I237500J0D01*
G01*
G37*
%TD.AperFunction*%
%TO.P,C4,1*%
%TO.N,+5V*%
%TA.AperFunction,SMDPad,CuDef*%
G36*
G01*
X105934500Y-102994000D02*
X106409500Y-102994000D01*
G75*
G02*
X106647000Y-103231500I0J-237500D01*
G01*
X106647000Y-103831500D01*
G75*
G02*
X106409500Y-104069000I-237500J0D01*
G01*
X105934500Y-104069000D01*
G75*
G02*
X105697000Y-103831500I0J237500D01*
G01*
X105697000Y-103231500D01*
G75*
G02*
X105934500Y-102994000I237500J0D01*
G01*
G37*
%TD.AperFunction*%
%TD*%
%TO.P,C3,2*%
%TO.N,GND*%
%TA.AperFunction,SMDPad,CuDef*%
G36*
G01*
X85614500Y-104973000D02*
X86089500Y-104973000D01*
G75*
G02*
X86327000Y-105210500I0J-237500D01*
G01*
X86327000Y-105810500D01*
G75*
G02*
X86089500Y-106048000I-237500J0D01*
G01*
X85614500Y-106048000D01*
G75*
G02*
X85377000Y-105810500I0J237500D01*
G01*
X85377000Y-105210500D01*
G75*
G02*
X85614500Y-104973000I237500J0D01*
G01*
G37*
%TD.AperFunction*%
%TO.P,C3,1*%
%TO.N,+5V*%
%TA.AperFunction,SMDPad,CuDef*%
G36*
G01*
X85614500Y-103248000D02*
X86089500Y-103248000D01*
G75*
G02*
X86327000Y-103485500I0J-237500D01*
G01*
X86327000Y-104085500D01*
G75*
G02*
X86089500Y-104323000I-237500J0D01*
G01*
X85614500Y-104323000D01*
G75*
G02*
X85377000Y-104085500I0J237500D01*
G01*
X85377000Y-103485500D01*
G75*
G02*
X85614500Y-103248000I237500J0D01*
G01*
G37*
%TD.AperFunction*%
%TD*%
%TO.P,C2,2*%
%TO.N,GND*%
%TA.AperFunction,SMDPad,CuDef*%
G36*
G01*
X86543000Y-100346500D02*
X86543000Y-100821500D01*
G75*
G02*
X86305500Y-101059000I-237500J0D01*
G01*
X85705500Y-101059000D01*
G75*
G02*
X85468000Y-100821500I0J237500D01*
G01*
X85468000Y-100346500D01*
G75*
G02*
X85705500Y-100109000I237500J0D01*
G01*
X86305500Y-100109000D01*
G75*
G02*
X86543000Y-100346500I0J-237500D01*
G01*
G37*
%TD.AperFunction*%
%TO.P,C2,1*%
%TO.N,+5V*%
%TA.AperFunction,SMDPad,CuDef*%
G36*
G01*
X88268000Y-100346500D02*
X88268000Y-100821500D01*
G75*
G02*
X88030500Y-101059000I-237500J0D01*
G01*
X87430500Y-101059000D01*
G75*
G02*
X87193000Y-100821500I0J237500D01*
G01*
X87193000Y-100346500D01*
G75*
G02*
X87430500Y-100109000I237500J0D01*
G01*
X88030500Y-100109000D01*
G75*
G02*
X88268000Y-100346500I0J-237500D01*
G01*
G37*
%TD.AperFunction*%
%TD*%
%TO.P,C1,2*%
%TO.N,GND*%
%TA.AperFunction,SMDPad,CuDef*%
G36*
G01*
X108220500Y-111831000D02*
X108695500Y-111831000D01*
G75*
G02*
X108933000Y-112068500I0J-237500D01*
G01*
X108933000Y-112668500D01*
G75*
G02*
X108695500Y-112906000I-237500J0D01*
G01*
X108220500Y-112906000D01*
G75*
G02*
X107983000Y-112668500I0J237500D01*
G01*
X107983000Y-112068500D01*
G75*
G02*
X108220500Y-111831000I237500J0D01*
G01*
G37*
%TD.AperFunction*%
%TO.P,C1,1*%
%TO.N,Net-(C1-Pad1)*%
%TA.AperFunction,SMDPad,CuDef*%
G36*
G01*
X108220500Y-110106000D02*
X108695500Y-110106000D01*
G75*
G02*
X108933000Y-110343500I0J-237500D01*
G01*
X108933000Y-110943500D01*
G75*
G02*
X108695500Y-111181000I-237500J0D01*
G01*
X108220500Y-111181000D01*
G75*
G02*
X107983000Y-110943500I0J237500D01*
G01*
X107983000Y-110343500D01*
G75*
G02*
X108220500Y-110106000I237500J0D01*
G01*
G37*
%TD.AperFunction*%
%TD*%
D11*
%TO.N,GND*%
X109630000Y-109784000D03*
X101250000Y-109334000D03*
X101280000Y-106334000D03*
X99280000Y-102334000D03*
X88280000Y-102334000D03*
X91530000Y-105834000D03*
X90780000Y-109834000D03*
X76780000Y-102584000D03*
X80280000Y-107334000D03*
X73780000Y-107084000D03*
X74030000Y-98584000D03*
X92600000Y-98584000D03*
X109280000Y-98584000D03*
X97000000Y-112600000D03*
X86800000Y-111500000D03*
X76700000Y-111500000D03*
X85900000Y-106700000D03*
X84900000Y-110200000D03*
X105200000Y-111400000D03*
X96011993Y-106726277D03*
X107287345Y-105312665D03*
X103000000Y-101700000D03*
X81300000Y-98600024D03*
X85100006Y-101900000D03*
%TD*%
D12*
%TO.N,GND*%
X97391000Y-110109000D02*
X98617000Y-110109000D01*
X97391000Y-110109000D02*
X97000000Y-109718000D01*
X97000000Y-109718000D02*
X97000000Y-109100000D01*
X97261000Y-108839000D02*
X98617000Y-108839000D01*
X97000000Y-109100000D02*
X97261000Y-108839000D01*
X97049000Y-112649000D02*
X97000000Y-112600000D01*
X98617000Y-112649000D02*
X97049000Y-112649000D01*
X97000000Y-110500000D02*
X97000000Y-112600000D01*
X97391000Y-110109000D02*
X97000000Y-110500000D01*
X86806000Y-111506000D02*
X86800000Y-111500000D01*
X88457000Y-111506000D02*
X86806000Y-111506000D01*
X76706000Y-111506000D02*
X76700000Y-111500000D01*
X78297000Y-111506000D02*
X76706000Y-111506000D01*
X76700000Y-109300000D02*
X76700000Y-111500000D01*
X77034000Y-108966000D02*
X76700000Y-109300000D01*
X78297000Y-108966000D02*
X77034000Y-108966000D01*
X83247000Y-105156000D02*
X84356000Y-105156000D01*
X84710500Y-105510500D02*
X85852000Y-105510500D01*
X84356000Y-105156000D02*
X84710500Y-105510500D01*
X85852000Y-106652000D02*
X85900000Y-106700000D01*
X85852000Y-105510500D02*
X85852000Y-106652000D01*
X84864000Y-110236000D02*
X84900000Y-110200000D01*
X83247000Y-110236000D02*
X84864000Y-110236000D01*
X83247000Y-107696000D02*
X84496000Y-107696000D01*
X84900000Y-108100000D02*
X84900000Y-110200000D01*
X84496000Y-107696000D02*
X84900000Y-108100000D01*
X105179000Y-111379000D02*
X105200000Y-111400000D01*
X103567000Y-111379000D02*
X105179000Y-111379000D01*
X103567000Y-110109000D02*
X104909000Y-110109000D01*
X105200000Y-110400000D02*
X105200000Y-111400000D01*
X104909000Y-110109000D02*
X105200000Y-110400000D01*
X96012000Y-105510500D02*
X96012000Y-106726270D01*
X96012000Y-106726270D02*
X96011993Y-106726277D01*
X105000000Y-106300000D02*
X104999000Y-106299000D01*
X105000000Y-107300000D02*
X105000000Y-106300000D01*
X104731000Y-107569000D02*
X105000000Y-107300000D01*
X103567000Y-107569000D02*
X104731000Y-107569000D01*
X103567000Y-106299000D02*
X104999000Y-106299000D01*
X104729000Y-105029000D02*
X105000000Y-105300000D01*
X103567000Y-105029000D02*
X104729000Y-105029000D01*
X105000000Y-106300000D02*
X105000000Y-105300000D01*
X105000000Y-105300000D02*
X105000000Y-105400000D01*
X105000000Y-105300000D02*
X107274680Y-105300000D01*
X107274680Y-105300000D02*
X107287345Y-105312665D01*
X106730000Y-112368500D02*
X106680000Y-112418500D01*
X108458000Y-112368500D02*
X106730000Y-112368500D01*
X106680000Y-112418500D02*
X105718500Y-112418500D01*
X105200000Y-111900000D02*
X105200000Y-111400000D01*
X105718500Y-112418500D02*
X105200000Y-111900000D01*
X103532000Y-101700000D02*
X103000000Y-101700000D01*
X104648000Y-100584000D02*
X103532000Y-101700000D01*
X101954500Y-101700000D02*
X101954500Y-100584000D01*
X103532000Y-101700000D02*
X101954500Y-101700000D01*
X83312000Y-100584000D02*
X84328000Y-101600000D01*
X81328024Y-98600024D02*
X81300000Y-98600024D01*
X84328000Y-101600000D02*
X84800000Y-101600000D01*
X84800000Y-101600000D02*
X85100000Y-101900000D01*
X85100000Y-101900000D02*
X85100006Y-101900000D01*
X84628000Y-101900000D02*
X84328000Y-101600000D01*
X86005500Y-101900000D02*
X84628000Y-101900000D01*
X86005500Y-100584000D02*
X86005500Y-101900000D01*
%TO.N,Net-(C1-Pad1)*%
X108408000Y-110593500D02*
X108458000Y-110643500D01*
X106680000Y-110593500D02*
X108408000Y-110593500D01*
X108458000Y-110643500D02*
X108458000Y-108862500D01*
X108712000Y-104812000D02*
X108712000Y-103632000D01*
X109500000Y-105600000D02*
X108712000Y-104812000D01*
X109500000Y-108600000D02*
X109500000Y-105600000D01*
X109237500Y-108862500D02*
X109500000Y-108600000D01*
X108458000Y-108862500D02*
X109237500Y-108862500D01*
X106680000Y-108862500D02*
X106680000Y-110593500D01*
%TO.N,+5V*%
X87730500Y-100584000D02*
X90424000Y-100584000D01*
X93067500Y-100584000D02*
X90424000Y-100584000D01*
X85751500Y-103886000D02*
X85852000Y-103785500D01*
X83247000Y-103886000D02*
X85751500Y-103886000D01*
X85952500Y-103886000D02*
X85852000Y-103785500D01*
X95907500Y-103890000D02*
X96012000Y-103785500D01*
X94910000Y-103890000D02*
X95907500Y-103890000D01*
X94900000Y-103900000D02*
X94910000Y-103890000D01*
X94890000Y-103890000D02*
X94900000Y-103900000D01*
X93411000Y-103890000D02*
X94890000Y-103890000D01*
X93407000Y-103886000D02*
X93411000Y-103890000D01*
X87730500Y-100584000D02*
X87730500Y-101269500D01*
X85852000Y-103148000D02*
X85852000Y-103785500D01*
X87730500Y-101269500D02*
X85852000Y-103148000D01*
X86894000Y-103886000D02*
X85952500Y-103886000D01*
X88457000Y-103886000D02*
X86894000Y-103886000D01*
X94900000Y-105156000D02*
X94900000Y-103900000D01*
X93407000Y-105156000D02*
X94900000Y-105156000D01*
X94900000Y-105400000D02*
X94900000Y-103900000D01*
X95200000Y-108400000D02*
X95200000Y-105700000D01*
X95200000Y-105700000D02*
X94900000Y-105400000D01*
X94634000Y-108966000D02*
X95200000Y-108400000D01*
X93407000Y-108966000D02*
X94634000Y-108966000D01*
X89986000Y-103886000D02*
X88457000Y-103886000D01*
X90500000Y-104400000D02*
X89986000Y-103886000D01*
X90500000Y-107200000D02*
X90500000Y-104400000D01*
X90004000Y-107696000D02*
X90500000Y-107200000D01*
X88457000Y-107696000D02*
X90004000Y-107696000D01*
X103567000Y-103759000D02*
X105141000Y-103759000D01*
X105368500Y-103531500D02*
X106172000Y-103531500D01*
X105141000Y-103759000D02*
X105368500Y-103531500D01*
X108458000Y-107037500D02*
X108458000Y-105458000D01*
X108458000Y-105458000D02*
X107100000Y-104100000D01*
X107100000Y-104100000D02*
X107100000Y-103800000D01*
X106831500Y-103531500D02*
X106172000Y-103531500D01*
X107100000Y-103800000D02*
X106831500Y-103531500D01*
X93067500Y-99752500D02*
X93067500Y-100584000D01*
X106750000Y-98800000D02*
X94020000Y-98800000D01*
X107580000Y-99630000D02*
X106750000Y-98800000D01*
X107580000Y-101340000D02*
X107580000Y-99630000D01*
X106172000Y-102748000D02*
X107580000Y-101340000D01*
X94020000Y-98800000D02*
X93067500Y-99752500D01*
X106172000Y-103785500D02*
X106172000Y-102748000D01*
X106145500Y-103759000D02*
X106172000Y-103785500D01*
X96012000Y-102312000D02*
X96012000Y-103785500D01*
X95500000Y-101800000D02*
X96012000Y-102312000D01*
X93500000Y-101800000D02*
X95500000Y-101800000D01*
X93067500Y-101367500D02*
X93500000Y-101800000D01*
X93067500Y-100584000D02*
X93067500Y-101367500D01*
%TO.N,Net-(TP2-Pad1)*%
X78297000Y-103886000D02*
X76454000Y-103886000D01*
X75000000Y-102432000D02*
X75000000Y-100584000D01*
X76454000Y-103886000D02*
X75000000Y-102432000D01*
%TO.N,Net-(TP3-Pad1)*%
X78297000Y-106426000D02*
X77126000Y-106426000D01*
X76744000Y-106044000D02*
X76744000Y-105156000D01*
X77126000Y-106426000D02*
X76744000Y-106044000D01*
X76744000Y-105156000D02*
X78297000Y-105156000D01*
X75000000Y-105156000D02*
X76744000Y-105156000D01*
X78297000Y-105156000D02*
X79781000Y-105156000D01*
X79781000Y-105156000D02*
X81685000Y-107060000D01*
X81685000Y-107060000D02*
X84660000Y-107060000D01*
X84660000Y-107060000D02*
X85040000Y-107440000D01*
X86310000Y-107440000D02*
X87324000Y-106426000D01*
X85040000Y-107440000D02*
X86310000Y-107440000D01*
X87324000Y-106426000D02*
X88457000Y-106426000D01*
%TO.N,Net-(U1-Pad4)*%
X99592000Y-105029000D02*
X98617000Y-105029000D01*
X100200000Y-106500000D02*
X100200000Y-105637000D01*
X99775990Y-106924010D02*
X100200000Y-106500000D01*
X97525990Y-106924010D02*
X99775990Y-106924010D01*
X96400000Y-108050000D02*
X97525990Y-106924010D01*
X96400000Y-110900000D02*
X96400000Y-108050000D01*
X95000000Y-112300000D02*
X96400000Y-110900000D01*
X81400000Y-112300000D02*
X95000000Y-112300000D01*
X80600000Y-111500000D02*
X81400000Y-112300000D01*
X100200000Y-105637000D02*
X99592000Y-105029000D01*
X80600000Y-108900000D02*
X80600000Y-111500000D01*
X79396000Y-107696000D02*
X80600000Y-108900000D01*
X78297000Y-107696000D02*
X79396000Y-107696000D01*
%TO.N,Net-(U2-Pad12)*%
X91920000Y-111200000D02*
X91920000Y-108806232D01*
X91920000Y-108806232D02*
X92396232Y-108330000D01*
X92396232Y-108330000D02*
X94419769Y-108330000D01*
X92226000Y-111506000D02*
X91920000Y-111200000D01*
X94419769Y-108330000D02*
X94750000Y-107999769D01*
X93407000Y-111506000D02*
X92226000Y-111506000D01*
X94382000Y-106426000D02*
X93407000Y-106426000D01*
X94750000Y-107999769D02*
X94750000Y-106794000D01*
X94750000Y-106794000D02*
X94382000Y-106426000D01*
%TO.N,Net-(U2-Pad11)*%
X88457000Y-108966000D02*
X90334000Y-108966000D01*
X91604000Y-107696000D02*
X93407000Y-107696000D01*
X90334000Y-108966000D02*
X91604000Y-107696000D01*
%TO.N,Net-(U2-Pad9)*%
X97464589Y-106299000D02*
X98617000Y-106299000D01*
X95949989Y-109150011D02*
X95949989Y-107813600D01*
X94864000Y-110236000D02*
X95949989Y-109150011D01*
X95949989Y-107813600D02*
X97464589Y-106299000D01*
X93407000Y-110236000D02*
X94864000Y-110236000D01*
%TO.N,Net-(U2-Pad2)*%
X87236000Y-110236000D02*
X88457000Y-110236000D01*
X87000000Y-110000000D02*
X87236000Y-110236000D01*
X87000000Y-107500000D02*
X87000000Y-110000000D01*
X87448990Y-107051010D02*
X87000000Y-107500000D01*
X89548990Y-107051010D02*
X87448990Y-107051010D01*
X89900000Y-105500000D02*
X89900000Y-106700000D01*
X89900000Y-106700000D02*
X89548990Y-107051010D01*
X89556000Y-105156000D02*
X89900000Y-105500000D01*
X88457000Y-105156000D02*
X89556000Y-105156000D01*
%TO.N,Net-(C6-Pad1)*%
X94892500Y-100584000D02*
X97536000Y-100584000D01*
X100229500Y-100584000D02*
X97536000Y-100584000D01*
X97536000Y-100584000D02*
X97536000Y-102464000D01*
X97536000Y-102464000D02*
X97200000Y-102800000D01*
X97200000Y-102800000D02*
X97200000Y-103500000D01*
X97459000Y-103759000D02*
X98617000Y-103759000D01*
X97200000Y-103500000D02*
X97459000Y-103759000D01*
%TO.N,Net-(R3-Pad2)*%
X105100000Y-108200000D02*
X101900000Y-108200000D01*
X101269000Y-107569000D02*
X98617000Y-107569000D01*
X101900000Y-108200000D02*
X101269000Y-107569000D01*
X105100000Y-108200000D02*
X105600000Y-107700000D01*
X105600000Y-107700000D02*
X105600000Y-107300000D01*
X105862500Y-107037500D02*
X106680000Y-107037500D01*
X105600000Y-107300000D02*
X105862500Y-107037500D01*
%TD*%
D13*
%TO.N,GND*%
X109975000Y-112975000D02*
X109428623Y-112975000D01*
X109435419Y-112906000D01*
X109433000Y-112518500D01*
X109308000Y-112393500D01*
X108483000Y-112393500D01*
X108483000Y-112413500D01*
X108433000Y-112413500D01*
X108433000Y-112393500D01*
X108413000Y-112393500D01*
X108413000Y-112343500D01*
X108433000Y-112343500D01*
X108433000Y-112323500D01*
X108483000Y-112323500D01*
X108483000Y-112343500D01*
X109308000Y-112343500D01*
X109433000Y-112218500D01*
X109435419Y-111831000D01*
X109425765Y-111732983D01*
X109397175Y-111638733D01*
X109350746Y-111551871D01*
X109288264Y-111475736D01*
X109242267Y-111437988D01*
X109310720Y-111354577D01*
X109379096Y-111226655D01*
X109421202Y-111087851D01*
X109435419Y-110943500D01*
X109435419Y-110343500D01*
X109421202Y-110199149D01*
X109379096Y-110060345D01*
X109310720Y-109932423D01*
X109218702Y-109820298D01*
X109106577Y-109728280D01*
X109106053Y-109728000D01*
X109106577Y-109727720D01*
X109218702Y-109635702D01*
X109310720Y-109523577D01*
X109333438Y-109481075D01*
X109360021Y-109478457D01*
X109477834Y-109442719D01*
X109586411Y-109384683D01*
X109681580Y-109306580D01*
X109701158Y-109282724D01*
X109920225Y-109063657D01*
X109944080Y-109044080D01*
X109975000Y-109006403D01*
X109975000Y-112975000D01*
%TA.AperFunction,Conductor*%
D14*
G36*
X109975000Y-112975000D02*
G01*
X109428623Y-112975000D01*
X109435419Y-112906000D01*
X109433000Y-112518500D01*
X109308000Y-112393500D01*
X108483000Y-112393500D01*
X108483000Y-112413500D01*
X108433000Y-112413500D01*
X108433000Y-112393500D01*
X108413000Y-112393500D01*
X108413000Y-112343500D01*
X108433000Y-112343500D01*
X108433000Y-112323500D01*
X108483000Y-112323500D01*
X108483000Y-112343500D01*
X109308000Y-112343500D01*
X109433000Y-112218500D01*
X109435419Y-111831000D01*
X109425765Y-111732983D01*
X109397175Y-111638733D01*
X109350746Y-111551871D01*
X109288264Y-111475736D01*
X109242267Y-111437988D01*
X109310720Y-111354577D01*
X109379096Y-111226655D01*
X109421202Y-111087851D01*
X109435419Y-110943500D01*
X109435419Y-110343500D01*
X109421202Y-110199149D01*
X109379096Y-110060345D01*
X109310720Y-109932423D01*
X109218702Y-109820298D01*
X109106577Y-109728280D01*
X109106053Y-109728000D01*
X109106577Y-109727720D01*
X109218702Y-109635702D01*
X109310720Y-109523577D01*
X109333438Y-109481075D01*
X109360021Y-109478457D01*
X109477834Y-109442719D01*
X109586411Y-109384683D01*
X109681580Y-109306580D01*
X109701158Y-109282724D01*
X109920225Y-109063657D01*
X109944080Y-109044080D01*
X109975000Y-109006403D01*
X109975000Y-112975000D01*
G37*
%TD.AperFunction*%
D13*
X73557644Y-105593534D02*
X73670717Y-105866517D01*
X73834874Y-106112194D01*
X74043806Y-106321126D01*
X74289483Y-106485283D01*
X74562466Y-106598356D01*
X74852263Y-106656000D01*
X75147737Y-106656000D01*
X75437534Y-106598356D01*
X75710517Y-106485283D01*
X75956194Y-106321126D01*
X76126497Y-106150823D01*
X76128043Y-106166520D01*
X76163781Y-106284333D01*
X76221817Y-106392910D01*
X76299920Y-106488080D01*
X76323776Y-106507658D01*
X76662346Y-106846229D01*
X76681920Y-106870080D01*
X76705770Y-106889653D01*
X76777088Y-106948183D01*
X76835124Y-106979204D01*
X76885666Y-107006219D01*
X77003479Y-107041957D01*
X77018058Y-107043393D01*
X77039512Y-107061000D01*
X77010670Y-107084670D01*
X76929533Y-107183535D01*
X76869243Y-107296330D01*
X76832117Y-107418719D01*
X76819581Y-107546000D01*
X76819581Y-107846000D01*
X76832117Y-107973281D01*
X76869243Y-108095670D01*
X76929533Y-108208465D01*
X76994659Y-108287820D01*
X76966736Y-108310736D01*
X76904254Y-108386871D01*
X76857825Y-108473733D01*
X76829235Y-108567983D01*
X76819581Y-108666000D01*
X76822000Y-108816000D01*
X76947000Y-108941000D01*
X78272000Y-108941000D01*
X78272000Y-108921000D01*
X78322000Y-108921000D01*
X78322000Y-108941000D01*
X79647000Y-108941000D01*
X79702059Y-108885941D01*
X79975000Y-109158883D01*
X79975001Y-111469296D01*
X79971977Y-111500000D01*
X79975001Y-111530704D01*
X79984044Y-111622521D01*
X80019782Y-111740334D01*
X80077818Y-111848911D01*
X80155921Y-111944080D01*
X80179772Y-111963654D01*
X80936346Y-112720229D01*
X80955920Y-112744080D01*
X81051089Y-112822183D01*
X81159666Y-112880219D01*
X81277479Y-112915957D01*
X81369296Y-112925000D01*
X81369298Y-112925000D01*
X81400000Y-112928024D01*
X81430701Y-112925000D01*
X94969306Y-112925000D01*
X95000000Y-112928023D01*
X95030694Y-112925000D01*
X95030704Y-112925000D01*
X95122521Y-112915957D01*
X95240334Y-112880219D01*
X95348911Y-112822183D01*
X95444080Y-112744080D01*
X95463658Y-112720224D01*
X96820230Y-111363653D01*
X96844080Y-111344080D01*
X96922183Y-111248911D01*
X96980219Y-111140334D01*
X97015957Y-111022521D01*
X97025000Y-110930704D01*
X97025000Y-110930694D01*
X97028023Y-110900000D01*
X97025000Y-110869306D01*
X97025000Y-110409000D01*
X97139581Y-110409000D01*
X97149235Y-110507017D01*
X97177825Y-110601267D01*
X97224254Y-110688129D01*
X97286736Y-110764264D01*
X97314659Y-110787180D01*
X97249533Y-110866535D01*
X97189243Y-110979330D01*
X97152117Y-111101719D01*
X97139581Y-111229000D01*
X97139581Y-111529000D01*
X97152117Y-111656281D01*
X97189243Y-111778670D01*
X97249533Y-111891465D01*
X97314659Y-111970820D01*
X97286736Y-111993736D01*
X97224254Y-112069871D01*
X97177825Y-112156733D01*
X97149235Y-112250983D01*
X97139581Y-112349000D01*
X97142000Y-112499000D01*
X97267000Y-112624000D01*
X98592000Y-112624000D01*
X98592000Y-112604000D01*
X98642000Y-112604000D01*
X98642000Y-112624000D01*
X99967000Y-112624000D01*
X100092000Y-112499000D01*
X100094419Y-112349000D01*
X100084765Y-112250983D01*
X100056175Y-112156733D01*
X100009746Y-112069871D01*
X99947264Y-111993736D01*
X99919341Y-111970820D01*
X99984467Y-111891465D01*
X100044757Y-111778670D01*
X100081883Y-111656281D01*
X100094419Y-111529000D01*
X100094419Y-111229000D01*
X100081883Y-111101719D01*
X100044757Y-110979330D01*
X99984467Y-110866535D01*
X99919341Y-110787180D01*
X99947264Y-110764264D01*
X100009746Y-110688129D01*
X100056175Y-110601267D01*
X100084765Y-110507017D01*
X100094419Y-110409000D01*
X102089581Y-110409000D01*
X102099235Y-110507017D01*
X102127825Y-110601267D01*
X102174254Y-110688129D01*
X102220106Y-110744000D01*
X102174254Y-110799871D01*
X102127825Y-110886733D01*
X102099235Y-110980983D01*
X102089581Y-111079000D01*
X102092000Y-111229000D01*
X102217000Y-111354000D01*
X103542000Y-111354000D01*
X103542000Y-110134000D01*
X103592000Y-110134000D01*
X103592000Y-111354000D01*
X104917000Y-111354000D01*
X105042000Y-111229000D01*
X105044419Y-111079000D01*
X105034765Y-110980983D01*
X105006175Y-110886733D01*
X104959746Y-110799871D01*
X104913894Y-110744000D01*
X104959746Y-110688129D01*
X105006175Y-110601267D01*
X105034765Y-110507017D01*
X105044419Y-110409000D01*
X105042000Y-110259000D01*
X104917000Y-110134000D01*
X103592000Y-110134000D01*
X103542000Y-110134000D01*
X102217000Y-110134000D01*
X102092000Y-110259000D01*
X102089581Y-110409000D01*
X100094419Y-110409000D01*
X100092000Y-110259000D01*
X99967000Y-110134000D01*
X98642000Y-110134000D01*
X98642000Y-110154000D01*
X98592000Y-110154000D01*
X98592000Y-110134000D01*
X97267000Y-110134000D01*
X97142000Y-110259000D01*
X97139581Y-110409000D01*
X97025000Y-110409000D01*
X97025000Y-109139000D01*
X97139581Y-109139000D01*
X97149235Y-109237017D01*
X97177825Y-109331267D01*
X97224254Y-109418129D01*
X97270106Y-109474000D01*
X97224254Y-109529871D01*
X97177825Y-109616733D01*
X97149235Y-109710983D01*
X97139581Y-109809000D01*
X97142000Y-109959000D01*
X97267000Y-110084000D01*
X98592000Y-110084000D01*
X98592000Y-108864000D01*
X98642000Y-108864000D01*
X98642000Y-110084000D01*
X99967000Y-110084000D01*
X100092000Y-109959000D01*
X100094419Y-109809000D01*
X100084765Y-109710983D01*
X100056175Y-109616733D01*
X100009746Y-109529871D01*
X99963894Y-109474000D01*
X100009746Y-109418129D01*
X100056175Y-109331267D01*
X100084765Y-109237017D01*
X100094419Y-109139000D01*
X100092000Y-108989000D01*
X99967000Y-108864000D01*
X98642000Y-108864000D01*
X98592000Y-108864000D01*
X97267000Y-108864000D01*
X97142000Y-108989000D01*
X97139581Y-109139000D01*
X97025000Y-109139000D01*
X97025000Y-108308882D01*
X97250833Y-108083049D01*
X97314659Y-108160820D01*
X97286736Y-108183736D01*
X97224254Y-108259871D01*
X97177825Y-108346733D01*
X97149235Y-108440983D01*
X97139581Y-108539000D01*
X97142000Y-108689000D01*
X97267000Y-108814000D01*
X98592000Y-108814000D01*
X98592000Y-108794000D01*
X98642000Y-108794000D01*
X98642000Y-108814000D01*
X99967000Y-108814000D01*
X100092000Y-108689000D01*
X100094419Y-108539000D01*
X100084765Y-108440983D01*
X100056175Y-108346733D01*
X100009746Y-108259871D01*
X99955687Y-108194000D01*
X101010118Y-108194000D01*
X101436346Y-108620229D01*
X101455920Y-108644080D01*
X101551089Y-108722183D01*
X101659666Y-108780219D01*
X101777479Y-108815957D01*
X101869296Y-108825000D01*
X101869298Y-108825000D01*
X101900000Y-108828024D01*
X101930701Y-108825000D01*
X102089581Y-108825000D01*
X102089581Y-108989000D01*
X102102117Y-109116281D01*
X102139243Y-109238670D01*
X102199533Y-109351465D01*
X102264659Y-109430820D01*
X102236736Y-109453736D01*
X102174254Y-109529871D01*
X102127825Y-109616733D01*
X102099235Y-109710983D01*
X102089581Y-109809000D01*
X102092000Y-109959000D01*
X102217000Y-110084000D01*
X103542000Y-110084000D01*
X103542000Y-110064000D01*
X103592000Y-110064000D01*
X103592000Y-110084000D01*
X104917000Y-110084000D01*
X105042000Y-109959000D01*
X105044419Y-109809000D01*
X105034765Y-109710983D01*
X105006175Y-109616733D01*
X104959746Y-109529871D01*
X104897264Y-109453736D01*
X104869341Y-109430820D01*
X104934467Y-109351465D01*
X104994757Y-109238670D01*
X105031883Y-109116281D01*
X105044419Y-108989000D01*
X105044419Y-108825000D01*
X105069306Y-108825000D01*
X105100000Y-108828023D01*
X105130694Y-108825000D01*
X105130704Y-108825000D01*
X105222521Y-108815957D01*
X105340334Y-108780219D01*
X105448911Y-108722183D01*
X105544080Y-108644080D01*
X105563658Y-108620224D01*
X105717262Y-108466621D01*
X105716798Y-108468149D01*
X105702581Y-108612500D01*
X105702581Y-109112500D01*
X105716798Y-109256851D01*
X105758904Y-109395655D01*
X105827280Y-109523577D01*
X105919298Y-109635702D01*
X106031423Y-109727720D01*
X106031947Y-109728000D01*
X106031423Y-109728280D01*
X105919298Y-109820298D01*
X105827280Y-109932423D01*
X105758904Y-110060345D01*
X105716798Y-110199149D01*
X105702581Y-110343500D01*
X105702581Y-110843500D01*
X105716798Y-110987851D01*
X105758904Y-111126655D01*
X105827280Y-111254577D01*
X105919298Y-111366702D01*
X106031423Y-111458720D01*
X106034330Y-111460274D01*
X106012733Y-111466825D01*
X105925871Y-111513254D01*
X105849736Y-111575736D01*
X105787254Y-111651871D01*
X105740825Y-111738733D01*
X105712235Y-111832983D01*
X105702581Y-111931000D01*
X105705000Y-112268500D01*
X105830000Y-112393500D01*
X106655000Y-112393500D01*
X106655000Y-112373500D01*
X106705000Y-112373500D01*
X106705000Y-112393500D01*
X106725000Y-112393500D01*
X106725000Y-112443500D01*
X106705000Y-112443500D01*
X106705000Y-112463500D01*
X106655000Y-112463500D01*
X106655000Y-112443500D01*
X105830000Y-112443500D01*
X105705000Y-112568500D01*
X105702581Y-112906000D01*
X105709377Y-112975000D01*
X105017104Y-112975000D01*
X105031883Y-112926281D01*
X105044419Y-112799000D01*
X105044419Y-112499000D01*
X105031883Y-112371719D01*
X104994757Y-112249330D01*
X104934467Y-112136535D01*
X104869341Y-112057180D01*
X104897264Y-112034264D01*
X104959746Y-111958129D01*
X105006175Y-111871267D01*
X105034765Y-111777017D01*
X105044419Y-111679000D01*
X105042000Y-111529000D01*
X104917000Y-111404000D01*
X103592000Y-111404000D01*
X103592000Y-111424000D01*
X103542000Y-111424000D01*
X103542000Y-111404000D01*
X102217000Y-111404000D01*
X102092000Y-111529000D01*
X102089581Y-111679000D01*
X102099235Y-111777017D01*
X102127825Y-111871267D01*
X102174254Y-111958129D01*
X102236736Y-112034264D01*
X102264659Y-112057180D01*
X102199533Y-112136535D01*
X102139243Y-112249330D01*
X102102117Y-112371719D01*
X102089581Y-112499000D01*
X102089581Y-112799000D01*
X102102117Y-112926281D01*
X102116896Y-112975000D01*
X100091858Y-112975000D01*
X100094419Y-112949000D01*
X100092000Y-112799000D01*
X99967000Y-112674000D01*
X98642000Y-112674000D01*
X98642000Y-112694000D01*
X98592000Y-112694000D01*
X98592000Y-112674000D01*
X97267000Y-112674000D01*
X97142000Y-112799000D01*
X97139581Y-112949000D01*
X97142142Y-112975000D01*
X73525000Y-112975000D01*
X73525000Y-111806000D01*
X76819581Y-111806000D01*
X76829235Y-111904017D01*
X76857825Y-111998267D01*
X76904254Y-112085129D01*
X76966736Y-112161264D01*
X77042871Y-112223746D01*
X77129733Y-112270175D01*
X77223983Y-112298765D01*
X77322000Y-112308419D01*
X78147000Y-112306000D01*
X78272000Y-112181000D01*
X78272000Y-111531000D01*
X78322000Y-111531000D01*
X78322000Y-112181000D01*
X78447000Y-112306000D01*
X79272000Y-112308419D01*
X79370017Y-112298765D01*
X79464267Y-112270175D01*
X79551129Y-112223746D01*
X79627264Y-112161264D01*
X79689746Y-112085129D01*
X79736175Y-111998267D01*
X79764765Y-111904017D01*
X79774419Y-111806000D01*
X79772000Y-111656000D01*
X79647000Y-111531000D01*
X78322000Y-111531000D01*
X78272000Y-111531000D01*
X76947000Y-111531000D01*
X76822000Y-111656000D01*
X76819581Y-111806000D01*
X73525000Y-111806000D01*
X73525000Y-109266000D01*
X76819581Y-109266000D01*
X76829235Y-109364017D01*
X76857825Y-109458267D01*
X76904254Y-109545129D01*
X76966736Y-109621264D01*
X76994659Y-109644180D01*
X76929533Y-109723535D01*
X76869243Y-109836330D01*
X76832117Y-109958719D01*
X76819581Y-110086000D01*
X76819581Y-110386000D01*
X76832117Y-110513281D01*
X76869243Y-110635670D01*
X76929533Y-110748465D01*
X76994659Y-110827820D01*
X76966736Y-110850736D01*
X76904254Y-110926871D01*
X76857825Y-111013733D01*
X76829235Y-111107983D01*
X76819581Y-111206000D01*
X76822000Y-111356000D01*
X76947000Y-111481000D01*
X78272000Y-111481000D01*
X78272000Y-111461000D01*
X78322000Y-111461000D01*
X78322000Y-111481000D01*
X79647000Y-111481000D01*
X79772000Y-111356000D01*
X79774419Y-111206000D01*
X79764765Y-111107983D01*
X79736175Y-111013733D01*
X79689746Y-110926871D01*
X79627264Y-110850736D01*
X79599341Y-110827820D01*
X79664467Y-110748465D01*
X79724757Y-110635670D01*
X79761883Y-110513281D01*
X79774419Y-110386000D01*
X79774419Y-110086000D01*
X79761883Y-109958719D01*
X79724757Y-109836330D01*
X79664467Y-109723535D01*
X79599341Y-109644180D01*
X79627264Y-109621264D01*
X79689746Y-109545129D01*
X79736175Y-109458267D01*
X79764765Y-109364017D01*
X79774419Y-109266000D01*
X79772000Y-109116000D01*
X79647000Y-108991000D01*
X78322000Y-108991000D01*
X78322000Y-109011000D01*
X78272000Y-109011000D01*
X78272000Y-108991000D01*
X76947000Y-108991000D01*
X76822000Y-109116000D01*
X76819581Y-109266000D01*
X73525000Y-109266000D01*
X73525000Y-105429421D01*
X73557644Y-105593534D01*
%TA.AperFunction,Conductor*%
D14*
G36*
X73557644Y-105593534D02*
G01*
X73670717Y-105866517D01*
X73834874Y-106112194D01*
X74043806Y-106321126D01*
X74289483Y-106485283D01*
X74562466Y-106598356D01*
X74852263Y-106656000D01*
X75147737Y-106656000D01*
X75437534Y-106598356D01*
X75710517Y-106485283D01*
X75956194Y-106321126D01*
X76126497Y-106150823D01*
X76128043Y-106166520D01*
X76163781Y-106284333D01*
X76221817Y-106392910D01*
X76299920Y-106488080D01*
X76323776Y-106507658D01*
X76662346Y-106846229D01*
X76681920Y-106870080D01*
X76705770Y-106889653D01*
X76777088Y-106948183D01*
X76835124Y-106979204D01*
X76885666Y-107006219D01*
X77003479Y-107041957D01*
X77018058Y-107043393D01*
X77039512Y-107061000D01*
X77010670Y-107084670D01*
X76929533Y-107183535D01*
X76869243Y-107296330D01*
X76832117Y-107418719D01*
X76819581Y-107546000D01*
X76819581Y-107846000D01*
X76832117Y-107973281D01*
X76869243Y-108095670D01*
X76929533Y-108208465D01*
X76994659Y-108287820D01*
X76966736Y-108310736D01*
X76904254Y-108386871D01*
X76857825Y-108473733D01*
X76829235Y-108567983D01*
X76819581Y-108666000D01*
X76822000Y-108816000D01*
X76947000Y-108941000D01*
X78272000Y-108941000D01*
X78272000Y-108921000D01*
X78322000Y-108921000D01*
X78322000Y-108941000D01*
X79647000Y-108941000D01*
X79702059Y-108885941D01*
X79975000Y-109158883D01*
X79975001Y-111469296D01*
X79971977Y-111500000D01*
X79975001Y-111530704D01*
X79984044Y-111622521D01*
X80019782Y-111740334D01*
X80077818Y-111848911D01*
X80155921Y-111944080D01*
X80179772Y-111963654D01*
X80936346Y-112720229D01*
X80955920Y-112744080D01*
X81051089Y-112822183D01*
X81159666Y-112880219D01*
X81277479Y-112915957D01*
X81369296Y-112925000D01*
X81369298Y-112925000D01*
X81400000Y-112928024D01*
X81430701Y-112925000D01*
X94969306Y-112925000D01*
X95000000Y-112928023D01*
X95030694Y-112925000D01*
X95030704Y-112925000D01*
X95122521Y-112915957D01*
X95240334Y-112880219D01*
X95348911Y-112822183D01*
X95444080Y-112744080D01*
X95463658Y-112720224D01*
X96820230Y-111363653D01*
X96844080Y-111344080D01*
X96922183Y-111248911D01*
X96980219Y-111140334D01*
X97015957Y-111022521D01*
X97025000Y-110930704D01*
X97025000Y-110930694D01*
X97028023Y-110900000D01*
X97025000Y-110869306D01*
X97025000Y-110409000D01*
X97139581Y-110409000D01*
X97149235Y-110507017D01*
X97177825Y-110601267D01*
X97224254Y-110688129D01*
X97286736Y-110764264D01*
X97314659Y-110787180D01*
X97249533Y-110866535D01*
X97189243Y-110979330D01*
X97152117Y-111101719D01*
X97139581Y-111229000D01*
X97139581Y-111529000D01*
X97152117Y-111656281D01*
X97189243Y-111778670D01*
X97249533Y-111891465D01*
X97314659Y-111970820D01*
X97286736Y-111993736D01*
X97224254Y-112069871D01*
X97177825Y-112156733D01*
X97149235Y-112250983D01*
X97139581Y-112349000D01*
X97142000Y-112499000D01*
X97267000Y-112624000D01*
X98592000Y-112624000D01*
X98592000Y-112604000D01*
X98642000Y-112604000D01*
X98642000Y-112624000D01*
X99967000Y-112624000D01*
X100092000Y-112499000D01*
X100094419Y-112349000D01*
X100084765Y-112250983D01*
X100056175Y-112156733D01*
X100009746Y-112069871D01*
X99947264Y-111993736D01*
X99919341Y-111970820D01*
X99984467Y-111891465D01*
X100044757Y-111778670D01*
X100081883Y-111656281D01*
X100094419Y-111529000D01*
X100094419Y-111229000D01*
X100081883Y-111101719D01*
X100044757Y-110979330D01*
X99984467Y-110866535D01*
X99919341Y-110787180D01*
X99947264Y-110764264D01*
X100009746Y-110688129D01*
X100056175Y-110601267D01*
X100084765Y-110507017D01*
X100094419Y-110409000D01*
X102089581Y-110409000D01*
X102099235Y-110507017D01*
X102127825Y-110601267D01*
X102174254Y-110688129D01*
X102220106Y-110744000D01*
X102174254Y-110799871D01*
X102127825Y-110886733D01*
X102099235Y-110980983D01*
X102089581Y-111079000D01*
X102092000Y-111229000D01*
X102217000Y-111354000D01*
X103542000Y-111354000D01*
X103542000Y-110134000D01*
X103592000Y-110134000D01*
X103592000Y-111354000D01*
X104917000Y-111354000D01*
X105042000Y-111229000D01*
X105044419Y-111079000D01*
X105034765Y-110980983D01*
X105006175Y-110886733D01*
X104959746Y-110799871D01*
X104913894Y-110744000D01*
X104959746Y-110688129D01*
X105006175Y-110601267D01*
X105034765Y-110507017D01*
X105044419Y-110409000D01*
X105042000Y-110259000D01*
X104917000Y-110134000D01*
X103592000Y-110134000D01*
X103542000Y-110134000D01*
X102217000Y-110134000D01*
X102092000Y-110259000D01*
X102089581Y-110409000D01*
X100094419Y-110409000D01*
X100092000Y-110259000D01*
X99967000Y-110134000D01*
X98642000Y-110134000D01*
X98642000Y-110154000D01*
X98592000Y-110154000D01*
X98592000Y-110134000D01*
X97267000Y-110134000D01*
X97142000Y-110259000D01*
X97139581Y-110409000D01*
X97025000Y-110409000D01*
X97025000Y-109139000D01*
X97139581Y-109139000D01*
X97149235Y-109237017D01*
X97177825Y-109331267D01*
X97224254Y-109418129D01*
X97270106Y-109474000D01*
X97224254Y-109529871D01*
X97177825Y-109616733D01*
X97149235Y-109710983D01*
X97139581Y-109809000D01*
X97142000Y-109959000D01*
X97267000Y-110084000D01*
X98592000Y-110084000D01*
X98592000Y-108864000D01*
X98642000Y-108864000D01*
X98642000Y-110084000D01*
X99967000Y-110084000D01*
X100092000Y-109959000D01*
X100094419Y-109809000D01*
X100084765Y-109710983D01*
X100056175Y-109616733D01*
X100009746Y-109529871D01*
X99963894Y-109474000D01*
X100009746Y-109418129D01*
X100056175Y-109331267D01*
X100084765Y-109237017D01*
X100094419Y-109139000D01*
X100092000Y-108989000D01*
X99967000Y-108864000D01*
X98642000Y-108864000D01*
X98592000Y-108864000D01*
X97267000Y-108864000D01*
X97142000Y-108989000D01*
X97139581Y-109139000D01*
X97025000Y-109139000D01*
X97025000Y-108308882D01*
X97250833Y-108083049D01*
X97314659Y-108160820D01*
X97286736Y-108183736D01*
X97224254Y-108259871D01*
X97177825Y-108346733D01*
X97149235Y-108440983D01*
X97139581Y-108539000D01*
X97142000Y-108689000D01*
X97267000Y-108814000D01*
X98592000Y-108814000D01*
X98592000Y-108794000D01*
X98642000Y-108794000D01*
X98642000Y-108814000D01*
X99967000Y-108814000D01*
X100092000Y-108689000D01*
X100094419Y-108539000D01*
X100084765Y-108440983D01*
X100056175Y-108346733D01*
X100009746Y-108259871D01*
X99955687Y-108194000D01*
X101010118Y-108194000D01*
X101436346Y-108620229D01*
X101455920Y-108644080D01*
X101551089Y-108722183D01*
X101659666Y-108780219D01*
X101777479Y-108815957D01*
X101869296Y-108825000D01*
X101869298Y-108825000D01*
X101900000Y-108828024D01*
X101930701Y-108825000D01*
X102089581Y-108825000D01*
X102089581Y-108989000D01*
X102102117Y-109116281D01*
X102139243Y-109238670D01*
X102199533Y-109351465D01*
X102264659Y-109430820D01*
X102236736Y-109453736D01*
X102174254Y-109529871D01*
X102127825Y-109616733D01*
X102099235Y-109710983D01*
X102089581Y-109809000D01*
X102092000Y-109959000D01*
X102217000Y-110084000D01*
X103542000Y-110084000D01*
X103542000Y-110064000D01*
X103592000Y-110064000D01*
X103592000Y-110084000D01*
X104917000Y-110084000D01*
X105042000Y-109959000D01*
X105044419Y-109809000D01*
X105034765Y-109710983D01*
X105006175Y-109616733D01*
X104959746Y-109529871D01*
X104897264Y-109453736D01*
X104869341Y-109430820D01*
X104934467Y-109351465D01*
X104994757Y-109238670D01*
X105031883Y-109116281D01*
X105044419Y-108989000D01*
X105044419Y-108825000D01*
X105069306Y-108825000D01*
X105100000Y-108828023D01*
X105130694Y-108825000D01*
X105130704Y-108825000D01*
X105222521Y-108815957D01*
X105340334Y-108780219D01*
X105448911Y-108722183D01*
X105544080Y-108644080D01*
X105563658Y-108620224D01*
X105717262Y-108466621D01*
X105716798Y-108468149D01*
X105702581Y-108612500D01*
X105702581Y-109112500D01*
X105716798Y-109256851D01*
X105758904Y-109395655D01*
X105827280Y-109523577D01*
X105919298Y-109635702D01*
X106031423Y-109727720D01*
X106031947Y-109728000D01*
X106031423Y-109728280D01*
X105919298Y-109820298D01*
X105827280Y-109932423D01*
X105758904Y-110060345D01*
X105716798Y-110199149D01*
X105702581Y-110343500D01*
X105702581Y-110843500D01*
X105716798Y-110987851D01*
X105758904Y-111126655D01*
X105827280Y-111254577D01*
X105919298Y-111366702D01*
X106031423Y-111458720D01*
X106034330Y-111460274D01*
X106012733Y-111466825D01*
X105925871Y-111513254D01*
X105849736Y-111575736D01*
X105787254Y-111651871D01*
X105740825Y-111738733D01*
X105712235Y-111832983D01*
X105702581Y-111931000D01*
X105705000Y-112268500D01*
X105830000Y-112393500D01*
X106655000Y-112393500D01*
X106655000Y-112373500D01*
X106705000Y-112373500D01*
X106705000Y-112393500D01*
X106725000Y-112393500D01*
X106725000Y-112443500D01*
X106705000Y-112443500D01*
X106705000Y-112463500D01*
X106655000Y-112463500D01*
X106655000Y-112443500D01*
X105830000Y-112443500D01*
X105705000Y-112568500D01*
X105702581Y-112906000D01*
X105709377Y-112975000D01*
X105017104Y-112975000D01*
X105031883Y-112926281D01*
X105044419Y-112799000D01*
X105044419Y-112499000D01*
X105031883Y-112371719D01*
X104994757Y-112249330D01*
X104934467Y-112136535D01*
X104869341Y-112057180D01*
X104897264Y-112034264D01*
X104959746Y-111958129D01*
X105006175Y-111871267D01*
X105034765Y-111777017D01*
X105044419Y-111679000D01*
X105042000Y-111529000D01*
X104917000Y-111404000D01*
X103592000Y-111404000D01*
X103592000Y-111424000D01*
X103542000Y-111424000D01*
X103542000Y-111404000D01*
X102217000Y-111404000D01*
X102092000Y-111529000D01*
X102089581Y-111679000D01*
X102099235Y-111777017D01*
X102127825Y-111871267D01*
X102174254Y-111958129D01*
X102236736Y-112034264D01*
X102264659Y-112057180D01*
X102199533Y-112136535D01*
X102139243Y-112249330D01*
X102102117Y-112371719D01*
X102089581Y-112499000D01*
X102089581Y-112799000D01*
X102102117Y-112926281D01*
X102116896Y-112975000D01*
X100091858Y-112975000D01*
X100094419Y-112949000D01*
X100092000Y-112799000D01*
X99967000Y-112674000D01*
X98642000Y-112674000D01*
X98642000Y-112694000D01*
X98592000Y-112694000D01*
X98592000Y-112674000D01*
X97267000Y-112674000D01*
X97142000Y-112799000D01*
X97139581Y-112949000D01*
X97142142Y-112975000D01*
X73525000Y-112975000D01*
X73525000Y-111806000D01*
X76819581Y-111806000D01*
X76829235Y-111904017D01*
X76857825Y-111998267D01*
X76904254Y-112085129D01*
X76966736Y-112161264D01*
X77042871Y-112223746D01*
X77129733Y-112270175D01*
X77223983Y-112298765D01*
X77322000Y-112308419D01*
X78147000Y-112306000D01*
X78272000Y-112181000D01*
X78272000Y-111531000D01*
X78322000Y-111531000D01*
X78322000Y-112181000D01*
X78447000Y-112306000D01*
X79272000Y-112308419D01*
X79370017Y-112298765D01*
X79464267Y-112270175D01*
X79551129Y-112223746D01*
X79627264Y-112161264D01*
X79689746Y-112085129D01*
X79736175Y-111998267D01*
X79764765Y-111904017D01*
X79774419Y-111806000D01*
X79772000Y-111656000D01*
X79647000Y-111531000D01*
X78322000Y-111531000D01*
X78272000Y-111531000D01*
X76947000Y-111531000D01*
X76822000Y-111656000D01*
X76819581Y-111806000D01*
X73525000Y-111806000D01*
X73525000Y-109266000D01*
X76819581Y-109266000D01*
X76829235Y-109364017D01*
X76857825Y-109458267D01*
X76904254Y-109545129D01*
X76966736Y-109621264D01*
X76994659Y-109644180D01*
X76929533Y-109723535D01*
X76869243Y-109836330D01*
X76832117Y-109958719D01*
X76819581Y-110086000D01*
X76819581Y-110386000D01*
X76832117Y-110513281D01*
X76869243Y-110635670D01*
X76929533Y-110748465D01*
X76994659Y-110827820D01*
X76966736Y-110850736D01*
X76904254Y-110926871D01*
X76857825Y-111013733D01*
X76829235Y-111107983D01*
X76819581Y-111206000D01*
X76822000Y-111356000D01*
X76947000Y-111481000D01*
X78272000Y-111481000D01*
X78272000Y-111461000D01*
X78322000Y-111461000D01*
X78322000Y-111481000D01*
X79647000Y-111481000D01*
X79772000Y-111356000D01*
X79774419Y-111206000D01*
X79764765Y-111107983D01*
X79736175Y-111013733D01*
X79689746Y-110926871D01*
X79627264Y-110850736D01*
X79599341Y-110827820D01*
X79664467Y-110748465D01*
X79724757Y-110635670D01*
X79761883Y-110513281D01*
X79774419Y-110386000D01*
X79774419Y-110086000D01*
X79761883Y-109958719D01*
X79724757Y-109836330D01*
X79664467Y-109723535D01*
X79599341Y-109644180D01*
X79627264Y-109621264D01*
X79689746Y-109545129D01*
X79736175Y-109458267D01*
X79764765Y-109364017D01*
X79774419Y-109266000D01*
X79772000Y-109116000D01*
X79647000Y-108991000D01*
X78322000Y-108991000D01*
X78322000Y-109011000D01*
X78272000Y-109011000D01*
X78272000Y-108991000D01*
X76947000Y-108991000D01*
X76822000Y-109116000D01*
X76819581Y-109266000D01*
X73525000Y-109266000D01*
X73525000Y-105429421D01*
X73557644Y-105593534D01*
G37*
%TD.AperFunction*%
D13*
X81221351Y-107480235D02*
X81240920Y-107504080D01*
X81264765Y-107523649D01*
X81264769Y-107523653D01*
X81336088Y-107582183D01*
X81394124Y-107613204D01*
X81444666Y-107640219D01*
X81562479Y-107675957D01*
X81654296Y-107685000D01*
X81654298Y-107685000D01*
X81685000Y-107688024D01*
X81715702Y-107685000D01*
X83292000Y-107685000D01*
X83292000Y-107721000D01*
X83272000Y-107721000D01*
X83272000Y-107741000D01*
X83222000Y-107741000D01*
X83222000Y-107721000D01*
X81897000Y-107721000D01*
X81772000Y-107846000D01*
X81769581Y-107996000D01*
X81779235Y-108094017D01*
X81807825Y-108188267D01*
X81854254Y-108275129D01*
X81916736Y-108351264D01*
X81944659Y-108374180D01*
X81879533Y-108453535D01*
X81819243Y-108566330D01*
X81782117Y-108688719D01*
X81769581Y-108816000D01*
X81769581Y-109116000D01*
X81782117Y-109243281D01*
X81819243Y-109365670D01*
X81879533Y-109478465D01*
X81944659Y-109557820D01*
X81916736Y-109580736D01*
X81854254Y-109656871D01*
X81807825Y-109743733D01*
X81779235Y-109837983D01*
X81769581Y-109936000D01*
X81772000Y-110086000D01*
X81897000Y-110211000D01*
X83222000Y-110211000D01*
X83222000Y-110191000D01*
X83272000Y-110191000D01*
X83272000Y-110211000D01*
X84597000Y-110211000D01*
X84722000Y-110086000D01*
X84724419Y-109936000D01*
X84714765Y-109837983D01*
X84686175Y-109743733D01*
X84639746Y-109656871D01*
X84577264Y-109580736D01*
X84549341Y-109557820D01*
X84614467Y-109478465D01*
X84674757Y-109365670D01*
X84711883Y-109243281D01*
X84724419Y-109116000D01*
X84724419Y-108816000D01*
X84711883Y-108688719D01*
X84674757Y-108566330D01*
X84614467Y-108453535D01*
X84549341Y-108374180D01*
X84577264Y-108351264D01*
X84639746Y-108275129D01*
X84686175Y-108188267D01*
X84714765Y-108094017D01*
X84724419Y-107996000D01*
X84724159Y-107979859D01*
X84726459Y-107981089D01*
X84799666Y-108020219D01*
X84917479Y-108055957D01*
X85009296Y-108065000D01*
X85009305Y-108065000D01*
X85039999Y-108068023D01*
X85070693Y-108065000D01*
X86279306Y-108065000D01*
X86310000Y-108068023D01*
X86340694Y-108065000D01*
X86340704Y-108065000D01*
X86375000Y-108061622D01*
X86375001Y-109969296D01*
X86371977Y-110000000D01*
X86375001Y-110030704D01*
X86384044Y-110122521D01*
X86419782Y-110240334D01*
X86477818Y-110348911D01*
X86555921Y-110444080D01*
X86579771Y-110463653D01*
X86772345Y-110656228D01*
X86791920Y-110680080D01*
X86887089Y-110758183D01*
X86995666Y-110816219D01*
X87113479Y-110851957D01*
X87124817Y-110853074D01*
X87064254Y-110926871D01*
X87017825Y-111013733D01*
X86989235Y-111107983D01*
X86979581Y-111206000D01*
X86982000Y-111356000D01*
X87107000Y-111481000D01*
X88432000Y-111481000D01*
X88432000Y-111461000D01*
X88482000Y-111461000D01*
X88482000Y-111481000D01*
X89807000Y-111481000D01*
X89932000Y-111356000D01*
X89934419Y-111206000D01*
X89924765Y-111107983D01*
X89896175Y-111013733D01*
X89849746Y-110926871D01*
X89787264Y-110850736D01*
X89759341Y-110827820D01*
X89824467Y-110748465D01*
X89884757Y-110635670D01*
X89921883Y-110513281D01*
X89934419Y-110386000D01*
X89934419Y-110086000D01*
X89921883Y-109958719D01*
X89884757Y-109836330D01*
X89824467Y-109723535D01*
X89743330Y-109624670D01*
X89714488Y-109601000D01*
X89726673Y-109591000D01*
X90303306Y-109591000D01*
X90334000Y-109594023D01*
X90364694Y-109591000D01*
X90364704Y-109591000D01*
X90456521Y-109581957D01*
X90574334Y-109546219D01*
X90682911Y-109488183D01*
X90778080Y-109410080D01*
X90797658Y-109386224D01*
X91295001Y-108888881D01*
X91295000Y-111169306D01*
X91291977Y-111200000D01*
X91295000Y-111230694D01*
X91295000Y-111230703D01*
X91304043Y-111322520D01*
X91339781Y-111440333D01*
X91397817Y-111548910D01*
X91475920Y-111644080D01*
X91499776Y-111663658D01*
X91511118Y-111675000D01*
X89932306Y-111675000D01*
X89932000Y-111656000D01*
X89807000Y-111531000D01*
X88482000Y-111531000D01*
X88482000Y-111551000D01*
X88432000Y-111551000D01*
X88432000Y-111531000D01*
X87107000Y-111531000D01*
X86982000Y-111656000D01*
X86981694Y-111675000D01*
X84722548Y-111675000D01*
X84724419Y-111656000D01*
X84724419Y-111356000D01*
X84711883Y-111228719D01*
X84674757Y-111106330D01*
X84614467Y-110993535D01*
X84549341Y-110914180D01*
X84577264Y-110891264D01*
X84639746Y-110815129D01*
X84686175Y-110728267D01*
X84714765Y-110634017D01*
X84724419Y-110536000D01*
X84722000Y-110386000D01*
X84597000Y-110261000D01*
X83272000Y-110261000D01*
X83272000Y-110281000D01*
X83222000Y-110281000D01*
X83222000Y-110261000D01*
X81897000Y-110261000D01*
X81772000Y-110386000D01*
X81769581Y-110536000D01*
X81779235Y-110634017D01*
X81807825Y-110728267D01*
X81854254Y-110815129D01*
X81916736Y-110891264D01*
X81944659Y-110914180D01*
X81879533Y-110993535D01*
X81819243Y-111106330D01*
X81782117Y-111228719D01*
X81769581Y-111356000D01*
X81769581Y-111656000D01*
X81771452Y-111675000D01*
X81658883Y-111675000D01*
X81225000Y-111241118D01*
X81225000Y-108930693D01*
X81228023Y-108899999D01*
X81225000Y-108869305D01*
X81225000Y-108869296D01*
X81215957Y-108777479D01*
X81180219Y-108659666D01*
X81122183Y-108551089D01*
X81122182Y-108551087D01*
X81063652Y-108479769D01*
X81044080Y-108455920D01*
X81020230Y-108436347D01*
X79859658Y-107275776D01*
X79840080Y-107251920D01*
X79744911Y-107173817D01*
X79636334Y-107115781D01*
X79599756Y-107104685D01*
X79583330Y-107084670D01*
X79554488Y-107061000D01*
X79583330Y-107037330D01*
X79664467Y-106938465D01*
X79724757Y-106825670D01*
X79761883Y-106703281D01*
X79774419Y-106576000D01*
X79774419Y-106276000D01*
X79761883Y-106148719D01*
X79724757Y-106026330D01*
X79675737Y-105934619D01*
X81221351Y-107480235D01*
%TA.AperFunction,Conductor*%
D14*
G36*
X81221351Y-107480235D02*
G01*
X81240920Y-107504080D01*
X81264765Y-107523649D01*
X81264769Y-107523653D01*
X81336088Y-107582183D01*
X81394124Y-107613204D01*
X81444666Y-107640219D01*
X81562479Y-107675957D01*
X81654296Y-107685000D01*
X81654298Y-107685000D01*
X81685000Y-107688024D01*
X81715702Y-107685000D01*
X83292000Y-107685000D01*
X83292000Y-107721000D01*
X83272000Y-107721000D01*
X83272000Y-107741000D01*
X83222000Y-107741000D01*
X83222000Y-107721000D01*
X81897000Y-107721000D01*
X81772000Y-107846000D01*
X81769581Y-107996000D01*
X81779235Y-108094017D01*
X81807825Y-108188267D01*
X81854254Y-108275129D01*
X81916736Y-108351264D01*
X81944659Y-108374180D01*
X81879533Y-108453535D01*
X81819243Y-108566330D01*
X81782117Y-108688719D01*
X81769581Y-108816000D01*
X81769581Y-109116000D01*
X81782117Y-109243281D01*
X81819243Y-109365670D01*
X81879533Y-109478465D01*
X81944659Y-109557820D01*
X81916736Y-109580736D01*
X81854254Y-109656871D01*
X81807825Y-109743733D01*
X81779235Y-109837983D01*
X81769581Y-109936000D01*
X81772000Y-110086000D01*
X81897000Y-110211000D01*
X83222000Y-110211000D01*
X83222000Y-110191000D01*
X83272000Y-110191000D01*
X83272000Y-110211000D01*
X84597000Y-110211000D01*
X84722000Y-110086000D01*
X84724419Y-109936000D01*
X84714765Y-109837983D01*
X84686175Y-109743733D01*
X84639746Y-109656871D01*
X84577264Y-109580736D01*
X84549341Y-109557820D01*
X84614467Y-109478465D01*
X84674757Y-109365670D01*
X84711883Y-109243281D01*
X84724419Y-109116000D01*
X84724419Y-108816000D01*
X84711883Y-108688719D01*
X84674757Y-108566330D01*
X84614467Y-108453535D01*
X84549341Y-108374180D01*
X84577264Y-108351264D01*
X84639746Y-108275129D01*
X84686175Y-108188267D01*
X84714765Y-108094017D01*
X84724419Y-107996000D01*
X84724159Y-107979859D01*
X84726459Y-107981089D01*
X84799666Y-108020219D01*
X84917479Y-108055957D01*
X85009296Y-108065000D01*
X85009305Y-108065000D01*
X85039999Y-108068023D01*
X85070693Y-108065000D01*
X86279306Y-108065000D01*
X86310000Y-108068023D01*
X86340694Y-108065000D01*
X86340704Y-108065000D01*
X86375000Y-108061622D01*
X86375001Y-109969296D01*
X86371977Y-110000000D01*
X86375001Y-110030704D01*
X86384044Y-110122521D01*
X86419782Y-110240334D01*
X86477818Y-110348911D01*
X86555921Y-110444080D01*
X86579771Y-110463653D01*
X86772345Y-110656228D01*
X86791920Y-110680080D01*
X86887089Y-110758183D01*
X86995666Y-110816219D01*
X87113479Y-110851957D01*
X87124817Y-110853074D01*
X87064254Y-110926871D01*
X87017825Y-111013733D01*
X86989235Y-111107983D01*
X86979581Y-111206000D01*
X86982000Y-111356000D01*
X87107000Y-111481000D01*
X88432000Y-111481000D01*
X88432000Y-111461000D01*
X88482000Y-111461000D01*
X88482000Y-111481000D01*
X89807000Y-111481000D01*
X89932000Y-111356000D01*
X89934419Y-111206000D01*
X89924765Y-111107983D01*
X89896175Y-111013733D01*
X89849746Y-110926871D01*
X89787264Y-110850736D01*
X89759341Y-110827820D01*
X89824467Y-110748465D01*
X89884757Y-110635670D01*
X89921883Y-110513281D01*
X89934419Y-110386000D01*
X89934419Y-110086000D01*
X89921883Y-109958719D01*
X89884757Y-109836330D01*
X89824467Y-109723535D01*
X89743330Y-109624670D01*
X89714488Y-109601000D01*
X89726673Y-109591000D01*
X90303306Y-109591000D01*
X90334000Y-109594023D01*
X90364694Y-109591000D01*
X90364704Y-109591000D01*
X90456521Y-109581957D01*
X90574334Y-109546219D01*
X90682911Y-109488183D01*
X90778080Y-109410080D01*
X90797658Y-109386224D01*
X91295001Y-108888881D01*
X91295000Y-111169306D01*
X91291977Y-111200000D01*
X91295000Y-111230694D01*
X91295000Y-111230703D01*
X91304043Y-111322520D01*
X91339781Y-111440333D01*
X91397817Y-111548910D01*
X91475920Y-111644080D01*
X91499776Y-111663658D01*
X91511118Y-111675000D01*
X89932306Y-111675000D01*
X89932000Y-111656000D01*
X89807000Y-111531000D01*
X88482000Y-111531000D01*
X88482000Y-111551000D01*
X88432000Y-111551000D01*
X88432000Y-111531000D01*
X87107000Y-111531000D01*
X86982000Y-111656000D01*
X86981694Y-111675000D01*
X84722548Y-111675000D01*
X84724419Y-111656000D01*
X84724419Y-111356000D01*
X84711883Y-111228719D01*
X84674757Y-111106330D01*
X84614467Y-110993535D01*
X84549341Y-110914180D01*
X84577264Y-110891264D01*
X84639746Y-110815129D01*
X84686175Y-110728267D01*
X84714765Y-110634017D01*
X84724419Y-110536000D01*
X84722000Y-110386000D01*
X84597000Y-110261000D01*
X83272000Y-110261000D01*
X83272000Y-110281000D01*
X83222000Y-110281000D01*
X83222000Y-110261000D01*
X81897000Y-110261000D01*
X81772000Y-110386000D01*
X81769581Y-110536000D01*
X81779235Y-110634017D01*
X81807825Y-110728267D01*
X81854254Y-110815129D01*
X81916736Y-110891264D01*
X81944659Y-110914180D01*
X81879533Y-110993535D01*
X81819243Y-111106330D01*
X81782117Y-111228719D01*
X81769581Y-111356000D01*
X81769581Y-111656000D01*
X81771452Y-111675000D01*
X81658883Y-111675000D01*
X81225000Y-111241118D01*
X81225000Y-108930693D01*
X81228023Y-108899999D01*
X81225000Y-108869305D01*
X81225000Y-108869296D01*
X81215957Y-108777479D01*
X81180219Y-108659666D01*
X81122183Y-108551089D01*
X81122182Y-108551087D01*
X81063652Y-108479769D01*
X81044080Y-108455920D01*
X81020230Y-108436347D01*
X79859658Y-107275776D01*
X79840080Y-107251920D01*
X79744911Y-107173817D01*
X79636334Y-107115781D01*
X79599756Y-107104685D01*
X79583330Y-107084670D01*
X79554488Y-107061000D01*
X79583330Y-107037330D01*
X79664467Y-106938465D01*
X79724757Y-106825670D01*
X79761883Y-106703281D01*
X79774419Y-106576000D01*
X79774419Y-106276000D01*
X79761883Y-106148719D01*
X79724757Y-106026330D01*
X79675737Y-105934619D01*
X81221351Y-107480235D01*
G37*
%TD.AperFunction*%
D13*
X103688433Y-99589078D02*
X104648000Y-100548645D01*
X105607567Y-99589078D01*
X105543056Y-99425000D01*
X106491118Y-99425000D01*
X106955001Y-99888884D01*
X106955000Y-101081117D01*
X105751772Y-102284346D01*
X105727921Y-102303920D01*
X105708348Y-102327770D01*
X105649818Y-102399089D01*
X105591782Y-102507666D01*
X105565687Y-102593689D01*
X105523423Y-102616280D01*
X105411298Y-102708298D01*
X105319280Y-102820423D01*
X105269685Y-102913208D01*
X105245979Y-102915543D01*
X105128166Y-102951281D01*
X105019589Y-103009317D01*
X104924420Y-103087420D01*
X104904845Y-103111272D01*
X104882117Y-103134000D01*
X104836673Y-103134000D01*
X104754465Y-103066533D01*
X104641670Y-103006243D01*
X104519281Y-102969117D01*
X104392000Y-102956581D01*
X102742000Y-102956581D01*
X102614719Y-102969117D01*
X102492330Y-103006243D01*
X102379535Y-103066533D01*
X102280670Y-103147670D01*
X102199533Y-103246535D01*
X102139243Y-103359330D01*
X102102117Y-103481719D01*
X102089581Y-103609000D01*
X102089581Y-103909000D01*
X102102117Y-104036281D01*
X102139243Y-104158670D01*
X102199533Y-104271465D01*
X102264659Y-104350820D01*
X102236736Y-104373736D01*
X102174254Y-104449871D01*
X102127825Y-104536733D01*
X102099235Y-104630983D01*
X102089581Y-104729000D01*
X102092000Y-104879000D01*
X102217000Y-105004000D01*
X103542000Y-105004000D01*
X103542000Y-104984000D01*
X103592000Y-104984000D01*
X103592000Y-105004000D01*
X104917000Y-105004000D01*
X105042000Y-104879000D01*
X105044419Y-104729000D01*
X105034765Y-104630983D01*
X105006175Y-104536733D01*
X104959746Y-104449871D01*
X104905687Y-104384000D01*
X105110306Y-104384000D01*
X105141000Y-104387023D01*
X105171694Y-104384000D01*
X105171704Y-104384000D01*
X105263521Y-104374957D01*
X105365909Y-104343898D01*
X105341736Y-104363736D01*
X105279254Y-104439871D01*
X105232825Y-104526733D01*
X105204235Y-104620983D01*
X105194581Y-104719000D01*
X105197000Y-105106500D01*
X105322000Y-105231500D01*
X106147000Y-105231500D01*
X106147000Y-105211500D01*
X106197000Y-105211500D01*
X106197000Y-105231500D01*
X107022000Y-105231500D01*
X107147000Y-105106500D01*
X107147469Y-105031351D01*
X107833001Y-105716884D01*
X107833001Y-106159677D01*
X107809423Y-106172280D01*
X107697298Y-106264298D01*
X107605280Y-106376423D01*
X107569000Y-106444298D01*
X107532720Y-106376423D01*
X107440702Y-106264298D01*
X107328577Y-106172280D01*
X107200655Y-106103904D01*
X107069554Y-106064135D01*
X107111175Y-105986267D01*
X107139765Y-105892017D01*
X107149419Y-105794000D01*
X107147000Y-105406500D01*
X107022000Y-105281500D01*
X106197000Y-105281500D01*
X106197000Y-105301500D01*
X106147000Y-105301500D01*
X106147000Y-105281500D01*
X105322000Y-105281500D01*
X105197000Y-105406500D01*
X105194581Y-105794000D01*
X105204235Y-105892017D01*
X105232825Y-105986267D01*
X105279254Y-106073129D01*
X105341736Y-106149264D01*
X105417871Y-106211746D01*
X105504733Y-106258175D01*
X105598983Y-106286765D01*
X105697000Y-106296419D01*
X105894141Y-106294952D01*
X105827280Y-106376423D01*
X105806674Y-106414974D01*
X105739979Y-106421543D01*
X105622166Y-106457281D01*
X105513589Y-106515317D01*
X105418420Y-106593420D01*
X105398842Y-106617276D01*
X105179772Y-106836346D01*
X105155921Y-106855920D01*
X105077818Y-106951089D01*
X105019781Y-107059666D01*
X105010389Y-107090626D01*
X105006175Y-107076733D01*
X104959746Y-106989871D01*
X104913894Y-106934000D01*
X104959746Y-106878129D01*
X105006175Y-106791267D01*
X105034765Y-106697017D01*
X105044419Y-106599000D01*
X105042000Y-106449000D01*
X104917000Y-106324000D01*
X103592000Y-106324000D01*
X103592000Y-107544000D01*
X103612000Y-107544000D01*
X103612000Y-107575000D01*
X103522000Y-107575000D01*
X103522000Y-107544000D01*
X103542000Y-107544000D01*
X103542000Y-106324000D01*
X102217000Y-106324000D01*
X102092000Y-106449000D01*
X102089581Y-106599000D01*
X102099235Y-106697017D01*
X102127825Y-106791267D01*
X102174254Y-106878129D01*
X102220106Y-106934000D01*
X102174254Y-106989871D01*
X102127825Y-107076733D01*
X102099235Y-107170983D01*
X102089581Y-107269000D01*
X102092000Y-107419000D01*
X102216998Y-107543998D01*
X102127881Y-107543998D01*
X101732658Y-107148776D01*
X101713080Y-107124920D01*
X101617911Y-107046817D01*
X101509334Y-106988781D01*
X101391521Y-106953043D01*
X101299704Y-106944000D01*
X101299694Y-106944000D01*
X101269000Y-106940977D01*
X101238306Y-106944000D01*
X100644146Y-106944000D01*
X100683538Y-106896000D01*
X100722183Y-106848912D01*
X100761029Y-106776235D01*
X100780219Y-106740334D01*
X100815957Y-106622521D01*
X100825000Y-106530704D01*
X100825000Y-106530702D01*
X100828024Y-106500000D01*
X100825000Y-106469298D01*
X100825000Y-105667701D01*
X100828024Y-105637000D01*
X100823743Y-105593534D01*
X100815957Y-105514479D01*
X100780219Y-105396666D01*
X100744051Y-105329000D01*
X102089581Y-105329000D01*
X102099235Y-105427017D01*
X102127825Y-105521267D01*
X102174254Y-105608129D01*
X102220106Y-105664000D01*
X102174254Y-105719871D01*
X102127825Y-105806733D01*
X102099235Y-105900983D01*
X102089581Y-105999000D01*
X102092000Y-106149000D01*
X102217000Y-106274000D01*
X103542000Y-106274000D01*
X103542000Y-105054000D01*
X103592000Y-105054000D01*
X103592000Y-106274000D01*
X104917000Y-106274000D01*
X105042000Y-106149000D01*
X105044419Y-105999000D01*
X105034765Y-105900983D01*
X105006175Y-105806733D01*
X104959746Y-105719871D01*
X104913894Y-105664000D01*
X104959746Y-105608129D01*
X105006175Y-105521267D01*
X105034765Y-105427017D01*
X105044419Y-105329000D01*
X105042000Y-105179000D01*
X104917000Y-105054000D01*
X103592000Y-105054000D01*
X103542000Y-105054000D01*
X102217000Y-105054000D01*
X102092000Y-105179000D01*
X102089581Y-105329000D01*
X100744051Y-105329000D01*
X100722183Y-105288089D01*
X100644080Y-105192920D01*
X100620229Y-105173346D01*
X100055658Y-104608776D01*
X100036080Y-104584920D01*
X100009250Y-104562902D01*
X99984467Y-104516535D01*
X99903330Y-104417670D01*
X99874488Y-104394000D01*
X99903330Y-104370330D01*
X99984467Y-104271465D01*
X100044757Y-104158670D01*
X100081883Y-104036281D01*
X100094419Y-103909000D01*
X100094419Y-103609000D01*
X100081883Y-103481719D01*
X100044757Y-103359330D01*
X99984467Y-103246535D01*
X99903330Y-103147670D01*
X99804465Y-103066533D01*
X99691670Y-103006243D01*
X99569281Y-102969117D01*
X99442000Y-102956581D01*
X97927301Y-102956581D01*
X97956224Y-102927658D01*
X97980080Y-102908080D01*
X98058183Y-102812911D01*
X98116219Y-102704334D01*
X98151957Y-102586521D01*
X98161000Y-102494704D01*
X98161000Y-102494702D01*
X98164024Y-102464000D01*
X98161000Y-102433299D01*
X98161000Y-101948705D01*
X98246517Y-101913283D01*
X98492194Y-101749126D01*
X98662398Y-101578922D01*
X103688433Y-101578922D01*
X103782403Y-101817925D01*
X104039762Y-101963084D01*
X104320496Y-102055247D01*
X104613814Y-102090870D01*
X104908447Y-102068586D01*
X105193070Y-101989249D01*
X105456748Y-101855910D01*
X105513597Y-101817925D01*
X105607567Y-101578922D01*
X104648000Y-100619355D01*
X103688433Y-101578922D01*
X98662398Y-101578922D01*
X98701126Y-101540194D01*
X98865283Y-101294517D01*
X98900705Y-101209000D01*
X99301678Y-101209000D01*
X99314280Y-101232577D01*
X99406298Y-101344702D01*
X99518423Y-101436720D01*
X99646345Y-101505096D01*
X99785149Y-101547202D01*
X99929500Y-101561419D01*
X100529500Y-101561419D01*
X100673851Y-101547202D01*
X100812655Y-101505096D01*
X100940577Y-101436720D01*
X101023988Y-101368267D01*
X101061736Y-101414264D01*
X101137871Y-101476746D01*
X101224733Y-101523175D01*
X101318983Y-101551765D01*
X101417000Y-101561419D01*
X101804500Y-101559000D01*
X101929500Y-101434000D01*
X101929500Y-100609000D01*
X101979500Y-100609000D01*
X101979500Y-101434000D01*
X102104500Y-101559000D01*
X102492000Y-101561419D01*
X102590017Y-101551765D01*
X102684267Y-101523175D01*
X102771129Y-101476746D01*
X102847264Y-101414264D01*
X102909746Y-101338129D01*
X102956175Y-101251267D01*
X102984765Y-101157017D01*
X102994419Y-101059000D01*
X102992000Y-100734000D01*
X102867000Y-100609000D01*
X101979500Y-100609000D01*
X101929500Y-100609000D01*
X101909500Y-100609000D01*
X101909500Y-100559000D01*
X101929500Y-100559000D01*
X101929500Y-99734000D01*
X101979500Y-99734000D01*
X101979500Y-100559000D01*
X102867000Y-100559000D01*
X102876186Y-100549814D01*
X103141130Y-100549814D01*
X103163414Y-100844447D01*
X103242751Y-101129070D01*
X103376090Y-101392748D01*
X103414075Y-101449597D01*
X103653078Y-101543567D01*
X104612645Y-100584000D01*
X104683355Y-100584000D01*
X105642922Y-101543567D01*
X105881925Y-101449597D01*
X106027084Y-101192238D01*
X106119247Y-100911504D01*
X106154870Y-100618186D01*
X106132586Y-100323553D01*
X106053249Y-100038930D01*
X105919910Y-99775252D01*
X105881925Y-99718403D01*
X105642922Y-99624433D01*
X104683355Y-100584000D01*
X104612645Y-100584000D01*
X103653078Y-99624433D01*
X103414075Y-99718403D01*
X103268916Y-99975762D01*
X103176753Y-100256496D01*
X103141130Y-100549814D01*
X102876186Y-100549814D01*
X102992000Y-100434000D01*
X102994419Y-100109000D01*
X102984765Y-100010983D01*
X102956175Y-99916733D01*
X102909746Y-99829871D01*
X102847264Y-99753736D01*
X102771129Y-99691254D01*
X102684267Y-99644825D01*
X102590017Y-99616235D01*
X102492000Y-99606581D01*
X102104500Y-99609000D01*
X101979500Y-99734000D01*
X101929500Y-99734000D01*
X101804500Y-99609000D01*
X101417000Y-99606581D01*
X101318983Y-99616235D01*
X101224733Y-99644825D01*
X101137871Y-99691254D01*
X101061736Y-99753736D01*
X101023988Y-99799733D01*
X100940577Y-99731280D01*
X100812655Y-99662904D01*
X100673851Y-99620798D01*
X100529500Y-99606581D01*
X99929500Y-99606581D01*
X99785149Y-99620798D01*
X99646345Y-99662904D01*
X99518423Y-99731280D01*
X99406298Y-99823298D01*
X99314280Y-99935423D01*
X99301678Y-99959000D01*
X98900705Y-99959000D01*
X98865283Y-99873483D01*
X98701126Y-99627806D01*
X98498320Y-99425000D01*
X103752944Y-99425000D01*
X103688433Y-99589078D01*
%TA.AperFunction,Conductor*%
D14*
G36*
X103688433Y-99589078D02*
G01*
X104648000Y-100548645D01*
X105607567Y-99589078D01*
X105543056Y-99425000D01*
X106491118Y-99425000D01*
X106955001Y-99888884D01*
X106955000Y-101081117D01*
X105751772Y-102284346D01*
X105727921Y-102303920D01*
X105708348Y-102327770D01*
X105649818Y-102399089D01*
X105591782Y-102507666D01*
X105565687Y-102593689D01*
X105523423Y-102616280D01*
X105411298Y-102708298D01*
X105319280Y-102820423D01*
X105269685Y-102913208D01*
X105245979Y-102915543D01*
X105128166Y-102951281D01*
X105019589Y-103009317D01*
X104924420Y-103087420D01*
X104904845Y-103111272D01*
X104882117Y-103134000D01*
X104836673Y-103134000D01*
X104754465Y-103066533D01*
X104641670Y-103006243D01*
X104519281Y-102969117D01*
X104392000Y-102956581D01*
X102742000Y-102956581D01*
X102614719Y-102969117D01*
X102492330Y-103006243D01*
X102379535Y-103066533D01*
X102280670Y-103147670D01*
X102199533Y-103246535D01*
X102139243Y-103359330D01*
X102102117Y-103481719D01*
X102089581Y-103609000D01*
X102089581Y-103909000D01*
X102102117Y-104036281D01*
X102139243Y-104158670D01*
X102199533Y-104271465D01*
X102264659Y-104350820D01*
X102236736Y-104373736D01*
X102174254Y-104449871D01*
X102127825Y-104536733D01*
X102099235Y-104630983D01*
X102089581Y-104729000D01*
X102092000Y-104879000D01*
X102217000Y-105004000D01*
X103542000Y-105004000D01*
X103542000Y-104984000D01*
X103592000Y-104984000D01*
X103592000Y-105004000D01*
X104917000Y-105004000D01*
X105042000Y-104879000D01*
X105044419Y-104729000D01*
X105034765Y-104630983D01*
X105006175Y-104536733D01*
X104959746Y-104449871D01*
X104905687Y-104384000D01*
X105110306Y-104384000D01*
X105141000Y-104387023D01*
X105171694Y-104384000D01*
X105171704Y-104384000D01*
X105263521Y-104374957D01*
X105365909Y-104343898D01*
X105341736Y-104363736D01*
X105279254Y-104439871D01*
X105232825Y-104526733D01*
X105204235Y-104620983D01*
X105194581Y-104719000D01*
X105197000Y-105106500D01*
X105322000Y-105231500D01*
X106147000Y-105231500D01*
X106147000Y-105211500D01*
X106197000Y-105211500D01*
X106197000Y-105231500D01*
X107022000Y-105231500D01*
X107147000Y-105106500D01*
X107147469Y-105031351D01*
X107833001Y-105716884D01*
X107833001Y-106159677D01*
X107809423Y-106172280D01*
X107697298Y-106264298D01*
X107605280Y-106376423D01*
X107569000Y-106444298D01*
X107532720Y-106376423D01*
X107440702Y-106264298D01*
X107328577Y-106172280D01*
X107200655Y-106103904D01*
X107069554Y-106064135D01*
X107111175Y-105986267D01*
X107139765Y-105892017D01*
X107149419Y-105794000D01*
X107147000Y-105406500D01*
X107022000Y-105281500D01*
X106197000Y-105281500D01*
X106197000Y-105301500D01*
X106147000Y-105301500D01*
X106147000Y-105281500D01*
X105322000Y-105281500D01*
X105197000Y-105406500D01*
X105194581Y-105794000D01*
X105204235Y-105892017D01*
X105232825Y-105986267D01*
X105279254Y-106073129D01*
X105341736Y-106149264D01*
X105417871Y-106211746D01*
X105504733Y-106258175D01*
X105598983Y-106286765D01*
X105697000Y-106296419D01*
X105894141Y-106294952D01*
X105827280Y-106376423D01*
X105806674Y-106414974D01*
X105739979Y-106421543D01*
X105622166Y-106457281D01*
X105513589Y-106515317D01*
X105418420Y-106593420D01*
X105398842Y-106617276D01*
X105179772Y-106836346D01*
X105155921Y-106855920D01*
X105077818Y-106951089D01*
X105019781Y-107059666D01*
X105010389Y-107090626D01*
X105006175Y-107076733D01*
X104959746Y-106989871D01*
X104913894Y-106934000D01*
X104959746Y-106878129D01*
X105006175Y-106791267D01*
X105034765Y-106697017D01*
X105044419Y-106599000D01*
X105042000Y-106449000D01*
X104917000Y-106324000D01*
X103592000Y-106324000D01*
X103592000Y-107544000D01*
X103612000Y-107544000D01*
X103612000Y-107575000D01*
X103522000Y-107575000D01*
X103522000Y-107544000D01*
X103542000Y-107544000D01*
X103542000Y-106324000D01*
X102217000Y-106324000D01*
X102092000Y-106449000D01*
X102089581Y-106599000D01*
X102099235Y-106697017D01*
X102127825Y-106791267D01*
X102174254Y-106878129D01*
X102220106Y-106934000D01*
X102174254Y-106989871D01*
X102127825Y-107076733D01*
X102099235Y-107170983D01*
X102089581Y-107269000D01*
X102092000Y-107419000D01*
X102216998Y-107543998D01*
X102127881Y-107543998D01*
X101732658Y-107148776D01*
X101713080Y-107124920D01*
X101617911Y-107046817D01*
X101509334Y-106988781D01*
X101391521Y-106953043D01*
X101299704Y-106944000D01*
X101299694Y-106944000D01*
X101269000Y-106940977D01*
X101238306Y-106944000D01*
X100644146Y-106944000D01*
X100683538Y-106896000D01*
X100722183Y-106848912D01*
X100761029Y-106776235D01*
X100780219Y-106740334D01*
X100815957Y-106622521D01*
X100825000Y-106530704D01*
X100825000Y-106530702D01*
X100828024Y-106500000D01*
X100825000Y-106469298D01*
X100825000Y-105667701D01*
X100828024Y-105637000D01*
X100823743Y-105593534D01*
X100815957Y-105514479D01*
X100780219Y-105396666D01*
X100744051Y-105329000D01*
X102089581Y-105329000D01*
X102099235Y-105427017D01*
X102127825Y-105521267D01*
X102174254Y-105608129D01*
X102220106Y-105664000D01*
X102174254Y-105719871D01*
X102127825Y-105806733D01*
X102099235Y-105900983D01*
X102089581Y-105999000D01*
X102092000Y-106149000D01*
X102217000Y-106274000D01*
X103542000Y-106274000D01*
X103542000Y-105054000D01*
X103592000Y-105054000D01*
X103592000Y-106274000D01*
X104917000Y-106274000D01*
X105042000Y-106149000D01*
X105044419Y-105999000D01*
X105034765Y-105900983D01*
X105006175Y-105806733D01*
X104959746Y-105719871D01*
X104913894Y-105664000D01*
X104959746Y-105608129D01*
X105006175Y-105521267D01*
X105034765Y-105427017D01*
X105044419Y-105329000D01*
X105042000Y-105179000D01*
X104917000Y-105054000D01*
X103592000Y-105054000D01*
X103542000Y-105054000D01*
X102217000Y-105054000D01*
X102092000Y-105179000D01*
X102089581Y-105329000D01*
X100744051Y-105329000D01*
X100722183Y-105288089D01*
X100644080Y-105192920D01*
X100620229Y-105173346D01*
X100055658Y-104608776D01*
X100036080Y-104584920D01*
X100009250Y-104562902D01*
X99984467Y-104516535D01*
X99903330Y-104417670D01*
X99874488Y-104394000D01*
X99903330Y-104370330D01*
X99984467Y-104271465D01*
X100044757Y-104158670D01*
X100081883Y-104036281D01*
X100094419Y-103909000D01*
X100094419Y-103609000D01*
X100081883Y-103481719D01*
X100044757Y-103359330D01*
X99984467Y-103246535D01*
X99903330Y-103147670D01*
X99804465Y-103066533D01*
X99691670Y-103006243D01*
X99569281Y-102969117D01*
X99442000Y-102956581D01*
X97927301Y-102956581D01*
X97956224Y-102927658D01*
X97980080Y-102908080D01*
X98058183Y-102812911D01*
X98116219Y-102704334D01*
X98151957Y-102586521D01*
X98161000Y-102494704D01*
X98161000Y-102494702D01*
X98164024Y-102464000D01*
X98161000Y-102433299D01*
X98161000Y-101948705D01*
X98246517Y-101913283D01*
X98492194Y-101749126D01*
X98662398Y-101578922D01*
X103688433Y-101578922D01*
X103782403Y-101817925D01*
X104039762Y-101963084D01*
X104320496Y-102055247D01*
X104613814Y-102090870D01*
X104908447Y-102068586D01*
X105193070Y-101989249D01*
X105456748Y-101855910D01*
X105513597Y-101817925D01*
X105607567Y-101578922D01*
X104648000Y-100619355D01*
X103688433Y-101578922D01*
X98662398Y-101578922D01*
X98701126Y-101540194D01*
X98865283Y-101294517D01*
X98900705Y-101209000D01*
X99301678Y-101209000D01*
X99314280Y-101232577D01*
X99406298Y-101344702D01*
X99518423Y-101436720D01*
X99646345Y-101505096D01*
X99785149Y-101547202D01*
X99929500Y-101561419D01*
X100529500Y-101561419D01*
X100673851Y-101547202D01*
X100812655Y-101505096D01*
X100940577Y-101436720D01*
X101023988Y-101368267D01*
X101061736Y-101414264D01*
X101137871Y-101476746D01*
X101224733Y-101523175D01*
X101318983Y-101551765D01*
X101417000Y-101561419D01*
X101804500Y-101559000D01*
X101929500Y-101434000D01*
X101929500Y-100609000D01*
X101979500Y-100609000D01*
X101979500Y-101434000D01*
X102104500Y-101559000D01*
X102492000Y-101561419D01*
X102590017Y-101551765D01*
X102684267Y-101523175D01*
X102771129Y-101476746D01*
X102847264Y-101414264D01*
X102909746Y-101338129D01*
X102956175Y-101251267D01*
X102984765Y-101157017D01*
X102994419Y-101059000D01*
X102992000Y-100734000D01*
X102867000Y-100609000D01*
X101979500Y-100609000D01*
X101929500Y-100609000D01*
X101909500Y-100609000D01*
X101909500Y-100559000D01*
X101929500Y-100559000D01*
X101929500Y-99734000D01*
X101979500Y-99734000D01*
X101979500Y-100559000D01*
X102867000Y-100559000D01*
X102876186Y-100549814D01*
X103141130Y-100549814D01*
X103163414Y-100844447D01*
X103242751Y-101129070D01*
X103376090Y-101392748D01*
X103414075Y-101449597D01*
X103653078Y-101543567D01*
X104612645Y-100584000D01*
X104683355Y-100584000D01*
X105642922Y-101543567D01*
X105881925Y-101449597D01*
X106027084Y-101192238D01*
X106119247Y-100911504D01*
X106154870Y-100618186D01*
X106132586Y-100323553D01*
X106053249Y-100038930D01*
X105919910Y-99775252D01*
X105881925Y-99718403D01*
X105642922Y-99624433D01*
X104683355Y-100584000D01*
X104612645Y-100584000D01*
X103653078Y-99624433D01*
X103414075Y-99718403D01*
X103268916Y-99975762D01*
X103176753Y-100256496D01*
X103141130Y-100549814D01*
X102876186Y-100549814D01*
X102992000Y-100434000D01*
X102994419Y-100109000D01*
X102984765Y-100010983D01*
X102956175Y-99916733D01*
X102909746Y-99829871D01*
X102847264Y-99753736D01*
X102771129Y-99691254D01*
X102684267Y-99644825D01*
X102590017Y-99616235D01*
X102492000Y-99606581D01*
X102104500Y-99609000D01*
X101979500Y-99734000D01*
X101929500Y-99734000D01*
X101804500Y-99609000D01*
X101417000Y-99606581D01*
X101318983Y-99616235D01*
X101224733Y-99644825D01*
X101137871Y-99691254D01*
X101061736Y-99753736D01*
X101023988Y-99799733D01*
X100940577Y-99731280D01*
X100812655Y-99662904D01*
X100673851Y-99620798D01*
X100529500Y-99606581D01*
X99929500Y-99606581D01*
X99785149Y-99620798D01*
X99646345Y-99662904D01*
X99518423Y-99731280D01*
X99406298Y-99823298D01*
X99314280Y-99935423D01*
X99301678Y-99959000D01*
X98900705Y-99959000D01*
X98865283Y-99873483D01*
X98701126Y-99627806D01*
X98498320Y-99425000D01*
X103752944Y-99425000D01*
X103688433Y-99589078D01*
G37*
%TD.AperFunction*%
D13*
X89094717Y-101294517D02*
X89258874Y-101540194D01*
X89467806Y-101749126D01*
X89713483Y-101913283D01*
X89986466Y-102026356D01*
X90276263Y-102084000D01*
X90571737Y-102084000D01*
X90861534Y-102026356D01*
X91134517Y-101913283D01*
X91380194Y-101749126D01*
X91589126Y-101540194D01*
X91753283Y-101294517D01*
X91788705Y-101209000D01*
X92189678Y-101209000D01*
X92202280Y-101232577D01*
X92294298Y-101344702D01*
X92406423Y-101436720D01*
X92448509Y-101459216D01*
X92451543Y-101490021D01*
X92487282Y-101607834D01*
X92545318Y-101716411D01*
X92623421Y-101811580D01*
X92647271Y-101831153D01*
X93036346Y-102220229D01*
X93055920Y-102244080D01*
X93079769Y-102263652D01*
X93151087Y-102322182D01*
X93151089Y-102322183D01*
X93259666Y-102380219D01*
X93377479Y-102415957D01*
X93469296Y-102425000D01*
X93469305Y-102425000D01*
X93499999Y-102428023D01*
X93530693Y-102425000D01*
X95241118Y-102425000D01*
X95387000Y-102570883D01*
X95387000Y-102857678D01*
X95363423Y-102870280D01*
X95251298Y-102962298D01*
X95159280Y-103074423D01*
X95090904Y-103202345D01*
X95071898Y-103265000D01*
X94940693Y-103265000D01*
X94909999Y-103261977D01*
X94900000Y-103262962D01*
X94890000Y-103261977D01*
X94859306Y-103265000D01*
X94681547Y-103265000D01*
X94594465Y-103193533D01*
X94481670Y-103133243D01*
X94359281Y-103096117D01*
X94232000Y-103083581D01*
X92582000Y-103083581D01*
X92454719Y-103096117D01*
X92332330Y-103133243D01*
X92219535Y-103193533D01*
X92120670Y-103274670D01*
X92039533Y-103373535D01*
X91979243Y-103486330D01*
X91942117Y-103608719D01*
X91929581Y-103736000D01*
X91929581Y-104036000D01*
X91942117Y-104163281D01*
X91979243Y-104285670D01*
X92039533Y-104398465D01*
X92120670Y-104497330D01*
X92149512Y-104521000D01*
X92120670Y-104544670D01*
X92039533Y-104643535D01*
X91979243Y-104756330D01*
X91942117Y-104878719D01*
X91929581Y-105006000D01*
X91929581Y-105306000D01*
X91942117Y-105433281D01*
X91979243Y-105555670D01*
X92039533Y-105668465D01*
X92120670Y-105767330D01*
X92149512Y-105791000D01*
X92120670Y-105814670D01*
X92039533Y-105913535D01*
X91979243Y-106026330D01*
X91942117Y-106148719D01*
X91929581Y-106276000D01*
X91929581Y-106576000D01*
X91942117Y-106703281D01*
X91979243Y-106825670D01*
X92039533Y-106938465D01*
X92120670Y-107037330D01*
X92149512Y-107061000D01*
X92137327Y-107071000D01*
X91634693Y-107071000D01*
X91603999Y-107067977D01*
X91573305Y-107071000D01*
X91573296Y-107071000D01*
X91481479Y-107080043D01*
X91363666Y-107115781D01*
X91363664Y-107115782D01*
X91255087Y-107173818D01*
X91226057Y-107197643D01*
X91159920Y-107251920D01*
X91140347Y-107275770D01*
X91118400Y-107297717D01*
X91125000Y-107230704D01*
X91125000Y-107230702D01*
X91128024Y-107200000D01*
X91125000Y-107169299D01*
X91125000Y-104430701D01*
X91128024Y-104400000D01*
X91124687Y-104366117D01*
X91115957Y-104277479D01*
X91080219Y-104159666D01*
X91022183Y-104051089D01*
X90944080Y-103955920D01*
X90920229Y-103936346D01*
X90449658Y-103465776D01*
X90430080Y-103441920D01*
X90334911Y-103363817D01*
X90226334Y-103305781D01*
X90108521Y-103270043D01*
X90016704Y-103261000D01*
X90016694Y-103261000D01*
X89986000Y-103257977D01*
X89955306Y-103261000D01*
X89726673Y-103261000D01*
X89644465Y-103193533D01*
X89531670Y-103133243D01*
X89409281Y-103096117D01*
X89282000Y-103083581D01*
X87632000Y-103083581D01*
X87504719Y-103096117D01*
X87382330Y-103133243D01*
X87269535Y-103193533D01*
X87187327Y-103261000D01*
X86790889Y-103261000D01*
X86773096Y-103202345D01*
X86741204Y-103142679D01*
X88150729Y-101733154D01*
X88174580Y-101713580D01*
X88213773Y-101665823D01*
X88252682Y-101618413D01*
X88310718Y-101509836D01*
X88312004Y-101505597D01*
X88313655Y-101505096D01*
X88441577Y-101436720D01*
X88553702Y-101344702D01*
X88645720Y-101232577D01*
X88658322Y-101209000D01*
X89059295Y-101209000D01*
X89094717Y-101294517D01*
%TA.AperFunction,Conductor*%
D14*
G36*
X89094717Y-101294517D02*
G01*
X89258874Y-101540194D01*
X89467806Y-101749126D01*
X89713483Y-101913283D01*
X89986466Y-102026356D01*
X90276263Y-102084000D01*
X90571737Y-102084000D01*
X90861534Y-102026356D01*
X91134517Y-101913283D01*
X91380194Y-101749126D01*
X91589126Y-101540194D01*
X91753283Y-101294517D01*
X91788705Y-101209000D01*
X92189678Y-101209000D01*
X92202280Y-101232577D01*
X92294298Y-101344702D01*
X92406423Y-101436720D01*
X92448509Y-101459216D01*
X92451543Y-101490021D01*
X92487282Y-101607834D01*
X92545318Y-101716411D01*
X92623421Y-101811580D01*
X92647271Y-101831153D01*
X93036346Y-102220229D01*
X93055920Y-102244080D01*
X93079769Y-102263652D01*
X93151087Y-102322182D01*
X93151089Y-102322183D01*
X93259666Y-102380219D01*
X93377479Y-102415957D01*
X93469296Y-102425000D01*
X93469305Y-102425000D01*
X93499999Y-102428023D01*
X93530693Y-102425000D01*
X95241118Y-102425000D01*
X95387000Y-102570883D01*
X95387000Y-102857678D01*
X95363423Y-102870280D01*
X95251298Y-102962298D01*
X95159280Y-103074423D01*
X95090904Y-103202345D01*
X95071898Y-103265000D01*
X94940693Y-103265000D01*
X94909999Y-103261977D01*
X94900000Y-103262962D01*
X94890000Y-103261977D01*
X94859306Y-103265000D01*
X94681547Y-103265000D01*
X94594465Y-103193533D01*
X94481670Y-103133243D01*
X94359281Y-103096117D01*
X94232000Y-103083581D01*
X92582000Y-103083581D01*
X92454719Y-103096117D01*
X92332330Y-103133243D01*
X92219535Y-103193533D01*
X92120670Y-103274670D01*
X92039533Y-103373535D01*
X91979243Y-103486330D01*
X91942117Y-103608719D01*
X91929581Y-103736000D01*
X91929581Y-104036000D01*
X91942117Y-104163281D01*
X91979243Y-104285670D01*
X92039533Y-104398465D01*
X92120670Y-104497330D01*
X92149512Y-104521000D01*
X92120670Y-104544670D01*
X92039533Y-104643535D01*
X91979243Y-104756330D01*
X91942117Y-104878719D01*
X91929581Y-105006000D01*
X91929581Y-105306000D01*
X91942117Y-105433281D01*
X91979243Y-105555670D01*
X92039533Y-105668465D01*
X92120670Y-105767330D01*
X92149512Y-105791000D01*
X92120670Y-105814670D01*
X92039533Y-105913535D01*
X91979243Y-106026330D01*
X91942117Y-106148719D01*
X91929581Y-106276000D01*
X91929581Y-106576000D01*
X91942117Y-106703281D01*
X91979243Y-106825670D01*
X92039533Y-106938465D01*
X92120670Y-107037330D01*
X92149512Y-107061000D01*
X92137327Y-107071000D01*
X91634693Y-107071000D01*
X91603999Y-107067977D01*
X91573305Y-107071000D01*
X91573296Y-107071000D01*
X91481479Y-107080043D01*
X91363666Y-107115781D01*
X91363664Y-107115782D01*
X91255087Y-107173818D01*
X91226057Y-107197643D01*
X91159920Y-107251920D01*
X91140347Y-107275770D01*
X91118400Y-107297717D01*
X91125000Y-107230704D01*
X91125000Y-107230702D01*
X91128024Y-107200000D01*
X91125000Y-107169299D01*
X91125000Y-104430701D01*
X91128024Y-104400000D01*
X91124687Y-104366117D01*
X91115957Y-104277479D01*
X91080219Y-104159666D01*
X91022183Y-104051089D01*
X90944080Y-103955920D01*
X90920229Y-103936346D01*
X90449658Y-103465776D01*
X90430080Y-103441920D01*
X90334911Y-103363817D01*
X90226334Y-103305781D01*
X90108521Y-103270043D01*
X90016704Y-103261000D01*
X90016694Y-103261000D01*
X89986000Y-103257977D01*
X89955306Y-103261000D01*
X89726673Y-103261000D01*
X89644465Y-103193533D01*
X89531670Y-103133243D01*
X89409281Y-103096117D01*
X89282000Y-103083581D01*
X87632000Y-103083581D01*
X87504719Y-103096117D01*
X87382330Y-103133243D01*
X87269535Y-103193533D01*
X87187327Y-103261000D01*
X86790889Y-103261000D01*
X86773096Y-103202345D01*
X86741204Y-103142679D01*
X88150729Y-101733154D01*
X88174580Y-101713580D01*
X88213773Y-101665823D01*
X88252682Y-101618413D01*
X88310718Y-101509836D01*
X88312004Y-101505597D01*
X88313655Y-101505096D01*
X88441577Y-101436720D01*
X88553702Y-101344702D01*
X88645720Y-101232577D01*
X88658322Y-101209000D01*
X89059295Y-101209000D01*
X89094717Y-101294517D01*
G37*
%TD.AperFunction*%
D13*
X96995342Y-104179224D02*
X97014920Y-104203080D01*
X97110089Y-104281183D01*
X97218666Y-104339219D01*
X97336208Y-104374875D01*
X97359512Y-104394000D01*
X97330670Y-104417670D01*
X97249533Y-104516535D01*
X97189243Y-104629330D01*
X97152117Y-104751719D01*
X97139581Y-104879000D01*
X97139581Y-105179000D01*
X97152117Y-105306281D01*
X97189243Y-105428670D01*
X97249533Y-105541465D01*
X97330670Y-105640330D01*
X97359512Y-105664000D01*
X97332931Y-105685815D01*
X97224255Y-105718781D01*
X97115678Y-105776817D01*
X97020509Y-105854920D01*
X97000935Y-105878771D01*
X96988441Y-105891265D01*
X96987000Y-105660500D01*
X96862000Y-105535500D01*
X96037000Y-105535500D01*
X96037000Y-106423000D01*
X96162000Y-106548000D01*
X96330453Y-106549254D01*
X95825000Y-107054707D01*
X95825000Y-106548275D01*
X95862000Y-106548000D01*
X95987000Y-106423000D01*
X95987000Y-105535500D01*
X95967000Y-105535500D01*
X95967000Y-105485500D01*
X95987000Y-105485500D01*
X95987000Y-105465500D01*
X96037000Y-105465500D01*
X96037000Y-105485500D01*
X96862000Y-105485500D01*
X96987000Y-105360500D01*
X96989419Y-104973000D01*
X96979765Y-104874983D01*
X96951175Y-104780733D01*
X96904746Y-104693871D01*
X96842264Y-104617736D01*
X96796267Y-104579988D01*
X96864720Y-104496577D01*
X96933096Y-104368655D01*
X96975202Y-104229851D01*
X96981547Y-104165429D01*
X96995342Y-104179224D01*
%TA.AperFunction,Conductor*%
D14*
G36*
X96995342Y-104179224D02*
G01*
X97014920Y-104203080D01*
X97110089Y-104281183D01*
X97218666Y-104339219D01*
X97336208Y-104374875D01*
X97359512Y-104394000D01*
X97330670Y-104417670D01*
X97249533Y-104516535D01*
X97189243Y-104629330D01*
X97152117Y-104751719D01*
X97139581Y-104879000D01*
X97139581Y-105179000D01*
X97152117Y-105306281D01*
X97189243Y-105428670D01*
X97249533Y-105541465D01*
X97330670Y-105640330D01*
X97359512Y-105664000D01*
X97332931Y-105685815D01*
X97224255Y-105718781D01*
X97115678Y-105776817D01*
X97020509Y-105854920D01*
X97000935Y-105878771D01*
X96988441Y-105891265D01*
X96987000Y-105660500D01*
X96862000Y-105535500D01*
X96037000Y-105535500D01*
X96037000Y-106423000D01*
X96162000Y-106548000D01*
X96330453Y-106549254D01*
X95825000Y-107054707D01*
X95825000Y-106548275D01*
X95862000Y-106548000D01*
X95987000Y-106423000D01*
X95987000Y-105535500D01*
X95967000Y-105535500D01*
X95967000Y-105485500D01*
X95987000Y-105485500D01*
X95987000Y-105465500D01*
X96037000Y-105465500D01*
X96037000Y-105485500D01*
X96862000Y-105485500D01*
X96987000Y-105360500D01*
X96989419Y-104973000D01*
X96979765Y-104874983D01*
X96951175Y-104780733D01*
X96904746Y-104693871D01*
X96842264Y-104617736D01*
X96796267Y-104579988D01*
X96864720Y-104496577D01*
X96933096Y-104368655D01*
X96975202Y-104229851D01*
X96981547Y-104165429D01*
X96995342Y-104179224D01*
G37*
%TD.AperFunction*%
D13*
X109975001Y-102822285D02*
X109877126Y-102675806D01*
X109668194Y-102466874D01*
X109422517Y-102302717D01*
X109149534Y-102189644D01*
X108859737Y-102132000D01*
X108564263Y-102132000D01*
X108274466Y-102189644D01*
X108001483Y-102302717D01*
X107755806Y-102466874D01*
X107546874Y-102675806D01*
X107382717Y-102921483D01*
X107301483Y-103117601D01*
X107295158Y-103111276D01*
X107275580Y-103087420D01*
X107180411Y-103009317D01*
X107098274Y-102965413D01*
X107093096Y-102948345D01*
X107024720Y-102820423D01*
X107006122Y-102797761D01*
X108000230Y-101803653D01*
X108024080Y-101784080D01*
X108067001Y-101731781D01*
X108102183Y-101688912D01*
X108160218Y-101580335D01*
X108160219Y-101580334D01*
X108195957Y-101462521D01*
X108205000Y-101370704D01*
X108205000Y-101370702D01*
X108208024Y-101340000D01*
X108205000Y-101309298D01*
X108205000Y-99660693D01*
X108208023Y-99629999D01*
X108205000Y-99599305D01*
X108205000Y-99599296D01*
X108195957Y-99507479D01*
X108160219Y-99389666D01*
X108160218Y-99389664D01*
X108102182Y-99281087D01*
X108043652Y-99209769D01*
X108024080Y-99185920D01*
X108000229Y-99166346D01*
X107213658Y-98379776D01*
X107194080Y-98355920D01*
X107098911Y-98277817D01*
X106990334Y-98219781D01*
X106872521Y-98184043D01*
X106780704Y-98175000D01*
X106780694Y-98175000D01*
X106750000Y-98171977D01*
X106719306Y-98175000D01*
X94050693Y-98175000D01*
X94019999Y-98171977D01*
X93989305Y-98175000D01*
X93989296Y-98175000D01*
X93897479Y-98184043D01*
X93779666Y-98219781D01*
X93779664Y-98219782D01*
X93671087Y-98277818D01*
X93599768Y-98336348D01*
X93599765Y-98336351D01*
X93575920Y-98355920D01*
X93556350Y-98379766D01*
X92647276Y-99288842D01*
X92623420Y-99308420D01*
X92545317Y-99403590D01*
X92487281Y-99512167D01*
X92451543Y-99629980D01*
X92443519Y-99711452D01*
X92406423Y-99731280D01*
X92294298Y-99823298D01*
X92202280Y-99935423D01*
X92189678Y-99959000D01*
X91788705Y-99959000D01*
X91753283Y-99873483D01*
X91589126Y-99627806D01*
X91380194Y-99418874D01*
X91134517Y-99254717D01*
X90861534Y-99141644D01*
X90571737Y-99084000D01*
X90276263Y-99084000D01*
X89986466Y-99141644D01*
X89713483Y-99254717D01*
X89467806Y-99418874D01*
X89258874Y-99627806D01*
X89094717Y-99873483D01*
X89059295Y-99959000D01*
X88658322Y-99959000D01*
X88645720Y-99935423D01*
X88553702Y-99823298D01*
X88441577Y-99731280D01*
X88313655Y-99662904D01*
X88174851Y-99620798D01*
X88030500Y-99606581D01*
X87430500Y-99606581D01*
X87286149Y-99620798D01*
X87147345Y-99662904D01*
X87019423Y-99731280D01*
X86936012Y-99799733D01*
X86898264Y-99753736D01*
X86822129Y-99691254D01*
X86735267Y-99644825D01*
X86641017Y-99616235D01*
X86543000Y-99606581D01*
X86155500Y-99609000D01*
X86030500Y-99734000D01*
X86030500Y-100559000D01*
X86050500Y-100559000D01*
X86050500Y-100609000D01*
X86030500Y-100609000D01*
X86030500Y-101434000D01*
X86155500Y-101559000D01*
X86543000Y-101561419D01*
X86555976Y-101560141D01*
X85431776Y-102684342D01*
X85407920Y-102703920D01*
X85329817Y-102799090D01*
X85327100Y-102804173D01*
X85203423Y-102870280D01*
X85091298Y-102962298D01*
X84999280Y-103074423D01*
X84930904Y-103202345D01*
X84913111Y-103261000D01*
X84516673Y-103261000D01*
X84434465Y-103193533D01*
X84321670Y-103133243D01*
X84199281Y-103096117D01*
X84072000Y-103083581D01*
X82422000Y-103083581D01*
X82294719Y-103096117D01*
X82172330Y-103133243D01*
X82059535Y-103193533D01*
X81960670Y-103274670D01*
X81879533Y-103373535D01*
X81819243Y-103486330D01*
X81782117Y-103608719D01*
X81769581Y-103736000D01*
X81769581Y-104036000D01*
X81782117Y-104163281D01*
X81819243Y-104285670D01*
X81879533Y-104398465D01*
X81944659Y-104477820D01*
X81916736Y-104500736D01*
X81854254Y-104576871D01*
X81807825Y-104663733D01*
X81779235Y-104757983D01*
X81769581Y-104856000D01*
X81772000Y-105006000D01*
X81897000Y-105131000D01*
X83222000Y-105131000D01*
X83222000Y-105111000D01*
X83272000Y-105111000D01*
X83272000Y-105131000D01*
X84597000Y-105131000D01*
X84722000Y-105006000D01*
X84724419Y-104856000D01*
X84714765Y-104757983D01*
X84686175Y-104663733D01*
X84639746Y-104576871D01*
X84585687Y-104511000D01*
X85011117Y-104511000D01*
X85067733Y-104579988D01*
X85021736Y-104617736D01*
X84959254Y-104693871D01*
X84912825Y-104780733D01*
X84884235Y-104874983D01*
X84874581Y-104973000D01*
X84877000Y-105360500D01*
X85002000Y-105485500D01*
X85827000Y-105485500D01*
X85827000Y-105465500D01*
X85877000Y-105465500D01*
X85877000Y-105485500D01*
X86702000Y-105485500D01*
X86827000Y-105360500D01*
X86829419Y-104973000D01*
X86819765Y-104874983D01*
X86791175Y-104780733D01*
X86744746Y-104693871D01*
X86682264Y-104617736D01*
X86636267Y-104579988D01*
X86692883Y-104511000D01*
X87187327Y-104511000D01*
X87199512Y-104521000D01*
X87170670Y-104544670D01*
X87089533Y-104643535D01*
X87029243Y-104756330D01*
X86992117Y-104878719D01*
X86979581Y-105006000D01*
X86979581Y-105306000D01*
X86992117Y-105433281D01*
X87029243Y-105555670D01*
X87089533Y-105668465D01*
X87170670Y-105767330D01*
X87199512Y-105791000D01*
X87170670Y-105814670D01*
X87165514Y-105820953D01*
X87083666Y-105845781D01*
X87044872Y-105866517D01*
X86975088Y-105903817D01*
X86903769Y-105962347D01*
X86903765Y-105962351D01*
X86879920Y-105981920D01*
X86860350Y-106005766D01*
X86829349Y-106036767D01*
X86827000Y-105660500D01*
X86702000Y-105535500D01*
X85877000Y-105535500D01*
X85877000Y-106423000D01*
X86002000Y-106548000D01*
X86315782Y-106550336D01*
X86051118Y-106815000D01*
X85298882Y-106815000D01*
X85123658Y-106639776D01*
X85104080Y-106615920D01*
X85008911Y-106537817D01*
X84900334Y-106479781D01*
X84782521Y-106444043D01*
X84724419Y-106438321D01*
X84724419Y-106276000D01*
X84711883Y-106148719D01*
X84681331Y-106048000D01*
X84874581Y-106048000D01*
X84884235Y-106146017D01*
X84912825Y-106240267D01*
X84959254Y-106327129D01*
X85021736Y-106403264D01*
X85097871Y-106465746D01*
X85184733Y-106512175D01*
X85278983Y-106540765D01*
X85377000Y-106550419D01*
X85702000Y-106548000D01*
X85827000Y-106423000D01*
X85827000Y-105535500D01*
X85002000Y-105535500D01*
X84877000Y-105660500D01*
X84874581Y-106048000D01*
X84681331Y-106048000D01*
X84674757Y-106026330D01*
X84614467Y-105913535D01*
X84549341Y-105834180D01*
X84577264Y-105811264D01*
X84639746Y-105735129D01*
X84686175Y-105648267D01*
X84714765Y-105554017D01*
X84724419Y-105456000D01*
X84722000Y-105306000D01*
X84597000Y-105181000D01*
X83272000Y-105181000D01*
X83272000Y-105201000D01*
X83222000Y-105201000D01*
X83222000Y-105181000D01*
X81897000Y-105181000D01*
X81772000Y-105306000D01*
X81769581Y-105456000D01*
X81779235Y-105554017D01*
X81807825Y-105648267D01*
X81854254Y-105735129D01*
X81916736Y-105811264D01*
X81944659Y-105834180D01*
X81879533Y-105913535D01*
X81819243Y-106026330D01*
X81782117Y-106148719D01*
X81770953Y-106262069D01*
X80244658Y-104735776D01*
X80225080Y-104711920D01*
X80129911Y-104633817D01*
X80021334Y-104575781D01*
X79903521Y-104540043D01*
X79811704Y-104531000D01*
X79811694Y-104531000D01*
X79781000Y-104527977D01*
X79750306Y-104531000D01*
X79566673Y-104531000D01*
X79554488Y-104521000D01*
X79583330Y-104497330D01*
X79664467Y-104398465D01*
X79724757Y-104285670D01*
X79761883Y-104163281D01*
X79774419Y-104036000D01*
X79774419Y-103736000D01*
X79761883Y-103608719D01*
X79724757Y-103486330D01*
X79664467Y-103373535D01*
X79583330Y-103274670D01*
X79484465Y-103193533D01*
X79371670Y-103133243D01*
X79249281Y-103096117D01*
X79122000Y-103083581D01*
X77472000Y-103083581D01*
X77344719Y-103096117D01*
X77222330Y-103133243D01*
X77109535Y-103193533D01*
X77027327Y-103261000D01*
X76712884Y-103261000D01*
X75625000Y-102173118D01*
X75625000Y-101948705D01*
X75710517Y-101913283D01*
X75956194Y-101749126D01*
X76126398Y-101578922D01*
X82352433Y-101578922D01*
X82446403Y-101817925D01*
X82703762Y-101963084D01*
X82984496Y-102055247D01*
X83277814Y-102090870D01*
X83572447Y-102068586D01*
X83857070Y-101989249D01*
X84120748Y-101855910D01*
X84177597Y-101817925D01*
X84271567Y-101578922D01*
X83312000Y-100619355D01*
X82352433Y-101578922D01*
X76126398Y-101578922D01*
X76165126Y-101540194D01*
X76329283Y-101294517D01*
X76442356Y-101021534D01*
X76500000Y-100731737D01*
X76500000Y-100549814D01*
X81805130Y-100549814D01*
X81827414Y-100844447D01*
X81906751Y-101129070D01*
X82040090Y-101392748D01*
X82078075Y-101449597D01*
X82317078Y-101543567D01*
X83276645Y-100584000D01*
X83347355Y-100584000D01*
X84306922Y-101543567D01*
X84545925Y-101449597D01*
X84691084Y-101192238D01*
X84734825Y-101059000D01*
X84965581Y-101059000D01*
X84975235Y-101157017D01*
X85003825Y-101251267D01*
X85050254Y-101338129D01*
X85112736Y-101414264D01*
X85188871Y-101476746D01*
X85275733Y-101523175D01*
X85369983Y-101551765D01*
X85468000Y-101561419D01*
X85855500Y-101559000D01*
X85980500Y-101434000D01*
X85980500Y-100609000D01*
X85093000Y-100609000D01*
X84968000Y-100734000D01*
X84965581Y-101059000D01*
X84734825Y-101059000D01*
X84783247Y-100911504D01*
X84818870Y-100618186D01*
X84796586Y-100323553D01*
X84736781Y-100109000D01*
X84965581Y-100109000D01*
X84968000Y-100434000D01*
X85093000Y-100559000D01*
X85980500Y-100559000D01*
X85980500Y-99734000D01*
X85855500Y-99609000D01*
X85468000Y-99606581D01*
X85369983Y-99616235D01*
X85275733Y-99644825D01*
X85188871Y-99691254D01*
X85112736Y-99753736D01*
X85050254Y-99829871D01*
X85003825Y-99916733D01*
X84975235Y-100010983D01*
X84965581Y-100109000D01*
X84736781Y-100109000D01*
X84717249Y-100038930D01*
X84583910Y-99775252D01*
X84545925Y-99718403D01*
X84306922Y-99624433D01*
X83347355Y-100584000D01*
X83276645Y-100584000D01*
X82317078Y-99624433D01*
X82078075Y-99718403D01*
X81932916Y-99975762D01*
X81840753Y-100256496D01*
X81805130Y-100549814D01*
X76500000Y-100549814D01*
X76500000Y-100436263D01*
X76442356Y-100146466D01*
X76329283Y-99873483D01*
X76165126Y-99627806D01*
X76126398Y-99589078D01*
X82352433Y-99589078D01*
X83312000Y-100548645D01*
X84271567Y-99589078D01*
X84177597Y-99350075D01*
X83920238Y-99204916D01*
X83639504Y-99112753D01*
X83346186Y-99077130D01*
X83051553Y-99099414D01*
X82766930Y-99178751D01*
X82503252Y-99312090D01*
X82446403Y-99350075D01*
X82352433Y-99589078D01*
X76126398Y-99589078D01*
X75956194Y-99418874D01*
X75710517Y-99254717D01*
X75437534Y-99141644D01*
X75147737Y-99084000D01*
X74852263Y-99084000D01*
X74562466Y-99141644D01*
X74289483Y-99254717D01*
X74043806Y-99418874D01*
X73834874Y-99627806D01*
X73670717Y-99873483D01*
X73557644Y-100146466D01*
X73525000Y-100310579D01*
X73525000Y-98025000D01*
X109975001Y-98025000D01*
X109975001Y-102822285D01*
%TA.AperFunction,Conductor*%
D14*
G36*
X109975001Y-102822285D02*
G01*
X109877126Y-102675806D01*
X109668194Y-102466874D01*
X109422517Y-102302717D01*
X109149534Y-102189644D01*
X108859737Y-102132000D01*
X108564263Y-102132000D01*
X108274466Y-102189644D01*
X108001483Y-102302717D01*
X107755806Y-102466874D01*
X107546874Y-102675806D01*
X107382717Y-102921483D01*
X107301483Y-103117601D01*
X107295158Y-103111276D01*
X107275580Y-103087420D01*
X107180411Y-103009317D01*
X107098274Y-102965413D01*
X107093096Y-102948345D01*
X107024720Y-102820423D01*
X107006122Y-102797761D01*
X108000230Y-101803653D01*
X108024080Y-101784080D01*
X108067001Y-101731781D01*
X108102183Y-101688912D01*
X108160218Y-101580335D01*
X108160219Y-101580334D01*
X108195957Y-101462521D01*
X108205000Y-101370704D01*
X108205000Y-101370702D01*
X108208024Y-101340000D01*
X108205000Y-101309298D01*
X108205000Y-99660693D01*
X108208023Y-99629999D01*
X108205000Y-99599305D01*
X108205000Y-99599296D01*
X108195957Y-99507479D01*
X108160219Y-99389666D01*
X108160218Y-99389664D01*
X108102182Y-99281087D01*
X108043652Y-99209769D01*
X108024080Y-99185920D01*
X108000229Y-99166346D01*
X107213658Y-98379776D01*
X107194080Y-98355920D01*
X107098911Y-98277817D01*
X106990334Y-98219781D01*
X106872521Y-98184043D01*
X106780704Y-98175000D01*
X106780694Y-98175000D01*
X106750000Y-98171977D01*
X106719306Y-98175000D01*
X94050693Y-98175000D01*
X94019999Y-98171977D01*
X93989305Y-98175000D01*
X93989296Y-98175000D01*
X93897479Y-98184043D01*
X93779666Y-98219781D01*
X93779664Y-98219782D01*
X93671087Y-98277818D01*
X93599768Y-98336348D01*
X93599765Y-98336351D01*
X93575920Y-98355920D01*
X93556350Y-98379766D01*
X92647276Y-99288842D01*
X92623420Y-99308420D01*
X92545317Y-99403590D01*
X92487281Y-99512167D01*
X92451543Y-99629980D01*
X92443519Y-99711452D01*
X92406423Y-99731280D01*
X92294298Y-99823298D01*
X92202280Y-99935423D01*
X92189678Y-99959000D01*
X91788705Y-99959000D01*
X91753283Y-99873483D01*
X91589126Y-99627806D01*
X91380194Y-99418874D01*
X91134517Y-99254717D01*
X90861534Y-99141644D01*
X90571737Y-99084000D01*
X90276263Y-99084000D01*
X89986466Y-99141644D01*
X89713483Y-99254717D01*
X89467806Y-99418874D01*
X89258874Y-99627806D01*
X89094717Y-99873483D01*
X89059295Y-99959000D01*
X88658322Y-99959000D01*
X88645720Y-99935423D01*
X88553702Y-99823298D01*
X88441577Y-99731280D01*
X88313655Y-99662904D01*
X88174851Y-99620798D01*
X88030500Y-99606581D01*
X87430500Y-99606581D01*
X87286149Y-99620798D01*
X87147345Y-99662904D01*
X87019423Y-99731280D01*
X86936012Y-99799733D01*
X86898264Y-99753736D01*
X86822129Y-99691254D01*
X86735267Y-99644825D01*
X86641017Y-99616235D01*
X86543000Y-99606581D01*
X86155500Y-99609000D01*
X86030500Y-99734000D01*
X86030500Y-100559000D01*
X86050500Y-100559000D01*
X86050500Y-100609000D01*
X86030500Y-100609000D01*
X86030500Y-101434000D01*
X86155500Y-101559000D01*
X86543000Y-101561419D01*
X86555976Y-101560141D01*
X85431776Y-102684342D01*
X85407920Y-102703920D01*
X85329817Y-102799090D01*
X85327100Y-102804173D01*
X85203423Y-102870280D01*
X85091298Y-102962298D01*
X84999280Y-103074423D01*
X84930904Y-103202345D01*
X84913111Y-103261000D01*
X84516673Y-103261000D01*
X84434465Y-103193533D01*
X84321670Y-103133243D01*
X84199281Y-103096117D01*
X84072000Y-103083581D01*
X82422000Y-103083581D01*
X82294719Y-103096117D01*
X82172330Y-103133243D01*
X82059535Y-103193533D01*
X81960670Y-103274670D01*
X81879533Y-103373535D01*
X81819243Y-103486330D01*
X81782117Y-103608719D01*
X81769581Y-103736000D01*
X81769581Y-104036000D01*
X81782117Y-104163281D01*
X81819243Y-104285670D01*
X81879533Y-104398465D01*
X81944659Y-104477820D01*
X81916736Y-104500736D01*
X81854254Y-104576871D01*
X81807825Y-104663733D01*
X81779235Y-104757983D01*
X81769581Y-104856000D01*
X81772000Y-105006000D01*
X81897000Y-105131000D01*
X83222000Y-105131000D01*
X83222000Y-105111000D01*
X83272000Y-105111000D01*
X83272000Y-105131000D01*
X84597000Y-105131000D01*
X84722000Y-105006000D01*
X84724419Y-104856000D01*
X84714765Y-104757983D01*
X84686175Y-104663733D01*
X84639746Y-104576871D01*
X84585687Y-104511000D01*
X85011117Y-104511000D01*
X85067733Y-104579988D01*
X85021736Y-104617736D01*
X84959254Y-104693871D01*
X84912825Y-104780733D01*
X84884235Y-104874983D01*
X84874581Y-104973000D01*
X84877000Y-105360500D01*
X85002000Y-105485500D01*
X85827000Y-105485500D01*
X85827000Y-105465500D01*
X85877000Y-105465500D01*
X85877000Y-105485500D01*
X86702000Y-105485500D01*
X86827000Y-105360500D01*
X86829419Y-104973000D01*
X86819765Y-104874983D01*
X86791175Y-104780733D01*
X86744746Y-104693871D01*
X86682264Y-104617736D01*
X86636267Y-104579988D01*
X86692883Y-104511000D01*
X87187327Y-104511000D01*
X87199512Y-104521000D01*
X87170670Y-104544670D01*
X87089533Y-104643535D01*
X87029243Y-104756330D01*
X86992117Y-104878719D01*
X86979581Y-105006000D01*
X86979581Y-105306000D01*
X86992117Y-105433281D01*
X87029243Y-105555670D01*
X87089533Y-105668465D01*
X87170670Y-105767330D01*
X87199512Y-105791000D01*
X87170670Y-105814670D01*
X87165514Y-105820953D01*
X87083666Y-105845781D01*
X87044872Y-105866517D01*
X86975088Y-105903817D01*
X86903769Y-105962347D01*
X86903765Y-105962351D01*
X86879920Y-105981920D01*
X86860350Y-106005766D01*
X86829349Y-106036767D01*
X86827000Y-105660500D01*
X86702000Y-105535500D01*
X85877000Y-105535500D01*
X85877000Y-106423000D01*
X86002000Y-106548000D01*
X86315782Y-106550336D01*
X86051118Y-106815000D01*
X85298882Y-106815000D01*
X85123658Y-106639776D01*
X85104080Y-106615920D01*
X85008911Y-106537817D01*
X84900334Y-106479781D01*
X84782521Y-106444043D01*
X84724419Y-106438321D01*
X84724419Y-106276000D01*
X84711883Y-106148719D01*
X84681331Y-106048000D01*
X84874581Y-106048000D01*
X84884235Y-106146017D01*
X84912825Y-106240267D01*
X84959254Y-106327129D01*
X85021736Y-106403264D01*
X85097871Y-106465746D01*
X85184733Y-106512175D01*
X85278983Y-106540765D01*
X85377000Y-106550419D01*
X85702000Y-106548000D01*
X85827000Y-106423000D01*
X85827000Y-105535500D01*
X85002000Y-105535500D01*
X84877000Y-105660500D01*
X84874581Y-106048000D01*
X84681331Y-106048000D01*
X84674757Y-106026330D01*
X84614467Y-105913535D01*
X84549341Y-105834180D01*
X84577264Y-105811264D01*
X84639746Y-105735129D01*
X84686175Y-105648267D01*
X84714765Y-105554017D01*
X84724419Y-105456000D01*
X84722000Y-105306000D01*
X84597000Y-105181000D01*
X83272000Y-105181000D01*
X83272000Y-105201000D01*
X83222000Y-105201000D01*
X83222000Y-105181000D01*
X81897000Y-105181000D01*
X81772000Y-105306000D01*
X81769581Y-105456000D01*
X81779235Y-105554017D01*
X81807825Y-105648267D01*
X81854254Y-105735129D01*
X81916736Y-105811264D01*
X81944659Y-105834180D01*
X81879533Y-105913535D01*
X81819243Y-106026330D01*
X81782117Y-106148719D01*
X81770953Y-106262069D01*
X80244658Y-104735776D01*
X80225080Y-104711920D01*
X80129911Y-104633817D01*
X80021334Y-104575781D01*
X79903521Y-104540043D01*
X79811704Y-104531000D01*
X79811694Y-104531000D01*
X79781000Y-104527977D01*
X79750306Y-104531000D01*
X79566673Y-104531000D01*
X79554488Y-104521000D01*
X79583330Y-104497330D01*
X79664467Y-104398465D01*
X79724757Y-104285670D01*
X79761883Y-104163281D01*
X79774419Y-104036000D01*
X79774419Y-103736000D01*
X79761883Y-103608719D01*
X79724757Y-103486330D01*
X79664467Y-103373535D01*
X79583330Y-103274670D01*
X79484465Y-103193533D01*
X79371670Y-103133243D01*
X79249281Y-103096117D01*
X79122000Y-103083581D01*
X77472000Y-103083581D01*
X77344719Y-103096117D01*
X77222330Y-103133243D01*
X77109535Y-103193533D01*
X77027327Y-103261000D01*
X76712884Y-103261000D01*
X75625000Y-102173118D01*
X75625000Y-101948705D01*
X75710517Y-101913283D01*
X75956194Y-101749126D01*
X76126398Y-101578922D01*
X82352433Y-101578922D01*
X82446403Y-101817925D01*
X82703762Y-101963084D01*
X82984496Y-102055247D01*
X83277814Y-102090870D01*
X83572447Y-102068586D01*
X83857070Y-101989249D01*
X84120748Y-101855910D01*
X84177597Y-101817925D01*
X84271567Y-101578922D01*
X83312000Y-100619355D01*
X82352433Y-101578922D01*
X76126398Y-101578922D01*
X76165126Y-101540194D01*
X76329283Y-101294517D01*
X76442356Y-101021534D01*
X76500000Y-100731737D01*
X76500000Y-100549814D01*
X81805130Y-100549814D01*
X81827414Y-100844447D01*
X81906751Y-101129070D01*
X82040090Y-101392748D01*
X82078075Y-101449597D01*
X82317078Y-101543567D01*
X83276645Y-100584000D01*
X83347355Y-100584000D01*
X84306922Y-101543567D01*
X84545925Y-101449597D01*
X84691084Y-101192238D01*
X84734825Y-101059000D01*
X84965581Y-101059000D01*
X84975235Y-101157017D01*
X85003825Y-101251267D01*
X85050254Y-101338129D01*
X85112736Y-101414264D01*
X85188871Y-101476746D01*
X85275733Y-101523175D01*
X85369983Y-101551765D01*
X85468000Y-101561419D01*
X85855500Y-101559000D01*
X85980500Y-101434000D01*
X85980500Y-100609000D01*
X85093000Y-100609000D01*
X84968000Y-100734000D01*
X84965581Y-101059000D01*
X84734825Y-101059000D01*
X84783247Y-100911504D01*
X84818870Y-100618186D01*
X84796586Y-100323553D01*
X84736781Y-100109000D01*
X84965581Y-100109000D01*
X84968000Y-100434000D01*
X85093000Y-100559000D01*
X85980500Y-100559000D01*
X85980500Y-99734000D01*
X85855500Y-99609000D01*
X85468000Y-99606581D01*
X85369983Y-99616235D01*
X85275733Y-99644825D01*
X85188871Y-99691254D01*
X85112736Y-99753736D01*
X85050254Y-99829871D01*
X85003825Y-99916733D01*
X84975235Y-100010983D01*
X84965581Y-100109000D01*
X84736781Y-100109000D01*
X84717249Y-100038930D01*
X84583910Y-99775252D01*
X84545925Y-99718403D01*
X84306922Y-99624433D01*
X83347355Y-100584000D01*
X83276645Y-100584000D01*
X82317078Y-99624433D01*
X82078075Y-99718403D01*
X81932916Y-99975762D01*
X81840753Y-100256496D01*
X81805130Y-100549814D01*
X76500000Y-100549814D01*
X76500000Y-100436263D01*
X76442356Y-100146466D01*
X76329283Y-99873483D01*
X76165126Y-99627806D01*
X76126398Y-99589078D01*
X82352433Y-99589078D01*
X83312000Y-100548645D01*
X84271567Y-99589078D01*
X84177597Y-99350075D01*
X83920238Y-99204916D01*
X83639504Y-99112753D01*
X83346186Y-99077130D01*
X83051553Y-99099414D01*
X82766930Y-99178751D01*
X82503252Y-99312090D01*
X82446403Y-99350075D01*
X82352433Y-99589078D01*
X76126398Y-99589078D01*
X75956194Y-99418874D01*
X75710517Y-99254717D01*
X75437534Y-99141644D01*
X75147737Y-99084000D01*
X74852263Y-99084000D01*
X74562466Y-99141644D01*
X74289483Y-99254717D01*
X74043806Y-99418874D01*
X73834874Y-99627806D01*
X73670717Y-99873483D01*
X73557644Y-100146466D01*
X73525000Y-100310579D01*
X73525000Y-98025000D01*
X109975001Y-98025000D01*
X109975001Y-102822285D01*
G37*
%TD.AperFunction*%
%TD*%
M02*
