%TF.GenerationSoftware,KiCad,Pcbnew,(5.1.7)-1*%
%TF.CreationDate,2021-03-16T22:27:35+01:00*%
%TF.ProjectId,sk-1_octave,736b2d31-5f6f-4637-9461-76652e6b6963,rev?*%
%TF.SameCoordinates,Original*%
%TF.FileFunction,Soldermask,Top*%
%TF.FilePolarity,Negative*%
%FSLAX46Y46*%
G04 Gerber Fmt 4.6, Leading zero omitted, Abs format (unit mm)*
G04 Created by KiCad (PCBNEW (5.1.7)-1) date 2021-03-16 22:27:35*
%MOMM*%
%LPD*%
G01*
G04 APERTURE LIST*
%ADD10C,2.000000*%
G04 APERTURE END LIST*
%TO.C,R4*%
G36*
G01*
X106442500Y-111931000D02*
X106917500Y-111931000D01*
G75*
G02*
X107155000Y-112168500I0J-237500D01*
G01*
X107155000Y-112668500D01*
G75*
G02*
X106917500Y-112906000I-237500J0D01*
G01*
X106442500Y-112906000D01*
G75*
G02*
X106205000Y-112668500I0J237500D01*
G01*
X106205000Y-112168500D01*
G75*
G02*
X106442500Y-111931000I237500J0D01*
G01*
G37*
G36*
G01*
X106442500Y-110106000D02*
X106917500Y-110106000D01*
G75*
G02*
X107155000Y-110343500I0J-237500D01*
G01*
X107155000Y-110843500D01*
G75*
G02*
X106917500Y-111081000I-237500J0D01*
G01*
X106442500Y-111081000D01*
G75*
G02*
X106205000Y-110843500I0J237500D01*
G01*
X106205000Y-110343500D01*
G75*
G02*
X106442500Y-110106000I237500J0D01*
G01*
G37*
%TD*%
%TO.C,R3*%
G36*
G01*
X106917500Y-107525000D02*
X106442500Y-107525000D01*
G75*
G02*
X106205000Y-107287500I0J237500D01*
G01*
X106205000Y-106787500D01*
G75*
G02*
X106442500Y-106550000I237500J0D01*
G01*
X106917500Y-106550000D01*
G75*
G02*
X107155000Y-106787500I0J-237500D01*
G01*
X107155000Y-107287500D01*
G75*
G02*
X106917500Y-107525000I-237500J0D01*
G01*
G37*
G36*
G01*
X106917500Y-109350000D02*
X106442500Y-109350000D01*
G75*
G02*
X106205000Y-109112500I0J237500D01*
G01*
X106205000Y-108612500D01*
G75*
G02*
X106442500Y-108375000I237500J0D01*
G01*
X106917500Y-108375000D01*
G75*
G02*
X107155000Y-108612500I0J-237500D01*
G01*
X107155000Y-109112500D01*
G75*
G02*
X106917500Y-109350000I-237500J0D01*
G01*
G37*
%TD*%
%TO.C,R2*%
G36*
G01*
X108220500Y-108375000D02*
X108695500Y-108375000D01*
G75*
G02*
X108933000Y-108612500I0J-237500D01*
G01*
X108933000Y-109112500D01*
G75*
G02*
X108695500Y-109350000I-237500J0D01*
G01*
X108220500Y-109350000D01*
G75*
G02*
X107983000Y-109112500I0J237500D01*
G01*
X107983000Y-108612500D01*
G75*
G02*
X108220500Y-108375000I237500J0D01*
G01*
G37*
G36*
G01*
X108220500Y-106550000D02*
X108695500Y-106550000D01*
G75*
G02*
X108933000Y-106787500I0J-237500D01*
G01*
X108933000Y-107287500D01*
G75*
G02*
X108695500Y-107525000I-237500J0D01*
G01*
X108220500Y-107525000D01*
G75*
G02*
X107983000Y-107287500I0J237500D01*
G01*
X107983000Y-106787500D01*
G75*
G02*
X108220500Y-106550000I237500J0D01*
G01*
G37*
%TD*%
%TO.C,C6*%
G36*
G01*
X101417000Y-100821500D02*
X101417000Y-100346500D01*
G75*
G02*
X101654500Y-100109000I237500J0D01*
G01*
X102254500Y-100109000D01*
G75*
G02*
X102492000Y-100346500I0J-237500D01*
G01*
X102492000Y-100821500D01*
G75*
G02*
X102254500Y-101059000I-237500J0D01*
G01*
X101654500Y-101059000D01*
G75*
G02*
X101417000Y-100821500I0J237500D01*
G01*
G37*
G36*
G01*
X99692000Y-100821500D02*
X99692000Y-100346500D01*
G75*
G02*
X99929500Y-100109000I237500J0D01*
G01*
X100529500Y-100109000D01*
G75*
G02*
X100767000Y-100346500I0J-237500D01*
G01*
X100767000Y-100821500D01*
G75*
G02*
X100529500Y-101059000I-237500J0D01*
G01*
X99929500Y-101059000D01*
G75*
G02*
X99692000Y-100821500I0J237500D01*
G01*
G37*
%TD*%
%TO.C,C5*%
G36*
G01*
X95774500Y-104973000D02*
X96249500Y-104973000D01*
G75*
G02*
X96487000Y-105210500I0J-237500D01*
G01*
X96487000Y-105810500D01*
G75*
G02*
X96249500Y-106048000I-237500J0D01*
G01*
X95774500Y-106048000D01*
G75*
G02*
X95537000Y-105810500I0J237500D01*
G01*
X95537000Y-105210500D01*
G75*
G02*
X95774500Y-104973000I237500J0D01*
G01*
G37*
G36*
G01*
X95774500Y-103248000D02*
X96249500Y-103248000D01*
G75*
G02*
X96487000Y-103485500I0J-237500D01*
G01*
X96487000Y-104085500D01*
G75*
G02*
X96249500Y-104323000I-237500J0D01*
G01*
X95774500Y-104323000D01*
G75*
G02*
X95537000Y-104085500I0J237500D01*
G01*
X95537000Y-103485500D01*
G75*
G02*
X95774500Y-103248000I237500J0D01*
G01*
G37*
%TD*%
%TO.C,U3*%
G36*
G01*
X102592000Y-103909000D02*
X102592000Y-103609000D01*
G75*
G02*
X102742000Y-103459000I150000J0D01*
G01*
X104392000Y-103459000D01*
G75*
G02*
X104542000Y-103609000I0J-150000D01*
G01*
X104542000Y-103909000D01*
G75*
G02*
X104392000Y-104059000I-150000J0D01*
G01*
X102742000Y-104059000D01*
G75*
G02*
X102592000Y-103909000I0J150000D01*
G01*
G37*
G36*
G01*
X102592000Y-105179000D02*
X102592000Y-104879000D01*
G75*
G02*
X102742000Y-104729000I150000J0D01*
G01*
X104392000Y-104729000D01*
G75*
G02*
X104542000Y-104879000I0J-150000D01*
G01*
X104542000Y-105179000D01*
G75*
G02*
X104392000Y-105329000I-150000J0D01*
G01*
X102742000Y-105329000D01*
G75*
G02*
X102592000Y-105179000I0J150000D01*
G01*
G37*
G36*
G01*
X102592000Y-106449000D02*
X102592000Y-106149000D01*
G75*
G02*
X102742000Y-105999000I150000J0D01*
G01*
X104392000Y-105999000D01*
G75*
G02*
X104542000Y-106149000I0J-150000D01*
G01*
X104542000Y-106449000D01*
G75*
G02*
X104392000Y-106599000I-150000J0D01*
G01*
X102742000Y-106599000D01*
G75*
G02*
X102592000Y-106449000I0J150000D01*
G01*
G37*
G36*
G01*
X102592000Y-107719000D02*
X102592000Y-107419000D01*
G75*
G02*
X102742000Y-107269000I150000J0D01*
G01*
X104392000Y-107269000D01*
G75*
G02*
X104542000Y-107419000I0J-150000D01*
G01*
X104542000Y-107719000D01*
G75*
G02*
X104392000Y-107869000I-150000J0D01*
G01*
X102742000Y-107869000D01*
G75*
G02*
X102592000Y-107719000I0J150000D01*
G01*
G37*
G36*
G01*
X102592000Y-108989000D02*
X102592000Y-108689000D01*
G75*
G02*
X102742000Y-108539000I150000J0D01*
G01*
X104392000Y-108539000D01*
G75*
G02*
X104542000Y-108689000I0J-150000D01*
G01*
X104542000Y-108989000D01*
G75*
G02*
X104392000Y-109139000I-150000J0D01*
G01*
X102742000Y-109139000D01*
G75*
G02*
X102592000Y-108989000I0J150000D01*
G01*
G37*
G36*
G01*
X102592000Y-110259000D02*
X102592000Y-109959000D01*
G75*
G02*
X102742000Y-109809000I150000J0D01*
G01*
X104392000Y-109809000D01*
G75*
G02*
X104542000Y-109959000I0J-150000D01*
G01*
X104542000Y-110259000D01*
G75*
G02*
X104392000Y-110409000I-150000J0D01*
G01*
X102742000Y-110409000D01*
G75*
G02*
X102592000Y-110259000I0J150000D01*
G01*
G37*
G36*
G01*
X102592000Y-111529000D02*
X102592000Y-111229000D01*
G75*
G02*
X102742000Y-111079000I150000J0D01*
G01*
X104392000Y-111079000D01*
G75*
G02*
X104542000Y-111229000I0J-150000D01*
G01*
X104542000Y-111529000D01*
G75*
G02*
X104392000Y-111679000I-150000J0D01*
G01*
X102742000Y-111679000D01*
G75*
G02*
X102592000Y-111529000I0J150000D01*
G01*
G37*
G36*
G01*
X102592000Y-112799000D02*
X102592000Y-112499000D01*
G75*
G02*
X102742000Y-112349000I150000J0D01*
G01*
X104392000Y-112349000D01*
G75*
G02*
X104542000Y-112499000I0J-150000D01*
G01*
X104542000Y-112799000D01*
G75*
G02*
X104392000Y-112949000I-150000J0D01*
G01*
X102742000Y-112949000D01*
G75*
G02*
X102592000Y-112799000I0J150000D01*
G01*
G37*
G36*
G01*
X97642000Y-112799000D02*
X97642000Y-112499000D01*
G75*
G02*
X97792000Y-112349000I150000J0D01*
G01*
X99442000Y-112349000D01*
G75*
G02*
X99592000Y-112499000I0J-150000D01*
G01*
X99592000Y-112799000D01*
G75*
G02*
X99442000Y-112949000I-150000J0D01*
G01*
X97792000Y-112949000D01*
G75*
G02*
X97642000Y-112799000I0J150000D01*
G01*
G37*
G36*
G01*
X97642000Y-111529000D02*
X97642000Y-111229000D01*
G75*
G02*
X97792000Y-111079000I150000J0D01*
G01*
X99442000Y-111079000D01*
G75*
G02*
X99592000Y-111229000I0J-150000D01*
G01*
X99592000Y-111529000D01*
G75*
G02*
X99442000Y-111679000I-150000J0D01*
G01*
X97792000Y-111679000D01*
G75*
G02*
X97642000Y-111529000I0J150000D01*
G01*
G37*
G36*
G01*
X97642000Y-110259000D02*
X97642000Y-109959000D01*
G75*
G02*
X97792000Y-109809000I150000J0D01*
G01*
X99442000Y-109809000D01*
G75*
G02*
X99592000Y-109959000I0J-150000D01*
G01*
X99592000Y-110259000D01*
G75*
G02*
X99442000Y-110409000I-150000J0D01*
G01*
X97792000Y-110409000D01*
G75*
G02*
X97642000Y-110259000I0J150000D01*
G01*
G37*
G36*
G01*
X97642000Y-108989000D02*
X97642000Y-108689000D01*
G75*
G02*
X97792000Y-108539000I150000J0D01*
G01*
X99442000Y-108539000D01*
G75*
G02*
X99592000Y-108689000I0J-150000D01*
G01*
X99592000Y-108989000D01*
G75*
G02*
X99442000Y-109139000I-150000J0D01*
G01*
X97792000Y-109139000D01*
G75*
G02*
X97642000Y-108989000I0J150000D01*
G01*
G37*
G36*
G01*
X97642000Y-107719000D02*
X97642000Y-107419000D01*
G75*
G02*
X97792000Y-107269000I150000J0D01*
G01*
X99442000Y-107269000D01*
G75*
G02*
X99592000Y-107419000I0J-150000D01*
G01*
X99592000Y-107719000D01*
G75*
G02*
X99442000Y-107869000I-150000J0D01*
G01*
X97792000Y-107869000D01*
G75*
G02*
X97642000Y-107719000I0J150000D01*
G01*
G37*
G36*
G01*
X97642000Y-106449000D02*
X97642000Y-106149000D01*
G75*
G02*
X97792000Y-105999000I150000J0D01*
G01*
X99442000Y-105999000D01*
G75*
G02*
X99592000Y-106149000I0J-150000D01*
G01*
X99592000Y-106449000D01*
G75*
G02*
X99442000Y-106599000I-150000J0D01*
G01*
X97792000Y-106599000D01*
G75*
G02*
X97642000Y-106449000I0J150000D01*
G01*
G37*
G36*
G01*
X97642000Y-105179000D02*
X97642000Y-104879000D01*
G75*
G02*
X97792000Y-104729000I150000J0D01*
G01*
X99442000Y-104729000D01*
G75*
G02*
X99592000Y-104879000I0J-150000D01*
G01*
X99592000Y-105179000D01*
G75*
G02*
X99442000Y-105329000I-150000J0D01*
G01*
X97792000Y-105329000D01*
G75*
G02*
X97642000Y-105179000I0J150000D01*
G01*
G37*
G36*
G01*
X97642000Y-103909000D02*
X97642000Y-103609000D01*
G75*
G02*
X97792000Y-103459000I150000J0D01*
G01*
X99442000Y-103459000D01*
G75*
G02*
X99592000Y-103609000I0J-150000D01*
G01*
X99592000Y-103909000D01*
G75*
G02*
X99442000Y-104059000I-150000J0D01*
G01*
X97792000Y-104059000D01*
G75*
G02*
X97642000Y-103909000I0J150000D01*
G01*
G37*
%TD*%
%TO.C,U2*%
G36*
G01*
X92432000Y-104036000D02*
X92432000Y-103736000D01*
G75*
G02*
X92582000Y-103586000I150000J0D01*
G01*
X94232000Y-103586000D01*
G75*
G02*
X94382000Y-103736000I0J-150000D01*
G01*
X94382000Y-104036000D01*
G75*
G02*
X94232000Y-104186000I-150000J0D01*
G01*
X92582000Y-104186000D01*
G75*
G02*
X92432000Y-104036000I0J150000D01*
G01*
G37*
G36*
G01*
X92432000Y-105306000D02*
X92432000Y-105006000D01*
G75*
G02*
X92582000Y-104856000I150000J0D01*
G01*
X94232000Y-104856000D01*
G75*
G02*
X94382000Y-105006000I0J-150000D01*
G01*
X94382000Y-105306000D01*
G75*
G02*
X94232000Y-105456000I-150000J0D01*
G01*
X92582000Y-105456000D01*
G75*
G02*
X92432000Y-105306000I0J150000D01*
G01*
G37*
G36*
G01*
X92432000Y-106576000D02*
X92432000Y-106276000D01*
G75*
G02*
X92582000Y-106126000I150000J0D01*
G01*
X94232000Y-106126000D01*
G75*
G02*
X94382000Y-106276000I0J-150000D01*
G01*
X94382000Y-106576000D01*
G75*
G02*
X94232000Y-106726000I-150000J0D01*
G01*
X92582000Y-106726000D01*
G75*
G02*
X92432000Y-106576000I0J150000D01*
G01*
G37*
G36*
G01*
X92432000Y-107846000D02*
X92432000Y-107546000D01*
G75*
G02*
X92582000Y-107396000I150000J0D01*
G01*
X94232000Y-107396000D01*
G75*
G02*
X94382000Y-107546000I0J-150000D01*
G01*
X94382000Y-107846000D01*
G75*
G02*
X94232000Y-107996000I-150000J0D01*
G01*
X92582000Y-107996000D01*
G75*
G02*
X92432000Y-107846000I0J150000D01*
G01*
G37*
G36*
G01*
X92432000Y-109116000D02*
X92432000Y-108816000D01*
G75*
G02*
X92582000Y-108666000I150000J0D01*
G01*
X94232000Y-108666000D01*
G75*
G02*
X94382000Y-108816000I0J-150000D01*
G01*
X94382000Y-109116000D01*
G75*
G02*
X94232000Y-109266000I-150000J0D01*
G01*
X92582000Y-109266000D01*
G75*
G02*
X92432000Y-109116000I0J150000D01*
G01*
G37*
G36*
G01*
X92432000Y-110386000D02*
X92432000Y-110086000D01*
G75*
G02*
X92582000Y-109936000I150000J0D01*
G01*
X94232000Y-109936000D01*
G75*
G02*
X94382000Y-110086000I0J-150000D01*
G01*
X94382000Y-110386000D01*
G75*
G02*
X94232000Y-110536000I-150000J0D01*
G01*
X92582000Y-110536000D01*
G75*
G02*
X92432000Y-110386000I0J150000D01*
G01*
G37*
G36*
G01*
X92432000Y-111656000D02*
X92432000Y-111356000D01*
G75*
G02*
X92582000Y-111206000I150000J0D01*
G01*
X94232000Y-111206000D01*
G75*
G02*
X94382000Y-111356000I0J-150000D01*
G01*
X94382000Y-111656000D01*
G75*
G02*
X94232000Y-111806000I-150000J0D01*
G01*
X92582000Y-111806000D01*
G75*
G02*
X92432000Y-111656000I0J150000D01*
G01*
G37*
G36*
G01*
X87482000Y-111656000D02*
X87482000Y-111356000D01*
G75*
G02*
X87632000Y-111206000I150000J0D01*
G01*
X89282000Y-111206000D01*
G75*
G02*
X89432000Y-111356000I0J-150000D01*
G01*
X89432000Y-111656000D01*
G75*
G02*
X89282000Y-111806000I-150000J0D01*
G01*
X87632000Y-111806000D01*
G75*
G02*
X87482000Y-111656000I0J150000D01*
G01*
G37*
G36*
G01*
X87482000Y-110386000D02*
X87482000Y-110086000D01*
G75*
G02*
X87632000Y-109936000I150000J0D01*
G01*
X89282000Y-109936000D01*
G75*
G02*
X89432000Y-110086000I0J-150000D01*
G01*
X89432000Y-110386000D01*
G75*
G02*
X89282000Y-110536000I-150000J0D01*
G01*
X87632000Y-110536000D01*
G75*
G02*
X87482000Y-110386000I0J150000D01*
G01*
G37*
G36*
G01*
X87482000Y-109116000D02*
X87482000Y-108816000D01*
G75*
G02*
X87632000Y-108666000I150000J0D01*
G01*
X89282000Y-108666000D01*
G75*
G02*
X89432000Y-108816000I0J-150000D01*
G01*
X89432000Y-109116000D01*
G75*
G02*
X89282000Y-109266000I-150000J0D01*
G01*
X87632000Y-109266000D01*
G75*
G02*
X87482000Y-109116000I0J150000D01*
G01*
G37*
G36*
G01*
X87482000Y-107846000D02*
X87482000Y-107546000D01*
G75*
G02*
X87632000Y-107396000I150000J0D01*
G01*
X89282000Y-107396000D01*
G75*
G02*
X89432000Y-107546000I0J-150000D01*
G01*
X89432000Y-107846000D01*
G75*
G02*
X89282000Y-107996000I-150000J0D01*
G01*
X87632000Y-107996000D01*
G75*
G02*
X87482000Y-107846000I0J150000D01*
G01*
G37*
G36*
G01*
X87482000Y-106576000D02*
X87482000Y-106276000D01*
G75*
G02*
X87632000Y-106126000I150000J0D01*
G01*
X89282000Y-106126000D01*
G75*
G02*
X89432000Y-106276000I0J-150000D01*
G01*
X89432000Y-106576000D01*
G75*
G02*
X89282000Y-106726000I-150000J0D01*
G01*
X87632000Y-106726000D01*
G75*
G02*
X87482000Y-106576000I0J150000D01*
G01*
G37*
G36*
G01*
X87482000Y-105306000D02*
X87482000Y-105006000D01*
G75*
G02*
X87632000Y-104856000I150000J0D01*
G01*
X89282000Y-104856000D01*
G75*
G02*
X89432000Y-105006000I0J-150000D01*
G01*
X89432000Y-105306000D01*
G75*
G02*
X89282000Y-105456000I-150000J0D01*
G01*
X87632000Y-105456000D01*
G75*
G02*
X87482000Y-105306000I0J150000D01*
G01*
G37*
G36*
G01*
X87482000Y-104036000D02*
X87482000Y-103736000D01*
G75*
G02*
X87632000Y-103586000I150000J0D01*
G01*
X89282000Y-103586000D01*
G75*
G02*
X89432000Y-103736000I0J-150000D01*
G01*
X89432000Y-104036000D01*
G75*
G02*
X89282000Y-104186000I-150000J0D01*
G01*
X87632000Y-104186000D01*
G75*
G02*
X87482000Y-104036000I0J150000D01*
G01*
G37*
%TD*%
%TO.C,U1*%
G36*
G01*
X82272000Y-104036000D02*
X82272000Y-103736000D01*
G75*
G02*
X82422000Y-103586000I150000J0D01*
G01*
X84072000Y-103586000D01*
G75*
G02*
X84222000Y-103736000I0J-150000D01*
G01*
X84222000Y-104036000D01*
G75*
G02*
X84072000Y-104186000I-150000J0D01*
G01*
X82422000Y-104186000D01*
G75*
G02*
X82272000Y-104036000I0J150000D01*
G01*
G37*
G36*
G01*
X82272000Y-105306000D02*
X82272000Y-105006000D01*
G75*
G02*
X82422000Y-104856000I150000J0D01*
G01*
X84072000Y-104856000D01*
G75*
G02*
X84222000Y-105006000I0J-150000D01*
G01*
X84222000Y-105306000D01*
G75*
G02*
X84072000Y-105456000I-150000J0D01*
G01*
X82422000Y-105456000D01*
G75*
G02*
X82272000Y-105306000I0J150000D01*
G01*
G37*
G36*
G01*
X82272000Y-106576000D02*
X82272000Y-106276000D01*
G75*
G02*
X82422000Y-106126000I150000J0D01*
G01*
X84072000Y-106126000D01*
G75*
G02*
X84222000Y-106276000I0J-150000D01*
G01*
X84222000Y-106576000D01*
G75*
G02*
X84072000Y-106726000I-150000J0D01*
G01*
X82422000Y-106726000D01*
G75*
G02*
X82272000Y-106576000I0J150000D01*
G01*
G37*
G36*
G01*
X82272000Y-107846000D02*
X82272000Y-107546000D01*
G75*
G02*
X82422000Y-107396000I150000J0D01*
G01*
X84072000Y-107396000D01*
G75*
G02*
X84222000Y-107546000I0J-150000D01*
G01*
X84222000Y-107846000D01*
G75*
G02*
X84072000Y-107996000I-150000J0D01*
G01*
X82422000Y-107996000D01*
G75*
G02*
X82272000Y-107846000I0J150000D01*
G01*
G37*
G36*
G01*
X82272000Y-109116000D02*
X82272000Y-108816000D01*
G75*
G02*
X82422000Y-108666000I150000J0D01*
G01*
X84072000Y-108666000D01*
G75*
G02*
X84222000Y-108816000I0J-150000D01*
G01*
X84222000Y-109116000D01*
G75*
G02*
X84072000Y-109266000I-150000J0D01*
G01*
X82422000Y-109266000D01*
G75*
G02*
X82272000Y-109116000I0J150000D01*
G01*
G37*
G36*
G01*
X82272000Y-110386000D02*
X82272000Y-110086000D01*
G75*
G02*
X82422000Y-109936000I150000J0D01*
G01*
X84072000Y-109936000D01*
G75*
G02*
X84222000Y-110086000I0J-150000D01*
G01*
X84222000Y-110386000D01*
G75*
G02*
X84072000Y-110536000I-150000J0D01*
G01*
X82422000Y-110536000D01*
G75*
G02*
X82272000Y-110386000I0J150000D01*
G01*
G37*
G36*
G01*
X82272000Y-111656000D02*
X82272000Y-111356000D01*
G75*
G02*
X82422000Y-111206000I150000J0D01*
G01*
X84072000Y-111206000D01*
G75*
G02*
X84222000Y-111356000I0J-150000D01*
G01*
X84222000Y-111656000D01*
G75*
G02*
X84072000Y-111806000I-150000J0D01*
G01*
X82422000Y-111806000D01*
G75*
G02*
X82272000Y-111656000I0J150000D01*
G01*
G37*
G36*
G01*
X77322000Y-111656000D02*
X77322000Y-111356000D01*
G75*
G02*
X77472000Y-111206000I150000J0D01*
G01*
X79122000Y-111206000D01*
G75*
G02*
X79272000Y-111356000I0J-150000D01*
G01*
X79272000Y-111656000D01*
G75*
G02*
X79122000Y-111806000I-150000J0D01*
G01*
X77472000Y-111806000D01*
G75*
G02*
X77322000Y-111656000I0J150000D01*
G01*
G37*
G36*
G01*
X77322000Y-110386000D02*
X77322000Y-110086000D01*
G75*
G02*
X77472000Y-109936000I150000J0D01*
G01*
X79122000Y-109936000D01*
G75*
G02*
X79272000Y-110086000I0J-150000D01*
G01*
X79272000Y-110386000D01*
G75*
G02*
X79122000Y-110536000I-150000J0D01*
G01*
X77472000Y-110536000D01*
G75*
G02*
X77322000Y-110386000I0J150000D01*
G01*
G37*
G36*
G01*
X77322000Y-109116000D02*
X77322000Y-108816000D01*
G75*
G02*
X77472000Y-108666000I150000J0D01*
G01*
X79122000Y-108666000D01*
G75*
G02*
X79272000Y-108816000I0J-150000D01*
G01*
X79272000Y-109116000D01*
G75*
G02*
X79122000Y-109266000I-150000J0D01*
G01*
X77472000Y-109266000D01*
G75*
G02*
X77322000Y-109116000I0J150000D01*
G01*
G37*
G36*
G01*
X77322000Y-107846000D02*
X77322000Y-107546000D01*
G75*
G02*
X77472000Y-107396000I150000J0D01*
G01*
X79122000Y-107396000D01*
G75*
G02*
X79272000Y-107546000I0J-150000D01*
G01*
X79272000Y-107846000D01*
G75*
G02*
X79122000Y-107996000I-150000J0D01*
G01*
X77472000Y-107996000D01*
G75*
G02*
X77322000Y-107846000I0J150000D01*
G01*
G37*
G36*
G01*
X77322000Y-106576000D02*
X77322000Y-106276000D01*
G75*
G02*
X77472000Y-106126000I150000J0D01*
G01*
X79122000Y-106126000D01*
G75*
G02*
X79272000Y-106276000I0J-150000D01*
G01*
X79272000Y-106576000D01*
G75*
G02*
X79122000Y-106726000I-150000J0D01*
G01*
X77472000Y-106726000D01*
G75*
G02*
X77322000Y-106576000I0J150000D01*
G01*
G37*
G36*
G01*
X77322000Y-105306000D02*
X77322000Y-105006000D01*
G75*
G02*
X77472000Y-104856000I150000J0D01*
G01*
X79122000Y-104856000D01*
G75*
G02*
X79272000Y-105006000I0J-150000D01*
G01*
X79272000Y-105306000D01*
G75*
G02*
X79122000Y-105456000I-150000J0D01*
G01*
X77472000Y-105456000D01*
G75*
G02*
X77322000Y-105306000I0J150000D01*
G01*
G37*
G36*
G01*
X77322000Y-104036000D02*
X77322000Y-103736000D01*
G75*
G02*
X77472000Y-103586000I150000J0D01*
G01*
X79122000Y-103586000D01*
G75*
G02*
X79272000Y-103736000I0J-150000D01*
G01*
X79272000Y-104036000D01*
G75*
G02*
X79122000Y-104186000I-150000J0D01*
G01*
X77472000Y-104186000D01*
G75*
G02*
X77322000Y-104036000I0J150000D01*
G01*
G37*
%TD*%
D10*
%TO.C,TP7*%
X83312000Y-100584000D03*
%TD*%
%TO.C,TP6*%
X90424000Y-100584000D03*
%TD*%
%TO.C,TP5*%
X104648000Y-100584000D03*
%TD*%
%TO.C,TP4*%
X97536000Y-100584000D03*
%TD*%
%TO.C,TP3*%
X75000000Y-105156000D03*
%TD*%
%TO.C,TP2*%
X75000000Y-100584000D03*
%TD*%
%TO.C,TP1*%
X108712000Y-103632000D03*
%TD*%
%TO.C,R1*%
G36*
G01*
X94405000Y-100821500D02*
X94405000Y-100346500D01*
G75*
G02*
X94642500Y-100109000I237500J0D01*
G01*
X95142500Y-100109000D01*
G75*
G02*
X95380000Y-100346500I0J-237500D01*
G01*
X95380000Y-100821500D01*
G75*
G02*
X95142500Y-101059000I-237500J0D01*
G01*
X94642500Y-101059000D01*
G75*
G02*
X94405000Y-100821500I0J237500D01*
G01*
G37*
G36*
G01*
X92580000Y-100821500D02*
X92580000Y-100346500D01*
G75*
G02*
X92817500Y-100109000I237500J0D01*
G01*
X93317500Y-100109000D01*
G75*
G02*
X93555000Y-100346500I0J-237500D01*
G01*
X93555000Y-100821500D01*
G75*
G02*
X93317500Y-101059000I-237500J0D01*
G01*
X92817500Y-101059000D01*
G75*
G02*
X92580000Y-100821500I0J237500D01*
G01*
G37*
%TD*%
%TO.C,C4*%
G36*
G01*
X105934500Y-104719000D02*
X106409500Y-104719000D01*
G75*
G02*
X106647000Y-104956500I0J-237500D01*
G01*
X106647000Y-105556500D01*
G75*
G02*
X106409500Y-105794000I-237500J0D01*
G01*
X105934500Y-105794000D01*
G75*
G02*
X105697000Y-105556500I0J237500D01*
G01*
X105697000Y-104956500D01*
G75*
G02*
X105934500Y-104719000I237500J0D01*
G01*
G37*
G36*
G01*
X105934500Y-102994000D02*
X106409500Y-102994000D01*
G75*
G02*
X106647000Y-103231500I0J-237500D01*
G01*
X106647000Y-103831500D01*
G75*
G02*
X106409500Y-104069000I-237500J0D01*
G01*
X105934500Y-104069000D01*
G75*
G02*
X105697000Y-103831500I0J237500D01*
G01*
X105697000Y-103231500D01*
G75*
G02*
X105934500Y-102994000I237500J0D01*
G01*
G37*
%TD*%
%TO.C,C3*%
G36*
G01*
X85614500Y-104973000D02*
X86089500Y-104973000D01*
G75*
G02*
X86327000Y-105210500I0J-237500D01*
G01*
X86327000Y-105810500D01*
G75*
G02*
X86089500Y-106048000I-237500J0D01*
G01*
X85614500Y-106048000D01*
G75*
G02*
X85377000Y-105810500I0J237500D01*
G01*
X85377000Y-105210500D01*
G75*
G02*
X85614500Y-104973000I237500J0D01*
G01*
G37*
G36*
G01*
X85614500Y-103248000D02*
X86089500Y-103248000D01*
G75*
G02*
X86327000Y-103485500I0J-237500D01*
G01*
X86327000Y-104085500D01*
G75*
G02*
X86089500Y-104323000I-237500J0D01*
G01*
X85614500Y-104323000D01*
G75*
G02*
X85377000Y-104085500I0J237500D01*
G01*
X85377000Y-103485500D01*
G75*
G02*
X85614500Y-103248000I237500J0D01*
G01*
G37*
%TD*%
%TO.C,C2*%
G36*
G01*
X86543000Y-100346500D02*
X86543000Y-100821500D01*
G75*
G02*
X86305500Y-101059000I-237500J0D01*
G01*
X85705500Y-101059000D01*
G75*
G02*
X85468000Y-100821500I0J237500D01*
G01*
X85468000Y-100346500D01*
G75*
G02*
X85705500Y-100109000I237500J0D01*
G01*
X86305500Y-100109000D01*
G75*
G02*
X86543000Y-100346500I0J-237500D01*
G01*
G37*
G36*
G01*
X88268000Y-100346500D02*
X88268000Y-100821500D01*
G75*
G02*
X88030500Y-101059000I-237500J0D01*
G01*
X87430500Y-101059000D01*
G75*
G02*
X87193000Y-100821500I0J237500D01*
G01*
X87193000Y-100346500D01*
G75*
G02*
X87430500Y-100109000I237500J0D01*
G01*
X88030500Y-100109000D01*
G75*
G02*
X88268000Y-100346500I0J-237500D01*
G01*
G37*
%TD*%
%TO.C,C1*%
G36*
G01*
X108220500Y-111831000D02*
X108695500Y-111831000D01*
G75*
G02*
X108933000Y-112068500I0J-237500D01*
G01*
X108933000Y-112668500D01*
G75*
G02*
X108695500Y-112906000I-237500J0D01*
G01*
X108220500Y-112906000D01*
G75*
G02*
X107983000Y-112668500I0J237500D01*
G01*
X107983000Y-112068500D01*
G75*
G02*
X108220500Y-111831000I237500J0D01*
G01*
G37*
G36*
G01*
X108220500Y-110106000D02*
X108695500Y-110106000D01*
G75*
G02*
X108933000Y-110343500I0J-237500D01*
G01*
X108933000Y-110943500D01*
G75*
G02*
X108695500Y-111181000I-237500J0D01*
G01*
X108220500Y-111181000D01*
G75*
G02*
X107983000Y-110943500I0J237500D01*
G01*
X107983000Y-110343500D01*
G75*
G02*
X108220500Y-110106000I237500J0D01*
G01*
G37*
%TD*%
M02*
